{"glyphs":{"0":{"ha":2843,"x_min":0,"x_max":0,"o":"m 1486 785 b 1550 835 1519 785 1543 799 b 1553 889 1553 850 1553 869 b 1547 994 1553 922 1558 964 b 1482 1029 1539 1021 1508 1029 b 1425 986 1457 1028 1432 1017 b 1421 881 1418 956 1421 917 b 1425 836 1421 867 1421 851 b 1486 785 1429 803 1450 785 z m 425 -15 l 471 -15 l 472 107 l 499 -15 l 533 -15 l 554 110 l 560 -15 l 601 -15 l 601 286 l 550 286 l 515 97 l 478 286 l 429 286 z m 642 -15 l 689 -15 l 689 132 l 742 -15 l 779 -15 l 779 286 l 731 286 l 731 142 l 679 286 l 642 286 z m 788 -254 b 824 -339 788 -283 779 -339 b 851 -293 850 -339 851 -314 l 838 -293 b 836 -317 838 -301 838 -310 b 811 -321 832 -328 815 -329 b 804 -276 803 -310 804 -286 b 808 -233 804 -265 803 -243 b 836 -235 815 -225 832 -225 b 838 -257 838 -243 838 -253 l 851 -257 b 828 -217 851 -239 851 -218 b 788 -254 800 -211 788 -232 z m 813 -15 l 864 -15 l 864 39 l 813 39 z m 867 -275 b 901 -339 867 -300 861 -339 b 936 -276 936 -339 936 -303 b 903 -217 936 -253 938 -218 b 867 -275 867 -211 867 -243 z m 869 788 l 901 788 l 901 897 b 967 911 922 897 951 896 b 979 1001 993 931 993 972 b 921 1028 967 1025 944 1028 l 869 1028 z m 871 604 b 878 546 871 581 871 561 b 960 514 889 514 932 500 b 1000 644 1011 529 1000 603 l 1000 754 l 967 754 l 967 665 l 967 589 b 922 535 967 561 958 524 b 903 593 901 547 903 572 l 903 754 l 871 754 z m 882 -265 l 882 -249 b 908 -231 882 -235 890 -222 b 918 -282 921 -235 918 -268 b 890 -324 918 -299 919 -339 b 882 -265 878 -318 882 -278 z m 883 90 b 896 17 883 64 886 39 b 968 -19 908 -11 939 -24 b 1021 42 1001 -11 1019 15 b 986 142 1025 81 1014 114 l 963 169 b 933 204 951 179 939 188 b 954 243 929 215 931 244 b 974 185 974 240 969 204 l 1019 188 b 981 283 1019 224 1015 267 b 886 231 938 304 888 275 b 899 161 882 206 886 179 b 926 129 903 150 917 142 b 974 54 943 110 974 86 b 961 29 974 42 969 32 b 942 39 951 25 946 32 b 931 93 931 56 931 75 z m 901 924 l 901 1001 b 936 1001 913 1001 924 1006 b 957 958 957 996 957 975 b 936 926 957 943 954 931 b 901 924 924 922 913 924 z m 913 -185 l 932 -185 l 932 -128 l 954 -128 l 954 -117 l 932 -117 l 932 -75 l 960 -75 l 960 -64 l 913 -64 z m 951 -339 l 965 -339 l 965 -249 l 985 -339 l 999 -339 l 1018 -249 l 1018 -339 l 1031 -339 l 1029 -217 l 1013 -217 l 993 -314 l 969 -217 l 951 -217 z m 969 -121 b 1004 -186 969 -149 967 -186 b 1038 -125 1038 -186 1038 -151 b 1007 -60 1038 -101 1042 -65 b 969 -121 969 -60 969 -92 z m 988 -117 l 988 -97 b 1013 -76 988 -82 999 -68 b 1021 -129 1026 -82 1021 -117 b 999 -174 1021 -149 1021 -179 b 988 -117 979 -167 988 -128 z m 1013 788 l 1106 788 l 1106 810 l 1044 810 l 1044 897 l 1093 897 l 1093 924 l 1044 924 l 1044 1001 l 1103 1001 l 1103 1028 l 1013 1028 z m 1026 579 b 1092 511 1029 542 1051 511 b 1146 583 1131 511 1154 547 b 1099 647 1143 614 1119 629 b 1061 708 1079 665 1051 682 b 1092 726 1064 722 1075 732 b 1117 683 1111 722 1117 701 l 1143 693 b 1122 744 1143 713 1139 732 b 1065 754 1106 754 1082 757 b 1036 663 1026 742 1018 693 b 1083 617 1047 644 1069 629 b 1111 589 1097 610 1103 599 b 1107 542 1119 576 1122 553 b 1071 546 1099 532 1081 535 b 1060 589 1061 556 1061 572 z m 1044 136 b 1046 51 1044 107 1042 81 b 1076 -10 1049 29 1056 0 b 1151 -6 1097 -24 1132 -24 l 1153 -15 l 1193 -15 l 1193 142 l 1115 142 l 1115 97 l 1144 97 b 1115 29 1144 81 1150 15 b 1097 93 1092 36 1097 76 l 1097 201 b 1125 243 1097 225 1101 246 b 1142 179 1139 236 1142 232 l 1190 179 b 1157 279 1190 213 1193 258 b 1090 286 1139 292 1113 292 b 1046 224 1064 275 1050 249 b 1044 136 1042 196 1044 165 z m 1051 -339 l 1065 -339 l 1068 -249 l 1083 -339 l 1097 -339 l 1117 -249 l 1119 -339 l 1131 -339 l 1128 -217 l 1113 -217 l 1092 -314 l 1069 -217 l 1051 -217 z m 1056 -185 l 1071 -185 l 1071 -128 l 1083 -128 l 1101 -185 l 1119 -185 l 1101 -125 b 1101 -67 1124 -117 1119 -76 b 1056 -64 1089 -60 1069 -64 z m 1068 329 l 1083 329 l 1083 388 b 1119 396 1097 388 1107 386 b 1124 442 1128 404 1128 428 b 1068 456 1113 460 1083 456 z m 1071 -117 l 1071 -75 b 1101 -94 1089 -75 1101 -76 b 1071 -117 1101 -114 1088 -117 z m 1083 399 l 1083 446 b 1111 425 1101 446 1111 446 b 1101 400 1111 414 1111 406 b 1083 399 1099 399 1089 399 z m 1131 788 l 1167 788 l 1167 899 l 1192 899 l 1226 788 l 1254 788 l 1226 907 b 1226 1018 1264 922 1260 997 b 1131 1028 1199 1031 1163 1028 z m 1143 329 l 1188 329 l 1188 343 l 1156 343 l 1156 456 l 1143 456 z m 1150 -339 l 1199 -339 l 1199 -328 l 1169 -328 l 1169 -278 l 1193 -278 l 1193 -265 l 1169 -265 l 1169 -229 l 1199 -229 l 1199 -217 l 1150 -217 z m 1158 -75 l 1181 -75 l 1181 -185 l 1199 -185 l 1199 -75 l 1222 -75 l 1222 -64 l 1158 -64 z m 1167 924 l 1167 1001 b 1200 999 1176 1001 1188 1006 b 1219 967 1217 994 1219 978 b 1200 926 1221 949 1217 933 b 1167 924 1188 924 1176 924 z m 1176 514 l 1268 514 l 1268 535 l 1207 535 l 1207 624 l 1256 624 l 1256 647 l 1207 647 l 1207 726 l 1268 726 l 1268 754 l 1176 754 z m 1200 329 l 1247 329 l 1247 343 l 1217 343 l 1217 388 l 1242 388 l 1242 400 l 1217 400 l 1217 446 l 1247 446 l 1247 456 l 1200 456 z m 1203 -54 l 1246 -54 l 1332 325 l 1283 325 z m 1211 -339 l 1231 -339 l 1231 -278 l 1244 -278 l 1258 -339 l 1274 -339 l 1256 -276 b 1258 -219 1278 -268 1275 -231 b 1211 -217 1244 -211 1229 -217 z m 1231 -265 l 1231 -229 b 1256 -249 1244 -229 1256 -231 b 1231 -265 1256 -265 1244 -265 z m 1231 -185 l 1244 -185 l 1244 -128 l 1279 -128 l 1279 -185 l 1297 -185 l 1297 -64 l 1279 -64 l 1279 -117 l 1244 -117 l 1244 -64 l 1231 -64 z m 1254 329 l 1271 329 l 1274 363 l 1301 363 l 1307 329 l 1325 329 l 1301 456 l 1282 456 z m 1275 372 l 1289 433 l 1301 372 z m 1275 854 b 1343 785 1278 815 1301 785 b 1399 858 1382 785 1406 821 b 1350 924 1392 885 1368 903 b 1310 983 1331 938 1307 956 b 1343 1006 1313 997 1328 1006 b 1368 958 1361 999 1364 975 l 1396 968 b 1374 1018 1393 986 1389 1008 b 1317 1025 1358 1029 1332 1031 b 1288 935 1275 1017 1268 968 b 1335 890 1301 918 1321 903 b 1361 864 1349 879 1354 869 b 1361 817 1371 850 1374 826 b 1321 821 1350 807 1332 808 b 1308 864 1313 829 1310 844 z m 1289 -254 b 1321 -339 1289 -283 1278 -339 b 1353 -293 1350 -339 1353 -314 l 1335 -293 b 1335 -317 1335 -301 1339 -310 b 1310 -321 1332 -328 1317 -329 b 1307 -276 1301 -310 1307 -286 b 1310 -233 1307 -265 1301 -243 b 1335 -235 1317 -225 1332 -225 b 1335 -257 1339 -243 1335 -253 l 1353 -257 b 1328 -217 1353 -239 1350 -218 b 1289 -254 1301 -211 1289 -232 z m 1314 -185 l 1361 -185 l 1361 -176 l 1332 -176 l 1332 -128 l 1356 -128 l 1356 -117 l 1332 -117 l 1332 -75 l 1361 -75 l 1361 -64 l 1314 -64 z m 1332 364 b 1364 329 1335 346 1346 329 b 1393 371 1388 329 1400 349 b 1364 400 1392 385 1376 390 b 1350 433 1356 408 1346 419 b 1378 419 1353 447 1368 453 l 1393 422 b 1376 453 1393 433 1388 447 b 1343 449 1364 457 1350 456 b 1350 396 1325 433 1335 410 b 1378 357 1358 386 1378 372 b 1358 343 1378 346 1371 342 b 1350 371 1350 346 1350 361 z m 1342 -18 l 1389 -18 l 1389 106 l 1414 -18 l 1449 -18 l 1472 108 l 1475 -18 l 1521 -18 l 1518 285 l 1465 285 l 1431 94 l 1394 285 l 1349 285 z m 1358 610 b 1361 561 1358 593 1358 576 b 1425 511 1364 528 1392 511 b 1486 558 1458 511 1482 528 b 1488 617 1492 576 1488 594 b 1482 719 1488 646 1496 689 b 1419 754 1475 746 1450 754 b 1361 713 1393 754 1371 742 b 1358 610 1354 682 1358 644 z m 1371 -339 l 1388 -339 l 1388 -217 l 1371 -217 z m 1393 589 l 1393 629 b 1393 707 1393 654 1389 683 b 1418 726 1399 719 1404 726 b 1449 719 1425 732 1438 726 b 1457 682 1458 710 1457 696 l 1457 594 b 1457 569 1457 589 1458 576 b 1438 539 1456 558 1450 546 b 1407 539 1429 535 1418 535 b 1393 589 1392 547 1393 569 z m 1400 -339 l 1418 -339 l 1425 -306 l 1450 -306 l 1456 -339 l 1472 -339 l 1443 -217 l 1425 -217 z m 1407 329 l 1458 329 l 1458 343 l 1425 343 l 1425 388 l 1450 388 l 1450 400 l 1425 400 l 1425 446 l 1457 446 l 1457 456 l 1407 456 z m 1414 -185 l 1425 -185 l 1425 -128 l 1450 -128 l 1450 -117 l 1425 -117 l 1425 -75 l 1460 -75 l 1460 -64 l 1414 -64 z m 1425 -297 l 1438 -239 l 1449 -297 z m 1457 860 l 1457 903 b 1458 978 1457 926 1450 958 b 1482 1001 1463 994 1469 1001 b 1508 994 1492 1006 1500 1006 b 1519 954 1519 983 1519 968 l 1519 844 b 1501 813 1519 833 1517 821 b 1475 813 1496 808 1482 808 b 1457 860 1456 822 1457 844 z m 1472 -156 b 1511 -185 1475 -179 1489 -192 b 1533 -118 1538 -176 1533 -140 l 1533 -64 l 1519 -64 l 1519 -117 b 1500 -176 1519 -132 1524 -176 b 1485 -117 1479 -176 1485 -132 l 1485 -64 l 1472 -64 l 1472 -128 b 1472 -156 1472 -136 1469 -149 z m 1482 -339 l 1531 -339 l 1531 -328 l 1499 -328 l 1499 -217 l 1482 -217 z m 1499 456 l 1525 329 l 1543 329 l 1568 456 l 1553 456 l 1533 364 l 1517 456 z m 1524 514 l 1550 514 l 1550 676 l 1621 514 l 1644 514 l 1644 754 l 1614 754 l 1614 593 l 1547 754 l 1524 754 z m 1546 90 b 1547 46 1546 76 1546 63 b 1592 -15 1550 21 1564 -6 b 1658 -8 1613 -22 1639 -22 b 1689 90 1692 11 1689 57 l 1689 178 b 1658 278 1689 210 1692 257 b 1592 285 1639 289 1613 289 b 1547 219 1564 274 1550 247 b 1546 175 1546 206 1546 190 z m 1553 -185 l 1600 -185 l 1600 -176 l 1572 -176 l 1572 -64 l 1553 -64 z m 1572 -217 l 1600 -339 l 1613 -339 l 1640 -217 l 1625 -217 l 1606 -306 l 1588 -217 z m 1581 329 l 1600 329 l 1600 456 l 1581 456 z m 1588 788 l 1614 788 l 1614 949 l 1682 788 l 1704 788 l 1704 1028 l 1675 1028 l 1675 867 l 1607 1028 l 1588 1028 z m 1596 97 l 1596 169 b 1601 231 1596 186 1594 210 b 1624 242 1603 235 1614 242 b 1639 222 1632 238 1639 233 b 1640 178 1643 208 1640 193 l 1640 90 b 1639 46 1640 75 1643 60 b 1624 28 1639 33 1632 32 b 1601 38 1614 25 1603 32 b 1596 97 1594 57 1596 81 z m 1613 -185 l 1660 -185 l 1660 -176 l 1629 -176 l 1629 -64 l 1613 -64 z m 1615 364 b 1649 329 1618 346 1625 329 b 1675 371 1669 329 1681 349 b 1650 400 1674 385 1658 394 b 1633 433 1643 410 1628 419 b 1660 419 1640 447 1657 453 l 1675 422 b 1658 453 1674 433 1669 447 b 1625 449 1650 457 1636 456 b 1632 396 1606 433 1618 410 b 1660 357 1644 386 1663 372 b 1644 343 1660 346 1653 342 b 1632 371 1636 346 1632 361 z m 1653 -339 l 1703 -339 l 1703 -328 l 1671 -328 l 1671 -278 l 1697 -278 l 1697 -265 l 1671 -265 l 1671 -229 l 1703 -229 l 1703 -217 l 1653 -217 z m 1681 514 l 1771 514 l 1771 535 l 1714 535 l 1714 754 l 1681 754 z m 1690 329 l 1708 329 l 1708 456 l 1690 456 z m 1703 -185 l 1717 -185 l 1725 -154 l 1749 -154 l 1753 -185 l 1771 -185 l 1744 -64 l 1725 -64 z m 1715 -339 l 1733 -339 l 1733 -278 l 1744 -278 l 1761 -339 l 1778 -339 l 1758 -278 b 1763 -219 1781 -269 1781 -231 b 1715 -217 1749 -211 1731 -217 z m 1715 135 b 1717 50 1715 106 1715 79 b 1747 -11 1718 28 1728 0 b 1819 -7 1769 -24 1803 -25 l 1822 -18 l 1863 -18 l 1863 140 l 1785 140 l 1785 94 l 1815 94 b 1785 28 1815 79 1821 15 b 1767 90 1763 35 1767 75 l 1767 163 b 1768 226 1767 182 1764 208 b 1793 242 1769 240 1785 244 b 1813 178 1803 238 1813 229 l 1861 178 b 1828 278 1861 210 1863 257 b 1763 285 1810 289 1782 290 b 1717 222 1731 274 1719 247 b 1715 135 1714 193 1715 163 z m 1719 446 l 1743 446 l 1743 329 l 1757 329 l 1757 446 l 1778 446 l 1778 456 l 1719 456 z m 1725 -143 l 1735 -87 l 1746 -143 z m 1728 788 l 1758 788 l 1771 844 l 1821 844 l 1832 788 l 1864 788 l 1814 1028 l 1781 1028 z m 1733 -265 l 1733 -229 b 1758 -249 1749 -229 1758 -231 b 1733 -265 1758 -265 1749 -265 z m 1776 869 l 1799 978 l 1817 869 z m 1783 -185 l 1800 -185 l 1800 -103 l 1832 -185 l 1844 -185 l 1844 -64 l 1828 -64 l 1828 -144 l 1794 -64 l 1783 -64 z m 1783 754 l 1817 644 b 1833 599 1825 629 1828 617 b 1833 561 1835 589 1833 572 l 1833 514 l 1867 514 l 1867 571 b 1869 604 1867 581 1864 593 l 1885 651 b 1918 754 1896 686 1908 719 l 1885 754 l 1849 636 l 1814 754 z m 1790 -303 b 1825 -339 1792 -324 1803 -339 b 1849 -301 1846 -339 1856 -321 b 1826 -265 1849 -283 1835 -276 b 1808 -235 1817 -257 1803 -249 b 1828 -229 1814 -229 1818 -225 b 1838 -253 1835 -232 1835 -243 l 1849 -244 b 1835 -218 1849 -233 1846 -222 b 1801 -222 1826 -211 1814 -214 b 1807 -275 1783 -233 1792 -260 b 1838 -311 1817 -282 1838 -297 b 1817 -324 1838 -321 1828 -329 b 1807 -300 1808 -321 1807 -306 z m 1864 -185 b 1913 -178 1876 -185 1900 -187 b 1925 -125 1931 -168 1925 -143 b 1918 -72 1925 -107 1931 -82 b 1864 -64 1901 -60 1878 -64 z m 1867 -339 l 1882 -339 l 1882 -217 l 1867 -217 z m 1881 -176 l 1881 -75 b 1908 -93 1896 -75 1908 -75 l 1908 -156 b 1881 -176 1903 -176 1894 -176 z m 1889 90 b 1890 46 1889 76 1889 63 b 1932 -15 1892 21 1906 -6 b 2001 -8 1954 -22 1981 -22 b 2032 90 2035 11 2032 57 l 2032 285 l 1983 285 l 1983 90 b 1981 46 1983 75 1983 60 b 1967 28 1981 33 1975 32 b 1942 38 1956 25 1947 32 b 1939 97 1939 57 1939 81 l 1939 285 l 1889 285 z m 1889 788 l 1983 788 l 1983 810 l 1922 810 l 1922 1028 l 1889 1028 z m 1900 -275 b 1936 -339 1900 -300 1897 -339 b 1969 -276 1971 -339 1969 -303 b 1939 -217 1969 -253 1974 -218 b 1900 -275 1900 -211 1900 -243 z m 1922 -265 l 1922 -249 b 1946 -231 1922 -235 1926 -222 b 1953 -282 1957 -235 1953 -268 b 1926 -324 1953 -299 1954 -339 b 1922 -265 1913 -318 1922 -278 z m 1936 514 l 1969 514 l 1969 547 l 1936 547 z m 1936 754 l 1946 564 l 1957 564 l 1969 754 z m 1988 -339 l 1997 -339 l 1997 -254 l 2036 -339 l 2047 -339 l 2047 -217 l 2035 -217 l 2035 -299 l 1997 -217 l 1988 -217 z m 2058 -18 l 2110 -18 l 2110 285 l 2058 285 z m 2136 -18 l 2182 -18 l 2182 131 l 2233 -18 l 2272 -18 l 2272 285 l 2225 285 l 2225 140 l 2172 285 l 2136 285 z m 2299 -18 l 2415 -18 l 2415 33 l 2347 33 l 2347 114 l 2403 114 l 2403 167 l 2347 167 l 2347 233 l 2415 233 l 2415 285 l 2299 285 z "},"\u0000":{"ha":0,"x_min":0,"x_max":0,"o":""}," ":{"ha":556,"x_min":0,"x_max":0,"o":""},"A":{"ha":764,"x_min":0,"x_max":0,"o":"m 685 78 l 376 1081 b 296 933 397 1013 363 954 l 497 303 b 247 297 494 303 399 301 b 501 293 392 293 488 292 l 569 78 b 493 0 589 18 540 1 l 764 0 b 685 78 717 1 701 25 z m 0 0 l 226 0 b 222 439 133 0 157 222 b 0 0 132 144 82 0 z "},"Á":{"ha":764,"x_min":0,"x_max":0,"o":"m 685 78 l 376 1081 b 296 933 397 1013 363 954 l 497 303 b 247 297 494 303 399 301 b 501 293 392 293 488 292 l 569 78 b 493 0 589 18 540 1 l 764 0 b 685 78 717 1 701 25 z m 0 0 l 226 0 b 222 439 133 0 157 222 b 0 0 132 144 82 0 z m 290 1090 l 474 1247 l 358 1278 z "},"Ă":{"ha":764,"x_min":0,"x_max":0,"o":"m 685 78 l 376 1081 b 296 933 397 1013 363 954 l 497 303 b 247 297 494 303 399 301 b 501 293 392 293 488 292 l 569 78 b 493 0 589 18 540 1 l 764 0 b 685 78 717 1 701 25 z m 0 0 l 226 0 b 222 439 133 0 157 222 b 0 0 132 144 82 0 z m 231 1307 b 378 1117 249 1218 285 1117 b 532 1300 471 1117 501 1211 b 382 1185 503 1238 456 1185 b 231 1307 306 1185 251 1244 z "},"Ắ":{"ha":764,"x_min":0,"x_max":0,"o":"m 685 78 l 376 1081 b 296 933 397 1013 363 954 l 497 303 b 247 297 494 303 399 301 b 501 293 392 293 488 292 l 569 78 b 493 0 589 18 540 1 l 764 0 b 685 78 717 1 701 25 z m 0 0 l 226 0 b 222 439 133 0 157 222 b 0 0 132 144 82 0 z m 231 1307 b 378 1117 249 1218 285 1117 b 532 1300 471 1117 501 1211 b 382 1185 503 1238 456 1185 b 231 1307 306 1185 251 1244 z m 290 1383 l 474 1540 l 358 1571 z "},"Ặ":{"ha":764,"x_min":0,"x_max":0,"o":"m 685 78 l 376 1081 b 296 933 397 1013 363 954 l 497 303 b 247 297 494 303 399 301 b 501 293 392 293 488 292 l 569 78 b 493 0 589 18 540 1 l 764 0 b 685 78 717 1 701 25 z m 0 0 l 226 0 b 222 439 133 0 157 222 b 0 0 132 144 82 0 z m 231 1307 b 378 1117 249 1218 285 1117 b 532 1300 471 1117 501 1211 b 382 1185 503 1238 456 1185 b 231 1307 306 1185 251 1244 z m 331 -187 b 383 -239 331 -218 351 -239 b 435 -187 414 -239 435 -218 b 383 -135 435 -156 414 -135 b 331 -187 351 -135 331 -156 z "},"Ằ":{"ha":764,"x_min":0,"x_max":0,"o":"m 685 78 l 376 1081 b 296 933 397 1013 363 954 l 497 303 b 247 297 494 303 399 301 b 501 293 392 293 488 292 l 569 78 b 493 0 589 18 540 1 l 764 0 b 685 78 717 1 701 25 z m 0 0 l 226 0 b 222 439 133 0 157 222 b 0 0 132 144 82 0 z m 231 1307 b 378 1117 249 1218 285 1117 b 532 1300 471 1117 501 1211 b 382 1185 503 1238 456 1185 b 231 1307 306 1185 251 1244 z m 290 1540 l 474 1383 l 406 1571 z "},"Ẳ":{"ha":764,"x_min":0,"x_max":0,"o":"m 685 78 l 376 1081 b 296 933 397 1013 363 954 l 497 303 b 247 297 494 303 399 301 b 501 293 392 293 488 292 l 569 78 b 493 0 589 18 540 1 l 764 0 b 685 78 717 1 701 25 z m 0 0 l 226 0 b 222 439 133 0 157 222 b 0 0 132 144 82 0 z m 231 1307 b 378 1117 249 1218 285 1117 b 532 1300 471 1117 501 1211 b 382 1185 503 1238 456 1185 b 231 1307 306 1185 251 1244 z m 314 1375 b 449 1500 390 1413 446 1447 b 396 1556 449 1533 431 1556 b 344 1504 365 1556 344 1535 b 368 1458 344 1483 353 1467 b 314 1375 390 1444 354 1396 z "},"Ẵ":{"ha":764,"x_min":0,"x_max":0,"o":"m 685 78 l 376 1081 b 296 933 397 1013 363 954 l 497 303 b 247 297 494 303 399 301 b 501 293 392 293 488 292 l 569 78 b 493 0 589 18 540 1 l 764 0 b 685 78 717 1 701 25 z m 0 0 l 226 0 b 222 439 133 0 157 222 b 0 0 132 144 82 0 z m 231 1307 b 378 1117 249 1218 285 1117 b 532 1300 471 1117 501 1211 b 382 1185 503 1238 456 1185 b 231 1307 306 1185 251 1244 z m 232 1351 b 318 1432 238 1418 251 1432 l 413 1432 b 531 1546 472 1432 531 1440 b 396 1486 531 1471 439 1486 l 339 1486 b 232 1351 269 1486 232 1440 z "},"Ǎ":{"ha":764,"x_min":0,"x_max":0,"o":"m 685 78 l 376 1081 b 296 933 397 1013 363 954 l 497 303 b 247 297 494 303 399 301 b 501 293 392 293 488 292 l 569 78 b 493 0 589 18 540 1 l 764 0 b 685 78 717 1 701 25 z m 0 0 l 226 0 b 222 439 133 0 157 222 b 0 0 132 144 82 0 z m 185 1211 l 371 1061 l 268 1226 z m 393 1061 l 578 1211 l 496 1226 z "},"Â":{"ha":764,"x_min":0,"x_max":0,"o":"m 685 78 l 376 1081 b 296 933 397 1013 363 954 l 497 303 b 247 297 494 303 399 301 b 501 293 392 293 488 292 l 569 78 b 493 0 589 18 540 1 l 764 0 b 685 78 717 1 701 25 z m 0 0 l 226 0 b 222 439 133 0 157 222 b 0 0 132 144 82 0 z m 185 1132 l 268 1117 l 371 1282 z m 393 1282 l 496 1117 l 578 1132 z "},"Ấ":{"ha":764,"x_min":0,"x_max":0,"o":"m 685 78 l 376 1081 b 296 933 397 1013 363 954 l 497 303 b 247 297 494 303 399 301 b 501 293 392 293 488 292 l 569 78 b 493 0 589 18 540 1 l 764 0 b 685 78 717 1 701 25 z m 0 0 l 226 0 b 222 439 133 0 157 222 b 0 0 132 144 82 0 z m 185 1132 l 268 1117 l 371 1282 z m 290 1400 l 474 1557 l 358 1588 z m 393 1282 l 496 1117 l 578 1132 z "},"Ậ":{"ha":764,"x_min":0,"x_max":0,"o":"m 685 78 l 376 1081 b 296 933 397 1013 363 954 l 497 303 b 247 297 494 303 399 301 b 501 293 392 293 488 292 l 569 78 b 493 0 589 18 540 1 l 764 0 b 685 78 717 1 701 25 z m 0 0 l 226 0 b 222 439 133 0 157 222 b 0 0 132 144 82 0 z m 185 1132 l 268 1117 l 371 1282 z m 331 -187 b 383 -239 331 -218 351 -239 b 435 -187 414 -239 435 -218 b 383 -135 435 -156 414 -135 b 331 -187 351 -135 331 -156 z m 393 1282 l 496 1117 l 578 1132 z "},"Ầ":{"ha":764,"x_min":0,"x_max":0,"o":"m 685 78 l 376 1081 b 296 933 397 1013 363 954 l 497 303 b 247 297 494 303 399 301 b 501 293 392 293 488 292 l 569 78 b 493 0 589 18 540 1 l 764 0 b 685 78 717 1 701 25 z m 0 0 l 226 0 b 222 439 133 0 157 222 b 0 0 132 144 82 0 z m 185 1132 l 268 1117 l 371 1282 z m 290 1557 l 474 1400 l 406 1588 z m 393 1282 l 496 1117 l 578 1132 z "},"Ẩ":{"ha":764,"x_min":0,"x_max":0,"o":"m 685 78 l 376 1081 b 296 933 397 1013 363 954 l 497 303 b 247 297 494 303 399 301 b 501 293 392 293 488 292 l 569 78 b 493 0 589 18 540 1 l 764 0 b 685 78 717 1 701 25 z m 0 0 l 226 0 b 222 439 133 0 157 222 b 0 0 132 144 82 0 z m 185 1132 l 268 1117 l 371 1282 z m 314 1392 b 449 1517 390 1429 446 1464 b 396 1572 449 1550 431 1572 b 344 1521 365 1572 344 1551 b 368 1475 344 1500 353 1483 b 314 1392 390 1461 354 1413 z m 393 1282 l 496 1117 l 578 1132 z "},"Ẫ":{"ha":764,"x_min":0,"x_max":0,"o":"m 685 78 l 376 1081 b 296 933 397 1013 363 954 l 497 303 b 247 297 494 303 399 301 b 501 293 392 293 488 292 l 569 78 b 493 0 589 18 540 1 l 764 0 b 685 78 717 1 701 25 z m 0 0 l 226 0 b 222 439 133 0 157 222 b 0 0 132 144 82 0 z m 185 1132 l 268 1117 l 371 1282 z m 232 1368 b 318 1449 238 1435 251 1449 l 413 1449 b 531 1563 472 1449 531 1457 b 396 1503 531 1488 439 1503 l 339 1503 b 232 1368 269 1503 232 1457 z m 393 1282 l 496 1117 l 578 1132 z "},"Ä":{"ha":764,"x_min":0,"x_max":0,"o":"m 685 78 l 376 1081 b 296 933 397 1013 363 954 l 497 303 b 247 297 494 303 399 301 b 501 293 392 293 488 292 l 569 78 b 493 0 589 18 540 1 l 764 0 b 685 78 717 1 701 25 z m 0 0 l 226 0 b 222 439 133 0 157 222 b 0 0 132 144 82 0 z m 235 1161 b 286 1108 235 1129 256 1108 b 339 1161 318 1108 339 1129 b 286 1213 339 1192 318 1213 b 235 1161 256 1213 235 1192 z m 425 1161 b 476 1108 425 1129 446 1108 b 529 1161 508 1108 529 1129 b 476 1213 529 1192 508 1213 b 425 1161 446 1213 425 1192 z "},"Ǟ":{"ha":764,"x_min":0,"x_max":0,"o":"m 685 78 l 376 1081 b 296 933 397 1013 363 954 l 497 303 b 247 297 494 303 399 301 b 501 293 392 293 488 292 l 569 78 b 493 0 589 18 540 1 l 764 0 b 685 78 717 1 701 25 z m 0 0 l 226 0 b 222 439 133 0 157 222 b 0 0 132 144 82 0 z m 185 1379 l 578 1379 l 578 1389 l 185 1389 z m 235 1161 b 286 1108 235 1129 256 1108 b 339 1161 318 1108 339 1129 b 286 1213 339 1192 318 1213 b 235 1161 256 1213 235 1192 z m 425 1161 b 476 1108 425 1129 446 1108 b 529 1161 508 1108 529 1129 b 476 1213 529 1192 508 1213 b 425 1161 446 1213 425 1192 z "},"Ạ":{"ha":764,"x_min":0,"x_max":0,"o":"m 685 78 l 376 1081 b 296 933 397 1013 363 954 l 497 303 b 247 297 494 303 399 301 b 501 293 392 293 488 292 l 569 78 b 493 0 589 18 540 1 l 764 0 b 685 78 717 1 701 25 z m 0 0 l 226 0 b 222 439 133 0 157 222 b 0 0 132 144 82 0 z m 331 -187 b 383 -239 331 -218 351 -239 b 435 -187 414 -239 435 -218 b 383 -135 435 -156 414 -135 b 331 -187 351 -135 331 -156 z "},"À":{"ha":764,"x_min":0,"x_max":0,"o":"m 685 78 l 376 1081 b 296 933 397 1013 363 954 l 497 303 b 247 297 494 303 399 301 b 501 293 392 293 488 292 l 569 78 b 493 0 589 18 540 1 l 764 0 b 685 78 717 1 701 25 z m 0 0 l 226 0 b 222 439 133 0 157 222 b 0 0 132 144 82 0 z m 290 1247 l 474 1090 l 406 1278 z "},"Ả":{"ha":764,"x_min":0,"x_max":0,"o":"m 685 78 l 376 1081 b 296 933 397 1013 363 954 l 497 303 b 247 297 494 303 399 301 b 501 293 392 293 488 292 l 569 78 b 493 0 589 18 540 1 l 764 0 b 685 78 717 1 701 25 z m 0 0 l 226 0 b 222 439 133 0 157 222 b 0 0 132 144 82 0 z m 314 1082 b 449 1207 390 1119 446 1154 b 396 1263 449 1240 431 1263 b 344 1211 365 1263 344 1242 b 368 1165 344 1190 353 1174 b 314 1082 390 1151 354 1103 z "},"Ɑ":{"ha":753,"x_min":0,"x_max":0,"o":"m 410 972 b 35 461 183 972 35 769 b 361 0 35 188 163 7 b 492 1 403 -1 443 -1 b 146 464 243 -3 151 119 b 494 971 140 800 261 976 b 410 972 451 972 450 972 z m 494 971 b 500 971 496 971 499 971 z m 547 0 l 732 0 b 658 56 692 1 658 10 l 658 917 b 732 972 658 963 692 971 l 547 972 z "},"Ā":{"ha":764,"x_min":0,"x_max":0,"o":"m 685 78 l 376 1081 b 296 933 397 1013 363 954 l 497 303 b 247 297 494 303 399 301 b 501 293 392 293 488 292 l 569 78 b 493 0 589 18 540 1 l 764 0 b 685 78 717 1 701 25 z m 0 0 l 226 0 b 222 439 133 0 157 222 b 0 0 132 144 82 0 z m 185 1139 l 578 1139 l 578 1149 l 185 1149 z "},"Ą":{"ha":764,"x_min":0,"x_max":0,"o":"m 685 78 l 376 1081 b 296 933 397 1013 363 954 l 497 303 b 247 297 494 303 399 301 b 501 293 392 293 488 292 l 569 78 b 493 0 589 18 540 1 l 578 0 b 544 -62 557 -12 544 -33 b 688 -164 544 -121 593 -164 b 597 -61 621 -162 597 -124 b 611 0 597 -32 601 -12 l 764 0 b 685 78 717 1 701 25 z m 0 0 l 226 0 b 222 439 133 0 157 222 b 0 0 132 144 82 0 z "},"Å":{"ha":764,"x_min":0,"x_max":0,"o":"m 685 78 l 376 1081 b 296 933 397 1013 363 954 l 497 303 b 247 297 494 303 399 301 b 501 293 392 293 488 292 l 569 78 b 493 0 589 18 540 1 l 764 0 b 685 78 717 1 701 25 z m 0 0 l 226 0 b 222 439 133 0 157 222 b 0 0 132 144 82 0 z m 263 1207 b 382 1088 263 1135 310 1088 b 500 1207 453 1088 500 1135 b 382 1325 500 1278 453 1325 b 263 1207 310 1325 263 1278 z m 282 1207 b 382 1306 282 1267 321 1306 b 481 1207 442 1306 481 1267 b 382 1107 481 1146 442 1107 b 282 1207 321 1107 282 1146 z "},"Ã":{"ha":764,"x_min":0,"x_max":0,"o":"m 685 78 l 376 1081 b 296 933 397 1013 363 954 l 497 303 b 247 297 494 303 399 301 b 501 293 392 293 488 292 l 569 78 b 493 0 589 18 540 1 l 764 0 b 685 78 717 1 701 25 z m 0 0 l 226 0 b 222 439 133 0 157 222 b 0 0 132 144 82 0 z m 232 1058 b 318 1139 238 1125 251 1139 l 413 1139 b 531 1253 472 1139 531 1147 b 396 1193 531 1178 439 1193 l 339 1193 b 232 1058 269 1193 232 1147 z "},"Æ":{"ha":1071,"x_min":0,"x_max":0,"o":"m 501 293 l 501 56 b 428 0 501 10 468 1 l 613 0 l 613 972 l 428 972 b 501 917 468 971 501 963 l 501 303 b 247 297 501 303 403 301 b 501 293 393 293 489 292 z m 0 0 l 226 0 b 222 439 133 0 157 222 b 0 0 132 144 82 0 z m 654 0 l 1022 0 l 1022 171 b 654 0 1022 92 899 0 z m 660 496 b 894 346 813 496 894 419 l 894 646 b 660 496 894 572 813 496 z m 660 972 b 986 803 865 972 986 876 l 986 972 z "},"Ǣ":{"ha":1071,"x_min":0,"x_max":0,"o":"m 501 293 l 501 56 b 428 0 501 10 468 1 l 613 0 l 613 972 l 428 972 b 501 917 468 971 501 963 l 501 303 b 247 297 501 303 403 301 b 501 293 393 293 489 292 z m 0 0 l 226 0 b 222 439 133 0 157 222 b 0 0 132 144 82 0 z m 339 1139 l 732 1139 l 732 1149 l 339 1149 z m 654 0 l 1022 0 l 1022 171 b 654 0 1022 92 899 0 z m 660 496 b 894 346 813 496 894 419 l 894 646 b 660 496 894 572 813 496 z m 660 972 b 986 803 865 972 986 876 l 986 972 z "},"B":{"ha":717,"x_min":0,"x_max":0,"o":"m 343 972 b 263 971 304 972 301 972 b 483 739 396 974 483 907 b 354 536 483 607 429 542 l 264 529 l 364 529 b 564 264 492 529 564 433 b 261 1 564 75 474 -3 b 392 0 310 -1 350 -1 b 675 265 565 6 675 108 b 444 539 675 407 586 514 b 594 747 533 564 594 647 b 343 972 594 886 475 972 z m 21 0 l 206 0 l 206 972 l 21 972 b 94 917 61 971 94 963 l 94 56 b 21 0 94 10 61 1 z m 253 971 b 263 971 256 971 260 971 z "},"Ḅ":{"ha":717,"x_min":0,"x_max":0,"o":"m 343 972 b 263 971 304 972 301 972 b 483 739 396 974 483 907 b 354 536 483 607 429 542 l 264 529 l 364 529 b 564 264 492 529 564 433 b 261 1 564 75 474 -3 b 392 0 310 -1 350 -1 b 675 265 565 6 675 108 b 444 539 675 407 586 514 b 594 747 533 564 594 647 b 343 972 594 886 475 972 z m 21 0 l 206 0 l 206 972 l 21 972 b 94 917 61 971 94 963 l 94 56 b 21 0 94 10 61 1 z m 253 971 b 263 971 256 971 260 971 z m 307 -187 b 360 -239 307 -218 328 -239 b 411 -187 390 -239 411 -218 b 360 -135 411 -156 390 -135 b 307 -187 328 -135 307 -156 z "},"Ƀ":{"ha":717,"x_min":0,"x_max":0,"o":"m 343 972 b 263 971 304 972 301 972 b 483 739 396 974 483 907 b 354 536 483 607 429 542 l 264 529 l 364 529 b 564 264 492 529 564 433 b 261 1 564 75 474 -3 b 392 0 310 -1 350 -1 b 675 265 565 6 675 108 b 444 539 675 407 586 514 b 594 747 533 564 594 647 b 343 972 594 886 475 972 z m 7 264 l 94 264 l 94 56 b 21 0 94 10 61 1 l 206 0 l 206 264 l 400 264 l 400 274 l 206 274 l 206 972 l 21 972 b 94 917 61 971 94 963 l 94 274 l 7 274 z m 253 971 b 263 971 256 971 260 971 z "},"C":{"ha":742,"x_min":0,"x_max":0,"o":"m 665 663 l 665 990 b 624 931 665 946 649 931 b 444 985 575 931 496 985 b 665 663 522 985 649 765 z m 35 483 b 374 -12 35 156 164 -12 b 146 494 228 -6 144 172 b 374 985 147 811 229 978 b 35 483 165 985 35 813 z m 444 -12 b 639 56 497 -12 588 56 b 678 0 663 56 678 42 l 678 336 b 444 -12 678 229 522 -12 z "},"Ć":{"ha":742,"x_min":0,"x_max":0,"o":"m 665 663 l 665 990 b 624 931 665 946 649 931 b 444 985 575 931 496 985 b 665 663 522 985 649 765 z m 35 483 b 374 -12 35 156 164 -12 b 146 494 228 -6 144 172 b 374 985 147 811 229 978 b 35 483 165 985 35 813 z m 279 1090 l 463 1247 l 347 1278 z m 444 -12 b 639 56 497 -12 588 56 b 678 0 663 56 678 42 l 678 336 b 444 -12 678 229 522 -12 z "},"Č":{"ha":742,"x_min":0,"x_max":0,"o":"m 665 663 l 665 990 b 624 931 665 946 649 931 b 444 985 575 931 496 985 b 665 663 522 985 649 765 z m 35 483 b 374 -12 35 156 164 -12 b 146 494 228 -6 144 172 b 374 985 147 811 229 978 b 35 483 165 985 35 813 z m 174 1211 l 360 1061 l 257 1226 z m 382 1061 l 567 1211 l 485 1226 z m 444 -12 b 639 56 497 -12 588 56 b 678 0 663 56 678 42 l 678 336 b 444 -12 678 229 522 -12 z "},"Ç":{"ha":742,"x_min":0,"x_max":0,"o":"m 665 663 l 665 990 b 624 931 665 946 649 931 b 444 985 575 931 496 985 b 665 663 522 985 649 765 z m 35 483 b 374 -12 35 156 164 -12 b 146 494 228 -6 144 172 b 374 985 147 811 229 978 b 35 483 165 985 35 813 z m 299 -228 b 442 -171 393 -228 442 -208 b 349 -117 442 -137 404 -117 b 389 -171 374 -117 389 -135 b 299 -228 389 -211 365 -226 z m 324 -117 l 333 -117 l 333 -49 l 324 -49 z m 444 -12 b 639 56 497 -12 588 56 b 678 0 663 56 678 42 l 678 336 b 444 -12 678 229 522 -12 z "},"Ĉ":{"ha":742,"x_min":0,"x_max":0,"o":"m 665 663 l 665 990 b 624 931 665 946 649 931 b 444 985 575 931 496 985 b 665 663 522 985 649 765 z m 35 483 b 374 -12 35 156 164 -12 b 146 494 228 -6 144 172 b 374 985 147 811 229 978 b 35 483 165 985 35 813 z m 174 1132 l 257 1117 l 360 1282 z m 382 1282 l 485 1117 l 567 1132 z m 444 -12 b 639 56 497 -12 588 56 b 678 0 663 56 678 42 l 678 336 b 444 -12 678 229 522 -12 z "},"Ċ":{"ha":742,"x_min":0,"x_max":0,"o":"m 665 663 l 665 990 b 624 931 665 946 649 931 b 444 985 575 931 496 985 b 665 663 522 985 649 765 z m 35 483 b 374 -12 35 156 164 -12 b 146 494 228 -6 144 172 b 374 985 147 811 229 978 b 35 483 165 985 35 813 z m 318 1160 b 369 1107 318 1128 339 1107 b 422 1160 401 1107 422 1128 b 369 1211 422 1190 401 1211 b 318 1160 339 1211 318 1190 z m 444 -12 b 639 56 497 -12 588 56 b 678 0 663 56 678 42 l 678 336 b 444 -12 678 229 522 -12 z "},"D":{"ha":753,"x_min":0,"x_max":0,"o":"m 343 972 b 258 971 303 972 301 972 b 607 464 492 976 613 800 b 261 1 601 119 510 -3 b 392 0 310 -1 350 -1 b 718 461 590 7 718 188 b 343 972 718 769 569 972 z m 21 0 l 206 0 l 206 972 l 21 972 b 94 917 61 971 94 963 l 94 56 b 21 0 94 10 61 1 z m 253 971 b 258 971 254 971 257 971 z "},"Ð":{"ha":753,"x_min":0,"x_max":0,"o":"m 343 972 b 258 971 303 972 301 972 b 607 464 492 976 613 800 b 261 1 601 119 510 -3 b 392 0 310 -1 350 -1 b 718 461 590 7 718 188 b 343 972 718 769 569 972 z m 21 0 l 206 0 l 206 417 l 335 417 l 335 426 l 206 426 l 206 972 l 21 972 b 94 917 61 971 94 963 l 94 426 l 28 426 l 28 417 l 94 417 l 94 56 b 21 0 94 10 61 1 z m 253 971 b 258 971 254 971 257 971 z "},"Ď":{"ha":753,"x_min":0,"x_max":0,"o":"m 343 972 b 258 971 303 972 301 972 b 607 464 492 976 613 800 b 261 1 601 119 510 -3 b 392 0 310 -1 350 -1 b 718 461 590 7 718 188 b 343 972 718 769 569 972 z m 21 0 l 206 0 l 206 972 l 21 972 b 94 917 61 971 94 963 l 94 56 b 21 0 94 10 61 1 z m 179 1211 l 365 1061 l 263 1226 z m 253 971 b 258 971 254 971 257 971 z m 388 1061 l 572 1211 l 490 1226 z "},"Ḓ":{"ha":753,"x_min":0,"x_max":0,"o":"m 343 972 b 258 971 303 972 301 972 b 607 464 492 976 613 800 b 261 1 601 119 510 -3 b 392 0 310 -1 350 -1 b 718 461 590 7 718 188 b 343 972 718 769 569 972 z m 21 0 l 206 0 l 206 972 l 21 972 b 94 917 61 971 94 963 l 94 56 b 21 0 94 10 61 1 z m 181 -239 l 263 -254 l 365 -89 z m 253 971 b 258 971 254 971 257 971 z m 388 -89 l 490 -254 l 574 -239 z "},"Đ":{"ha":753,"x_min":0,"x_max":0,"o":"m 343 972 b 258 971 303 972 301 972 b 607 464 492 976 613 800 b 261 1 601 119 510 -3 b 392 0 310 -1 350 -1 b 718 461 590 7 718 188 b 343 972 718 769 569 972 z m 21 0 l 206 0 l 206 417 l 340 417 l 340 426 l 206 426 l 206 972 l 21 972 b 94 917 61 971 94 963 l 94 426 l 33 426 l 33 417 l 94 417 l 94 56 b 21 0 94 10 61 1 z m 253 971 b 258 971 254 971 257 971 z "},"Ḍ":{"ha":753,"x_min":0,"x_max":0,"o":"m 343 972 b 258 971 303 972 301 972 b 607 464 492 976 613 800 b 261 1 601 119 510 -3 b 392 0 310 -1 350 -1 b 718 461 590 7 718 188 b 343 972 718 769 569 972 z m 21 0 l 206 0 l 206 972 l 21 972 b 94 917 61 971 94 963 l 94 56 b 21 0 94 10 61 1 z m 253 971 b 258 971 254 971 257 971 z m 325 -187 b 378 -239 325 -218 346 -239 b 429 -187 408 -239 429 -218 b 378 -135 429 -156 408 -135 b 325 -187 346 -135 325 -156 z "},"Ḏ":{"ha":753,"x_min":0,"x_max":0,"o":"m 343 972 b 258 971 303 972 301 972 b 607 464 492 976 613 800 b 261 1 601 119 510 -3 b 392 0 310 -1 350 -1 b 718 461 590 7 718 188 b 343 972 718 769 569 972 z m 21 0 l 206 0 l 206 972 l 21 972 b 94 917 61 971 94 963 l 94 56 b 21 0 94 10 61 1 z m 181 -176 l 574 -176 l 574 -167 l 181 -167 z m 253 971 b 258 971 254 971 257 971 z "},"Ɖ":{"ha":753,"x_min":0,"x_max":0,"o":"m 343 972 b 258 971 303 972 301 972 b 607 464 492 976 613 800 b 261 1 601 119 510 -3 b 392 0 310 -1 350 -1 b 718 461 590 7 718 188 b 343 972 718 769 569 972 z m 21 0 l 206 0 l 206 417 l 340 417 l 340 426 l 206 426 l 206 972 l 21 972 b 94 917 61 971 94 963 l 94 426 l 33 426 l 33 417 l 94 417 l 94 56 b 21 0 94 10 61 1 z m 253 971 b 258 971 254 971 257 971 z "},"E":{"ha":664,"x_min":0,"x_max":0,"o":"m 94 917 l 94 56 b 21 0 94 10 61 1 l 206 0 l 206 972 l 21 972 b 94 917 61 971 94 963 z m 247 0 l 615 0 l 615 171 b 247 0 615 92 492 0 z m 253 496 b 488 346 406 496 488 419 l 488 646 b 253 496 488 572 406 496 z m 253 972 b 579 803 458 972 579 876 l 579 972 z "},"É":{"ha":664,"x_min":0,"x_max":0,"o":"m 94 917 l 94 56 b 21 0 94 10 61 1 l 206 0 l 206 972 l 21 972 b 94 917 61 971 94 963 z m 240 1090 l 424 1247 l 308 1278 z m 247 0 l 615 0 l 615 171 b 247 0 615 92 492 0 z m 253 496 b 488 346 406 496 488 419 l 488 646 b 253 496 488 572 406 496 z m 253 972 b 579 803 458 972 579 876 l 579 972 z "},"Ě":{"ha":664,"x_min":0,"x_max":0,"o":"m 94 917 l 94 56 b 21 0 94 10 61 1 l 206 0 l 206 972 l 21 972 b 94 917 61 971 94 963 z m 135 1211 l 321 1061 l 218 1226 z m 247 0 l 615 0 l 615 171 b 247 0 615 92 492 0 z m 253 496 b 488 346 406 496 488 419 l 488 646 b 253 496 488 572 406 496 z m 253 972 b 579 803 458 972 579 876 l 579 972 z m 343 1061 l 528 1211 l 446 1226 z "},"Ȩ":{"ha":664,"x_min":0,"x_max":0,"o":"m 94 917 l 94 56 b 21 0 94 10 61 1 l 206 0 l 206 972 l 21 972 b 94 917 61 971 94 963 z m 247 0 l 615 0 l 615 171 b 247 0 615 92 492 0 z m 253 496 b 488 346 406 496 488 419 l 488 646 b 253 496 488 572 406 496 z m 253 972 b 579 803 458 972 579 876 l 579 972 z m 260 -228 b 403 -171 354 -228 403 -208 b 310 -117 403 -137 365 -117 b 350 -171 335 -117 350 -135 b 260 -228 350 -211 326 -226 z m 285 -117 l 294 -117 l 294 -49 l 285 -49 z "},"Ê":{"ha":664,"x_min":0,"x_max":0,"o":"m 94 917 l 94 56 b 21 0 94 10 61 1 l 206 0 l 206 972 l 21 972 b 94 917 61 971 94 963 z m 135 1132 l 218 1117 l 321 1282 z m 247 0 l 615 0 l 615 171 b 247 0 615 92 492 0 z m 253 496 b 488 346 406 496 488 419 l 488 646 b 253 496 488 572 406 496 z m 253 972 b 579 803 458 972 579 876 l 579 972 z m 343 1282 l 446 1117 l 528 1132 z "},"Ế":{"ha":664,"x_min":0,"x_max":0,"o":"m 94 917 l 94 56 b 21 0 94 10 61 1 l 206 0 l 206 972 l 21 972 b 94 917 61 971 94 963 z m 135 1132 l 218 1117 l 321 1282 z m 240 1400 l 424 1557 l 308 1588 z m 247 0 l 615 0 l 615 171 b 247 0 615 92 492 0 z m 253 496 b 488 346 406 496 488 419 l 488 646 b 253 496 488 572 406 496 z m 253 972 b 579 803 458 972 579 876 l 579 972 z m 343 1282 l 446 1117 l 528 1132 z "},"Ệ":{"ha":664,"x_min":0,"x_max":0,"o":"m 94 917 l 94 56 b 21 0 94 10 61 1 l 206 0 l 206 972 l 21 972 b 94 917 61 971 94 963 z m 135 1132 l 218 1117 l 321 1282 z m 247 0 l 615 0 l 615 171 b 247 0 615 92 492 0 z m 253 496 b 488 346 406 496 488 419 l 488 646 b 253 496 488 572 406 496 z m 253 972 b 579 803 458 972 579 876 l 579 972 z m 281 -187 b 333 -239 281 -218 301 -239 b 385 -187 364 -239 385 -218 b 333 -135 385 -156 364 -135 b 281 -187 301 -135 281 -156 z m 343 1282 l 446 1117 l 528 1132 z "},"Ề":{"ha":664,"x_min":0,"x_max":0,"o":"m 94 917 l 94 56 b 21 0 94 10 61 1 l 206 0 l 206 972 l 21 972 b 94 917 61 971 94 963 z m 135 1132 l 218 1117 l 321 1282 z m 240 1557 l 424 1400 l 356 1588 z m 247 0 l 615 0 l 615 171 b 247 0 615 92 492 0 z m 253 496 b 488 346 406 496 488 419 l 488 646 b 253 496 488 572 406 496 z m 253 972 b 579 803 458 972 579 876 l 579 972 z m 343 1282 l 446 1117 l 528 1132 z "},"Ể":{"ha":664,"x_min":0,"x_max":0,"o":"m 94 917 l 94 56 b 21 0 94 10 61 1 l 206 0 l 206 972 l 21 972 b 94 917 61 971 94 963 z m 135 1132 l 218 1117 l 321 1282 z m 247 0 l 615 0 l 615 171 b 247 0 615 92 492 0 z m 253 496 b 488 346 406 496 488 419 l 488 646 b 253 496 488 572 406 496 z m 253 972 b 579 803 458 972 579 876 l 579 972 z m 264 1392 b 399 1517 340 1429 396 1464 b 346 1572 399 1550 381 1572 b 294 1521 315 1572 294 1551 b 318 1475 294 1500 303 1483 b 264 1392 340 1461 304 1413 z m 343 1282 l 446 1117 l 528 1132 z "},"Ễ":{"ha":664,"x_min":0,"x_max":0,"o":"m 94 917 l 94 56 b 21 0 94 10 61 1 l 206 0 l 206 972 l 21 972 b 94 917 61 971 94 963 z m 135 1132 l 218 1117 l 321 1282 z m 182 1368 b 268 1449 188 1435 201 1449 l 363 1449 b 481 1563 422 1449 481 1457 b 346 1503 481 1488 389 1503 l 289 1503 b 182 1368 219 1503 182 1457 z m 247 0 l 615 0 l 615 171 b 247 0 615 92 492 0 z m 253 496 b 488 346 406 496 488 419 l 488 646 b 253 496 488 572 406 496 z m 253 972 b 579 803 458 972 579 876 l 579 972 z m 343 1282 l 446 1117 l 528 1132 z "},"Ë":{"ha":664,"x_min":0,"x_max":0,"o":"m 94 917 l 94 56 b 21 0 94 10 61 1 l 206 0 l 206 972 l 21 972 b 94 917 61 971 94 963 z m 185 1161 b 236 1108 185 1129 206 1108 b 289 1161 268 1108 289 1129 b 236 1213 289 1192 268 1213 b 185 1161 206 1213 185 1192 z m 247 0 l 615 0 l 615 171 b 247 0 615 92 492 0 z m 253 496 b 488 346 406 496 488 419 l 488 646 b 253 496 488 572 406 496 z m 253 972 b 579 803 458 972 579 876 l 579 972 z m 375 1161 b 426 1108 375 1129 396 1108 b 479 1161 458 1108 479 1129 b 426 1213 479 1192 458 1213 b 375 1161 396 1213 375 1192 z "},"Ė":{"ha":664,"x_min":0,"x_max":0,"o":"m 94 917 l 94 56 b 21 0 94 10 61 1 l 206 0 l 206 972 l 21 972 b 94 917 61 971 94 963 z m 247 0 l 615 0 l 615 171 b 247 0 615 92 492 0 z m 253 496 b 488 346 406 496 488 419 l 488 646 b 253 496 488 572 406 496 z m 253 972 b 579 803 458 972 579 876 l 579 972 z m 279 1160 b 331 1107 279 1128 300 1107 b 383 1160 363 1107 383 1128 b 331 1211 383 1190 363 1211 b 279 1160 300 1211 279 1190 z "},"Ẹ":{"ha":664,"x_min":0,"x_max":0,"o":"m 94 917 l 94 56 b 21 0 94 10 61 1 l 206 0 l 206 972 l 21 972 b 94 917 61 971 94 963 z m 247 0 l 615 0 l 615 171 b 247 0 615 92 492 0 z m 253 496 b 488 346 406 496 488 419 l 488 646 b 253 496 488 572 406 496 z m 253 972 b 579 803 458 972 579 876 l 579 972 z m 281 -187 b 333 -239 281 -218 301 -239 b 385 -187 364 -239 385 -218 b 333 -135 385 -156 364 -135 b 281 -187 301 -135 281 -156 z "},"È":{"ha":664,"x_min":0,"x_max":0,"o":"m 94 917 l 94 56 b 21 0 94 10 61 1 l 206 0 l 206 972 l 21 972 b 94 917 61 971 94 963 z m 240 1247 l 424 1090 l 356 1278 z m 247 0 l 615 0 l 615 171 b 247 0 615 92 492 0 z m 253 496 b 488 346 406 496 488 419 l 488 646 b 253 496 488 572 406 496 z m 253 972 b 579 803 458 972 579 876 l 579 972 z "},"Ẻ":{"ha":664,"x_min":0,"x_max":0,"o":"m 94 917 l 94 56 b 21 0 94 10 61 1 l 206 0 l 206 972 l 21 972 b 94 917 61 971 94 963 z m 247 0 l 615 0 l 615 171 b 247 0 615 92 492 0 z m 253 496 b 488 346 406 496 488 419 l 488 646 b 253 496 488 572 406 496 z m 253 972 b 579 803 458 972 579 876 l 579 972 z m 264 1082 b 399 1207 340 1119 396 1154 b 346 1263 399 1240 381 1263 b 294 1211 315 1263 294 1242 b 318 1165 294 1190 303 1174 b 264 1082 340 1151 304 1103 z "},"Ē":{"ha":664,"x_min":0,"x_max":0,"o":"m 94 917 l 94 56 b 21 0 94 10 61 1 l 206 0 l 206 972 l 21 972 b 94 917 61 971 94 963 z m 135 1139 l 528 1139 l 528 1149 l 135 1149 z m 247 0 l 615 0 l 615 171 b 247 0 615 92 492 0 z m 253 496 b 488 346 406 496 488 419 l 488 646 b 253 496 488 572 406 496 z m 253 972 b 579 803 458 972 579 876 l 579 972 z "},"Ę":{"ha":664,"x_min":0,"x_max":0,"o":"m 94 917 l 94 56 b 21 0 94 10 61 1 l 206 0 l 206 972 l 21 972 b 94 917 61 971 94 963 z m 247 0 l 488 0 b 454 -62 467 -12 454 -33 b 597 -164 454 -121 503 -164 b 507 -61 531 -162 507 -124 b 521 0 507 -32 511 -12 l 615 0 l 615 171 b 247 0 615 92 492 0 z m 253 496 b 488 346 406 496 488 419 l 488 646 b 253 496 488 572 406 496 z m 253 972 b 579 803 458 972 579 876 l 579 972 z "},"Ɛ":{"ha":632,"x_min":0,"x_max":0,"o":"m 346 -10 b 153 224 250 6 153 49 b 482 531 153 411 278 531 l 519 531 l 488 532 b 171 808 244 543 171 668 b 289 982 171 913 211 969 b 60 765 151 967 60 878 b 415 532 60 629 193 546 b 42 240 199 518 42 401 b 346 -10 42 79 196 7 z m 349 982 b 590 614 460 982 590 856 l 590 921 b 349 982 522 951 422 982 z m 406 -10 b 585 51 506 -10 585 51 l 585 358 b 406 -10 585 117 492 -10 z "},"Ǝ":{"ha":664,"x_min":0,"x_max":0,"o":"m 569 56 l 569 917 b 643 972 569 963 603 971 l 458 972 l 458 0 l 643 0 b 569 56 603 1 569 10 z m 49 0 l 417 0 b 49 171 172 0 49 92 z m 85 803 b 411 972 85 876 206 972 l 85 972 z m 176 346 b 411 496 176 419 258 496 b 176 646 258 496 176 572 z "},"Ʃ":{"ha":632,"x_min":0,"x_max":0,"o":"m 346 -10 b 153 224 250 6 153 49 b 482 531 153 411 278 531 l 519 531 l 488 532 b 171 808 244 543 171 668 b 289 982 171 913 211 969 b 60 765 151 967 60 878 b 415 532 60 629 193 546 b 42 240 199 518 42 401 b 346 -10 42 79 196 7 z m 349 982 b 590 614 460 982 590 856 l 590 921 b 349 982 522 951 422 982 z m 406 -10 b 585 51 506 -10 585 51 l 585 358 b 406 -10 585 117 492 -10 z "},"Ẽ":{"ha":664,"x_min":0,"x_max":0,"o":"m 94 917 l 94 56 b 21 0 94 10 61 1 l 206 0 l 206 972 l 21 972 b 94 917 61 971 94 963 z m 182 1058 b 268 1139 188 1125 201 1139 l 363 1139 b 481 1253 422 1139 481 1147 b 346 1193 481 1178 389 1193 l 289 1193 b 182 1058 219 1193 182 1147 z m 247 0 l 615 0 l 615 171 b 247 0 615 92 492 0 z m 253 496 b 488 346 406 496 488 419 l 488 646 b 253 496 488 572 406 496 z m 253 972 b 579 803 458 972 579 876 l 579 972 z "},"Ə":{"ha":799,"x_min":0,"x_max":0,"o":"m 415 -12 b 764 483 690 -12 764 243 b 425 985 764 813 633 985 b 653 494 569 978 651 811 b 404 -6 654 321 643 11 b 235 49 354 -8 278 0 b 415 -12 271 6 342 -12 z m 90 -25 b 201 89 90 18 100 89 l 201 408 b 239 458 201 449 217 458 b 275 454 250 458 263 457 l 90 504 z m 108 663 b 361 985 108 771 283 985 b 156 936 310 985 214 936 b 108 983 128 936 108 949 z "},"Ʒ":{"ha":632,"x_min":0,"x_max":0,"o":"m 286 -10 b 590 240 436 7 590 79 b 217 532 590 401 433 518 b 572 765 439 546 572 629 b 343 982 572 878 481 967 b 461 808 421 969 461 913 b 144 532 461 668 388 543 l 113 531 l 150 531 b 479 224 354 531 479 411 b 286 -10 479 49 382 6 z m 42 614 b 283 982 42 856 172 982 b 42 921 210 982 110 951 z m 47 51 b 226 -10 47 51 126 -10 b 47 358 140 -10 47 117 z "},"Ǯ":{"ha":632,"x_min":0,"x_max":0,"o":"m 286 -10 b 590 240 436 7 590 79 b 217 532 590 401 433 518 b 572 765 439 546 572 629 b 343 982 572 878 481 967 b 461 808 421 969 461 913 b 144 532 461 668 388 543 l 113 531 l 150 531 b 479 224 354 531 479 411 b 286 -10 479 49 382 6 z m 42 614 b 283 982 42 856 172 982 b 42 921 210 982 110 951 z m 47 51 b 226 -10 47 51 126 -10 b 47 358 140 -10 47 117 z m 119 1229 l 306 1079 l 203 1244 z m 328 1079 l 513 1229 l 431 1244 z "},"F":{"ha":621,"x_min":0,"x_max":0,"o":"m 94 917 l 94 56 b 21 0 94 10 61 1 l 279 0 b 206 56 239 1 206 10 l 206 972 l 21 972 b 94 917 61 971 94 963 z m 253 485 b 481 335 406 485 481 408 l 481 635 b 253 485 481 561 406 485 z m 253 972 b 572 803 436 972 572 876 l 572 972 z "},"G":{"ha":799,"x_min":0,"x_max":0,"o":"m 383 -12 b 564 49 457 -12 528 6 b 394 -6 521 0 444 -8 b 146 494 156 11 144 321 b 374 985 147 811 229 978 b 35 483 165 985 35 813 b 383 -12 35 243 108 -12 z m 438 985 b 690 663 515 985 690 771 l 690 983 b 643 936 690 949 671 936 b 438 985 585 936 489 985 z m 524 454 b 560 458 536 457 549 458 b 597 408 582 458 597 449 l 597 89 b 708 -25 699 89 708 18 l 708 504 z "},"Ğ":{"ha":799,"x_min":0,"x_max":0,"o":"m 383 -12 b 564 49 457 -12 528 6 b 394 -6 521 0 444 -8 b 146 494 156 11 144 321 b 374 985 147 811 229 978 b 35 483 165 985 35 813 b 383 -12 35 243 108 -12 z m 249 1307 b 396 1117 267 1218 303 1117 b 550 1300 489 1117 519 1211 b 400 1185 521 1238 474 1185 b 249 1307 324 1185 269 1244 z m 438 985 b 690 663 515 985 690 771 l 690 983 b 643 936 690 949 671 936 b 438 985 585 936 489 985 z m 524 454 b 560 458 536 457 549 458 b 597 408 582 458 597 449 l 597 89 b 708 -25 699 89 708 18 l 708 504 z "},"Ǧ":{"ha":799,"x_min":0,"x_max":0,"o":"m 383 -12 b 564 49 457 -12 528 6 b 394 -6 521 0 444 -8 b 146 494 156 11 144 321 b 374 985 147 811 229 978 b 35 483 165 985 35 813 b 383 -12 35 243 108 -12 z m 203 1211 l 389 1061 l 286 1226 z m 411 1061 l 596 1211 l 514 1226 z m 438 985 b 690 663 515 985 690 771 l 690 983 b 643 936 690 949 671 936 b 438 985 585 936 489 985 z m 524 454 b 560 458 536 457 549 458 b 597 408 582 458 597 449 l 597 89 b 708 -25 699 89 708 18 l 708 504 z "},"Ĝ":{"ha":799,"x_min":0,"x_max":0,"o":"m 383 -12 b 564 49 457 -12 528 6 b 394 -6 521 0 444 -8 b 146 494 156 11 144 321 b 374 985 147 811 229 978 b 35 483 165 985 35 813 b 383 -12 35 243 108 -12 z m 203 1132 l 286 1117 l 389 1282 z m 411 1282 l 514 1117 l 596 1132 z m 438 985 b 690 663 515 985 690 771 l 690 983 b 643 936 690 949 671 936 b 438 985 585 936 489 985 z m 524 454 b 560 458 536 457 549 458 b 597 408 582 458 597 449 l 597 89 b 708 -25 699 89 708 18 l 708 504 z "},"Ģ":{"ha":799,"x_min":0,"x_max":0,"o":"m 383 -12 b 564 49 457 -12 528 6 b 394 -6 521 0 444 -8 b 146 494 156 11 144 321 b 374 985 147 811 229 978 b 35 483 165 985 35 813 b 383 -12 35 243 108 -12 z m 340 -94 l 396 -279 l 404 -279 l 460 -94 z m 438 985 b 690 663 515 985 690 771 l 690 983 b 643 936 690 949 671 936 b 438 985 585 936 489 985 z m 524 454 b 560 458 536 457 549 458 b 597 408 582 458 597 449 l 597 89 b 708 -25 699 89 708 18 l 708 504 z "},"Ġ":{"ha":799,"x_min":0,"x_max":0,"o":"m 383 -12 b 564 49 457 -12 528 6 b 394 -6 521 0 444 -8 b 146 494 156 11 144 321 b 374 985 147 811 229 978 b 35 483 165 985 35 813 b 383 -12 35 243 108 -12 z m 347 1160 b 399 1107 347 1128 368 1107 b 451 1160 431 1107 451 1128 b 399 1211 451 1190 431 1211 b 347 1160 368 1211 347 1190 z m 438 985 b 690 663 515 985 690 771 l 690 983 b 643 936 690 949 671 936 b 438 985 585 936 489 985 z m 524 454 b 560 458 536 457 549 458 b 597 408 582 458 597 449 l 597 89 b 708 -25 699 89 708 18 l 708 504 z "},"Ḡ":{"ha":799,"x_min":0,"x_max":0,"o":"m 383 -12 b 564 49 457 -12 528 6 b 394 -6 521 0 444 -8 b 146 494 156 11 144 321 b 374 985 147 811 229 978 b 35 483 165 985 35 813 b 383 -12 35 243 108 -12 z m 203 1139 l 596 1139 l 596 1149 l 203 1149 z m 438 985 b 690 663 515 985 690 771 l 690 983 b 643 936 690 949 671 936 b 438 985 585 936 489 985 z m 524 454 b 560 458 536 457 549 458 b 597 408 582 458 597 449 l 597 89 b 708 -25 699 89 708 18 l 708 504 z "},"Ǥ":{"ha":799,"x_min":0,"x_max":0,"o":"m 383 -12 b 564 49 457 -12 528 6 b 394 -6 521 0 444 -8 b 146 494 156 11 144 321 b 374 985 147 811 229 978 b 35 483 165 985 35 813 b 383 -12 35 243 108 -12 z m 408 283 l 597 283 l 597 89 b 708 -25 699 89 708 18 l 708 283 l 801 283 l 801 293 l 708 293 l 708 504 l 524 454 b 560 458 536 457 549 458 b 597 408 582 458 597 449 l 597 293 l 408 293 z m 438 985 b 690 663 515 985 690 771 l 690 983 b 643 936 690 949 671 936 b 438 985 585 936 489 985 z "},"H":{"ha":811,"x_min":0,"x_max":0,"o":"m 94 917 l 94 56 b 21 0 94 10 61 1 l 279 0 b 206 56 239 1 206 10 l 206 917 b 279 972 206 963 239 971 l 21 972 b 94 917 61 971 94 963 z m 257 451 b 607 447 443 449 568 447 l 606 56 b 532 0 606 10 572 1 l 790 0 b 717 56 750 1 717 10 l 717 917 b 790 972 717 963 750 971 l 532 972 b 606 917 572 971 606 963 l 606 457 b 257 451 599 457 465 456 z "},"Ħ":{"ha":811,"x_min":0,"x_max":0,"o":"m 94 917 l 94 56 b 21 0 94 10 61 1 l 279 0 b 206 56 239 1 206 10 l 206 917 b 279 972 206 963 239 971 l 21 972 b 94 917 61 971 94 963 z m 208 481 l 601 481 l 601 490 l 208 490 z m 257 451 b 607 447 443 449 568 447 l 606 56 b 532 0 606 10 572 1 l 790 0 b 717 56 750 1 717 10 l 717 917 b 790 972 717 963 750 971 l 532 972 b 606 917 572 971 606 963 l 606 457 b 257 451 599 457 465 456 z "},"Ḫ":{"ha":811,"x_min":0,"x_max":0,"o":"m 94 917 l 94 56 b 21 0 94 10 61 1 l 279 0 b 206 56 239 1 206 10 l 206 917 b 279 972 206 963 239 971 l 21 972 b 94 917 61 971 94 963 z m 254 -182 b 401 -372 272 -271 308 -372 b 556 -189 494 -372 525 -278 b 406 -304 526 -251 479 -304 b 254 -182 329 -304 275 -244 z m 257 451 b 607 447 443 449 568 447 l 606 56 b 532 0 606 10 572 1 l 790 0 b 717 56 750 1 717 10 l 717 917 b 790 972 717 963 750 971 l 532 972 b 606 917 572 971 606 963 l 606 457 b 257 451 599 457 465 456 z "},"Ĥ":{"ha":811,"x_min":0,"x_max":0,"o":"m 94 917 l 94 56 b 21 0 94 10 61 1 l 279 0 b 206 56 239 1 206 10 l 206 917 b 279 972 206 963 239 971 l 21 972 b 94 917 61 971 94 963 z m 208 1132 l 292 1117 l 394 1282 z m 257 451 b 607 447 443 449 568 447 l 606 56 b 532 0 606 10 572 1 l 790 0 b 717 56 750 1 717 10 l 717 917 b 790 972 717 963 750 971 l 532 972 b 606 917 572 971 606 963 l 606 457 b 257 451 599 457 465 456 z m 417 1282 l 519 1117 l 601 1132 z "},"Ḥ":{"ha":811,"x_min":0,"x_max":0,"o":"m 94 917 l 94 56 b 21 0 94 10 61 1 l 279 0 b 206 56 239 1 206 10 l 206 917 b 279 972 206 963 239 971 l 21 972 b 94 917 61 971 94 963 z m 257 451 b 607 447 443 449 568 447 l 606 56 b 532 0 606 10 572 1 l 790 0 b 717 56 750 1 717 10 l 717 917 b 790 972 717 963 750 971 l 532 972 b 606 917 572 971 606 963 l 606 457 b 257 451 599 457 465 456 z m 354 -187 b 407 -239 354 -218 375 -239 b 458 -187 438 -239 458 -218 b 407 -135 458 -156 438 -135 b 354 -187 375 -135 354 -156 z "},"I":{"ha":300,"x_min":0,"x_max":0,"o":"m 94 917 l 94 56 b 21 0 94 10 61 1 l 279 0 b 206 56 239 1 206 10 l 206 917 b 279 972 206 963 239 971 l 21 972 b 94 917 61 971 94 963 z "},"Ĳ":{"ha":958,"x_min":0,"x_max":0,"o":"m 94 917 l 94 56 b 21 0 94 10 61 1 l 279 0 b 206 56 239 1 206 10 l 206 917 b 279 972 206 963 239 971 l 21 972 b 94 917 61 971 94 963 z m 356 -7 b 393 39 356 26 369 39 b 606 -12 442 39 529 -12 b 356 357 493 -12 356 250 z m 626 -12 b 871 233 801 -12 869 96 l 871 917 b 944 972 871 963 904 971 l 686 972 b 760 917 726 971 760 963 l 760 283 b 626 -12 758 164 776 -12 z "},"Í":{"ha":300,"x_min":0,"x_max":0,"o":"m 94 917 l 94 56 b 21 0 94 10 61 1 l 279 0 b 206 56 239 1 206 10 l 206 917 b 279 972 206 963 239 971 l 21 972 b 94 917 61 971 94 963 z m 58 1090 l 242 1247 l 126 1278 z "},"Ǐ":{"ha":300,"x_min":0,"x_max":0,"o":"m 94 917 l 94 56 b 21 0 94 10 61 1 l 279 0 b 206 56 239 1 206 10 l 206 917 b 279 972 206 963 239 971 l 21 972 b 94 917 61 971 94 963 z m -47 1211 l 139 1061 l 36 1226 z m 161 1061 l 346 1211 l 264 1226 z "},"Î":{"ha":300,"x_min":0,"x_max":0,"o":"m 94 917 l 94 56 b 21 0 94 10 61 1 l 279 0 b 206 56 239 1 206 10 l 206 917 b 279 972 206 963 239 971 l 21 972 b 94 917 61 971 94 963 z m -47 1132 l 36 1117 l 139 1282 z m 161 1282 l 264 1117 l 346 1132 z "},"Ï":{"ha":300,"x_min":0,"x_max":0,"o":"m 94 917 l 94 56 b 21 0 94 10 61 1 l 279 0 b 206 56 239 1 206 10 l 206 917 b 279 972 206 963 239 971 l 21 972 b 94 917 61 971 94 963 z m 3 1161 b 54 1108 3 1129 24 1108 b 107 1161 86 1108 107 1129 b 54 1213 107 1192 86 1213 b 3 1161 24 1213 3 1192 z m 193 1161 b 244 1108 193 1129 214 1108 b 297 1161 276 1108 297 1129 b 244 1213 297 1192 276 1213 b 193 1161 214 1213 193 1192 z "},"Ḯ":{"ha":300,"x_min":0,"x_max":0,"o":"m 94 917 l 94 56 b 21 0 94 10 61 1 l 279 0 b 206 56 239 1 206 10 l 206 917 b 279 972 206 963 239 971 l 21 972 b 94 917 61 971 94 963 z m 3 1161 b 54 1108 3 1129 24 1108 b 107 1161 86 1108 107 1129 b 54 1213 107 1192 86 1213 b 3 1161 24 1213 3 1192 z m 58 1331 l 242 1488 l 126 1518 z m 193 1161 b 244 1108 193 1129 214 1108 b 297 1161 276 1108 297 1129 b 244 1213 297 1192 276 1213 b 193 1161 214 1213 193 1192 z "},"İ":{"ha":300,"x_min":0,"x_max":0,"o":"m 94 917 l 94 56 b 21 0 94 10 61 1 l 279 0 b 206 56 239 1 206 10 l 206 917 b 279 972 206 963 239 971 l 21 972 b 94 917 61 971 94 963 z m 97 1160 b 149 1107 97 1128 118 1107 b 201 1160 181 1107 201 1128 b 149 1211 201 1190 181 1211 b 97 1160 118 1211 97 1190 z "},"Ị":{"ha":300,"x_min":0,"x_max":0,"o":"m 94 917 l 94 56 b 21 0 94 10 61 1 l 279 0 b 206 56 239 1 206 10 l 206 917 b 279 972 206 963 239 971 l 21 972 b 94 917 61 971 94 963 z m 99 -187 b 151 -239 99 -218 119 -239 b 203 -187 182 -239 203 -218 b 151 -135 203 -156 182 -135 b 99 -187 119 -135 99 -156 z "},"Ì":{"ha":300,"x_min":0,"x_max":0,"o":"m 94 917 l 94 56 b 21 0 94 10 61 1 l 279 0 b 206 56 239 1 206 10 l 206 917 b 279 972 206 963 239 971 l 21 972 b 94 917 61 971 94 963 z m 58 1247 l 242 1090 l 174 1278 z "},"Ỉ":{"ha":300,"x_min":0,"x_max":0,"o":"m 94 917 l 94 56 b 21 0 94 10 61 1 l 279 0 b 206 56 239 1 206 10 l 206 917 b 279 972 206 963 239 971 l 21 972 b 94 917 61 971 94 963 z m 82 1082 b 217 1207 158 1119 214 1154 b 164 1263 217 1240 199 1263 b 113 1211 133 1263 113 1242 b 136 1165 113 1190 121 1174 b 82 1082 158 1151 122 1103 z "},"Ī":{"ha":300,"x_min":0,"x_max":0,"o":"m 94 917 l 94 56 b 21 0 94 10 61 1 l 279 0 b 206 56 239 1 206 10 l 206 917 b 279 972 206 963 239 971 l 21 972 b 94 917 61 971 94 963 z m -47 1139 l 346 1139 l 346 1149 l -47 1149 z "},"Į":{"ha":300,"x_min":0,"x_max":0,"o":"m 94 917 l 94 56 b 21 0 94 10 61 1 l 160 0 b 126 -62 139 -12 126 -33 b 269 -164 126 -121 175 -164 b 179 -61 203 -162 179 -124 b 193 0 179 -32 183 -12 l 279 0 b 206 56 239 1 206 10 l 206 917 b 279 972 206 963 239 971 l 21 972 b 94 917 61 971 94 963 z "},"Ɩ":{"ha":658,"x_min":0,"x_max":0,"o":"m 199 283 l 199 917 b 272 972 199 963 232 971 l 14 972 b 88 917 54 971 88 963 l 88 233 b 332 -12 89 96 157 -12 b 199 283 182 -12 200 164 z m 353 -12 b 565 39 429 -12 517 39 b 603 -7 589 39 603 26 l 603 357 b 353 -12 603 250 465 -12 z "},"Ĩ":{"ha":300,"x_min":0,"x_max":0,"o":"m 94 917 l 94 56 b 21 0 94 10 61 1 l 279 0 b 206 56 239 1 206 10 l 206 917 b 279 972 206 963 239 971 l 21 972 b 94 917 61 971 94 963 z m 0 1058 b 86 1139 6 1125 19 1139 l 181 1139 b 299 1253 240 1139 299 1147 b 164 1193 299 1178 207 1193 l 107 1193 b 0 1058 38 1193 0 1147 z "},"J":{"ha":658,"x_min":0,"x_max":0,"o":"m 460 917 l 460 283 b 326 -12 458 164 476 -12 b 571 233 501 -12 569 96 l 571 917 b 644 972 571 963 604 971 l 386 972 b 460 917 426 971 460 963 z m 56 -7 b 93 39 56 26 69 39 b 306 -12 142 39 229 -12 b 56 357 193 -12 56 250 z "},"Ĵ":{"ha":658,"x_min":0,"x_max":0,"o":"m 460 917 l 460 283 b 326 -12 458 164 476 -12 b 571 233 501 -12 569 96 l 571 917 b 644 972 571 963 604 971 l 386 972 b 460 917 426 971 460 963 z m 56 -7 b 93 39 56 26 69 39 b 306 -12 142 39 229 -12 b 56 357 193 -12 56 250 z m 132 1132 l 215 1117 l 318 1282 z m 340 1282 l 443 1117 l 525 1132 z "},"K":{"ha":761,"x_min":0,"x_max":0,"o":"m 94 917 l 94 56 b 21 0 94 10 61 1 l 279 0 b 206 56 239 1 206 10 l 206 917 b 279 972 206 963 239 971 l 21 972 b 94 917 61 971 94 963 z m 281 510 l 547 0 l 754 0 b 625 93 685 0 660 28 l 346 625 z m 346 625 b 725 972 454 810 590 972 l 446 972 b 346 625 557 972 424 761 z "},"Ǩ":{"ha":761,"x_min":0,"x_max":0,"o":"m 94 917 l 94 56 b 21 0 94 10 61 1 l 279 0 b 206 56 239 1 206 10 l 206 917 b 279 972 206 963 239 971 l 21 972 b 94 917 61 971 94 963 z m 183 1211 l 369 1061 l 267 1226 z m 281 510 l 547 0 l 754 0 b 625 93 685 0 660 28 l 346 625 z m 346 625 b 725 972 454 810 590 972 l 446 972 b 346 625 557 972 424 761 z m 392 1061 l 576 1211 l 494 1226 z "},"Ķ":{"ha":761,"x_min":0,"x_max":0,"o":"m 94 917 l 94 56 b 21 0 94 10 61 1 l 279 0 b 206 56 239 1 206 10 l 206 917 b 279 972 206 963 239 971 l 21 972 b 94 917 61 971 94 963 z m 281 510 l 547 0 l 754 0 b 625 93 685 0 660 28 l 346 625 z m 321 -94 l 376 -279 l 385 -279 l 440 -94 z m 346 625 b 725 972 454 810 590 972 l 446 972 b 346 625 557 972 424 761 z "},"Ḵ":{"ha":761,"x_min":0,"x_max":0,"o":"m 94 917 l 94 56 b 21 0 94 10 61 1 l 279 0 b 206 56 239 1 206 10 l 206 917 b 279 972 206 963 239 971 l 21 972 b 94 917 61 971 94 963 z m 185 -176 l 578 -176 l 578 -167 l 185 -167 z m 281 510 l 547 0 l 754 0 b 625 93 685 0 660 28 l 346 625 z m 346 625 b 725 972 454 810 590 972 l 446 972 b 346 625 557 972 424 761 z "},"L":{"ha":656,"x_min":0,"x_max":0,"o":"m 94 917 l 94 56 b 21 0 94 10 61 1 l 206 0 l 206 917 b 279 972 206 963 239 971 l 21 972 b 94 917 61 971 94 963 z m 247 0 l 607 0 l 607 171 b 247 0 607 92 492 0 z "},"Ĺ":{"ha":656,"x_min":0,"x_max":0,"o":"m 94 917 l 94 56 b 21 0 94 10 61 1 l 206 0 l 206 917 b 279 972 206 963 239 971 l 21 972 b 94 917 61 971 94 963 z m 236 1090 l 419 1247 l 304 1278 z m 247 0 l 607 0 l 607 171 b 247 0 607 92 492 0 z "},"Ľ":{"ha":656,"x_min":0,"x_max":0,"o":"m 94 917 l 94 56 b 21 0 94 10 61 1 l 206 0 l 206 917 b 279 972 206 963 239 971 l 21 972 b 94 917 61 971 94 963 z m 247 0 l 607 0 l 607 171 b 247 0 607 92 492 0 z m 442 735 b 576 860 518 772 574 807 b 524 915 576 893 558 915 b 472 864 493 915 472 894 b 496 818 472 843 481 826 b 442 735 518 804 482 756 z "},"Ḽ":{"ha":656,"x_min":0,"x_max":0,"o":"m 94 917 l 94 56 b 21 0 94 10 61 1 l 206 0 l 206 917 b 279 972 206 963 239 971 l 21 972 b 94 917 61 971 94 963 z m 132 -239 l 214 -254 l 317 -89 z m 247 0 l 607 0 l 607 171 b 247 0 607 92 492 0 z m 339 -89 l 442 -254 l 525 -239 z "},"Ļ":{"ha":656,"x_min":0,"x_max":0,"o":"m 94 917 l 94 56 b 21 0 94 10 61 1 l 206 0 l 206 917 b 279 972 206 963 239 971 l 21 972 b 94 917 61 971 94 963 z m 247 0 l 607 0 l 607 171 b 247 0 607 92 492 0 z m 268 -94 l 324 -279 l 332 -279 l 388 -94 z "},"Ḷ":{"ha":656,"x_min":0,"x_max":0,"o":"m 94 917 l 94 56 b 21 0 94 10 61 1 l 206 0 l 206 917 b 279 972 206 963 239 971 l 21 972 b 94 917 61 971 94 963 z m 247 0 l 607 0 l 607 171 b 247 0 607 92 492 0 z m 276 -187 b 329 -239 276 -218 297 -239 b 381 -187 360 -239 381 -218 b 329 -135 381 -156 360 -135 b 276 -187 297 -135 276 -156 z "},"Ḹ":{"ha":656,"x_min":0,"x_max":0,"o":"m 94 917 l 94 56 b 21 0 94 10 61 1 l 206 0 l 206 917 b 279 972 206 963 239 971 l 21 972 b 94 917 61 971 94 963 z m 131 1139 l 524 1139 l 524 1149 l 131 1149 z m 247 0 l 607 0 l 607 171 b 247 0 607 92 492 0 z m 276 -187 b 329 -239 276 -218 297 -239 b 381 -187 360 -239 381 -218 b 329 -135 381 -156 360 -135 b 276 -187 297 -135 276 -156 z "},"Ḻ":{"ha":656,"x_min":0,"x_max":0,"o":"m 94 917 l 94 56 b 21 0 94 10 61 1 l 206 0 l 206 917 b 279 972 206 963 239 971 l 21 972 b 94 917 61 971 94 963 z m 132 -176 l 525 -176 l 525 -167 l 132 -167 z m 247 0 l 607 0 l 607 171 b 247 0 607 92 492 0 z "},"Ł":{"ha":656,"x_min":0,"x_max":0,"o":"m 94 389 l 94 56 b 21 0 94 10 61 1 l 206 0 l 206 432 l 371 496 l 371 506 l 206 442 l 206 917 b 279 972 206 963 239 971 l 21 972 b 94 917 61 971 94 963 l 94 399 l -22 353 l -22 343 z m 247 0 l 607 0 l 607 171 b 247 0 607 92 492 0 z "},"M":{"ha":969,"x_min":0,"x_max":0,"o":"m 111 894 l 496 -10 l 496 275 l 233 894 b 204 972 210 951 204 972 l 21 972 b 111 894 68 971 88 949 z m 21 0 l 251 0 b 135 385 179 0 146 97 b 21 0 132 97 103 0 z m 690 0 l 949 0 b 875 56 908 1 875 10 l 875 917 b 949 972 875 963 908 971 l 764 972 l 764 56 b 690 0 764 10 731 1 z "},"Ḿ":{"ha":969,"x_min":0,"x_max":0,"o":"m 111 894 l 496 -10 l 496 275 l 233 894 b 204 972 210 951 204 972 l 21 972 b 111 894 68 971 88 949 z m 21 0 l 251 0 b 135 385 179 0 146 97 b 21 0 132 97 103 0 z m 393 1090 l 576 1247 l 461 1278 z m 690 0 l 949 0 b 875 56 908 1 875 10 l 875 917 b 949 972 875 963 908 971 l 764 972 l 764 56 b 690 0 764 10 731 1 z "},"Ṁ":{"ha":969,"x_min":0,"x_max":0,"o":"m 111 894 l 496 -10 l 496 275 l 233 894 b 204 972 210 951 204 972 l 21 972 b 111 894 68 971 88 949 z m 21 0 l 251 0 b 135 385 179 0 146 97 b 21 0 132 97 103 0 z m 432 1160 b 483 1107 432 1128 453 1107 b 536 1160 515 1107 536 1128 b 483 1211 536 1190 515 1211 b 432 1160 453 1211 432 1190 z m 690 0 l 949 0 b 875 56 908 1 875 10 l 875 917 b 949 972 875 963 908 971 l 764 972 l 764 56 b 690 0 764 10 731 1 z "},"Ṃ":{"ha":969,"x_min":0,"x_max":0,"o":"m 111 894 l 496 -10 l 496 275 l 233 894 b 204 972 210 951 204 972 l 21 972 b 111 894 68 971 88 949 z m 21 0 l 251 0 b 135 385 179 0 146 97 b 21 0 132 97 103 0 z m 433 -187 b 486 -239 433 -218 454 -239 b 538 -187 517 -239 538 -218 b 486 -135 538 -156 517 -135 b 433 -187 454 -135 433 -156 z m 690 0 l 949 0 b 875 56 908 1 875 10 l 875 917 b 949 972 875 963 908 971 l 764 972 l 764 56 b 690 0 764 10 731 1 z "},"N":{"ha":794,"x_min":0,"x_max":0,"o":"m 111 894 l 651 -10 l 651 208 l 242 894 b 201 972 210 947 201 972 l 21 972 b 111 894 68 971 82 943 z m 21 0 l 251 0 b 135 385 179 0 146 97 b 21 0 132 97 103 0 z m 543 972 b 657 588 625 972 654 875 b 774 972 668 875 701 972 z "},"Ń":{"ha":794,"x_min":0,"x_max":0,"o":"m 111 894 l 651 -10 l 651 208 l 242 894 b 201 972 210 947 201 972 l 21 972 b 111 894 68 971 82 943 z m 21 0 l 251 0 b 135 385 179 0 146 97 b 21 0 132 97 103 0 z m 306 1090 l 489 1247 l 374 1278 z m 543 972 b 657 588 625 972 654 875 b 774 972 668 875 701 972 z "},"Ň":{"ha":794,"x_min":0,"x_max":0,"o":"m 111 894 l 651 -10 l 651 208 l 242 894 b 201 972 210 947 201 972 l 21 972 b 111 894 68 971 82 943 z m 21 0 l 251 0 b 135 385 179 0 146 97 b 21 0 132 97 103 0 z m 200 1211 l 386 1061 l 283 1226 z m 408 1061 l 593 1211 l 511 1226 z m 543 972 b 657 588 625 972 654 875 b 774 972 668 875 701 972 z "},"Ṋ":{"ha":794,"x_min":0,"x_max":0,"o":"m 111 894 l 651 -10 l 651 208 l 242 894 b 201 972 210 947 201 972 l 21 972 b 111 894 68 971 82 943 z m 21 0 l 251 0 b 135 385 179 0 146 97 b 21 0 132 97 103 0 z m 201 -239 l 283 -254 l 386 -89 z m 408 -89 l 511 -254 l 594 -239 z m 543 972 b 657 588 625 972 654 875 b 774 972 668 875 701 972 z "},"Ņ":{"ha":794,"x_min":0,"x_max":0,"o":"m 111 894 l 651 -10 l 651 208 l 242 894 b 201 972 210 947 201 972 l 21 972 b 111 894 68 971 82 943 z m 21 0 l 251 0 b 135 385 179 0 146 97 b 21 0 132 97 103 0 z m 338 -94 l 393 -279 l 401 -279 l 457 -94 z m 543 972 b 657 588 625 972 654 875 b 774 972 668 875 701 972 z "},"Ṅ":{"ha":794,"x_min":0,"x_max":0,"o":"m 111 894 l 651 -10 l 651 208 l 242 894 b 201 972 210 947 201 972 l 21 972 b 111 894 68 971 82 943 z m 21 0 l 251 0 b 135 385 179 0 146 97 b 21 0 132 97 103 0 z m 344 1160 b 396 1107 344 1128 365 1107 b 449 1160 428 1107 449 1128 b 396 1211 449 1190 428 1211 b 344 1160 365 1211 344 1190 z m 543 972 b 657 588 625 972 654 875 b 774 972 668 875 701 972 z "},"Ṇ":{"ha":794,"x_min":0,"x_max":0,"o":"m 111 894 l 651 -10 l 651 208 l 242 894 b 201 972 210 947 201 972 l 21 972 b 111 894 68 971 82 943 z m 21 0 l 251 0 b 135 385 179 0 146 97 b 21 0 132 97 103 0 z m 346 -187 b 399 -239 346 -218 367 -239 b 450 -187 429 -239 450 -218 b 399 -135 450 -156 429 -135 b 346 -187 367 -135 346 -156 z m 543 972 b 657 588 625 972 654 875 b 774 972 668 875 701 972 z "},"Ṉ":{"ha":794,"x_min":0,"x_max":0,"o":"m 111 894 l 651 -10 l 651 208 l 242 894 b 201 972 210 947 201 972 l 21 972 b 111 894 68 971 82 943 z m 21 0 l 251 0 b 135 385 179 0 146 97 b 21 0 132 97 103 0 z m 201 -176 l 594 -176 l 594 -167 l 201 -167 z m 543 972 b 657 588 625 972 654 875 b 774 972 668 875 701 972 z "},"Ñ":{"ha":794,"x_min":0,"x_max":0,"o":"m 111 894 l 651 -10 l 651 208 l 242 894 b 201 972 210 947 201 972 l 21 972 b 111 894 68 971 82 943 z m 21 0 l 251 0 b 135 385 179 0 146 97 b 21 0 132 97 103 0 z m 247 1058 b 333 1139 253 1125 267 1139 l 428 1139 b 546 1253 488 1139 546 1147 b 411 1193 546 1178 454 1193 l 354 1193 b 247 1058 285 1193 247 1147 z m 543 972 b 657 588 625 972 654 875 b 774 972 668 875 701 972 z "},"Ŋ":{"ha":794,"x_min":0,"x_max":0,"o":"m 111 894 l 526 200 b 428 -253 621 -1 549 -229 b 651 -10 603 -253 651 -147 l 651 208 l 242 894 b 201 972 210 947 201 972 l 21 972 b 111 894 68 971 82 943 z m 21 0 l 251 0 b 135 385 179 0 146 97 b 21 0 132 97 103 0 z m 543 972 b 657 588 625 972 654 875 b 774 972 668 875 701 972 z "},"O":{"ha":804,"x_min":0,"x_max":0,"o":"m 374 -12 b 146 494 228 -6 144 172 b 374 985 147 811 229 978 b 35 483 165 985 35 813 b 374 -12 35 156 164 -12 z m 429 985 b 658 490 574 978 657 807 b 431 -12 660 171 576 -6 b 769 482 639 -12 769 156 b 429 985 769 811 638 985 z "},"Ó":{"ha":804,"x_min":0,"x_max":0,"o":"m 374 -12 b 146 494 228 -6 144 172 b 374 985 147 811 229 978 b 35 483 165 985 35 813 b 374 -12 35 156 164 -12 z m 311 1090 l 494 1247 l 379 1278 z m 429 985 b 658 490 574 978 657 807 b 431 -12 660 171 576 -6 b 769 482 639 -12 769 156 b 429 985 769 811 638 985 z "},"Ǒ":{"ha":804,"x_min":0,"x_max":0,"o":"m 374 -12 b 146 494 228 -6 144 172 b 374 985 147 811 229 978 b 35 483 165 985 35 813 b 374 -12 35 156 164 -12 z m 206 1211 l 392 1061 l 289 1226 z m 414 1061 l 599 1211 l 517 1226 z m 429 985 b 658 490 574 978 657 807 b 431 -12 660 171 576 -6 b 769 482 639 -12 769 156 b 429 985 769 811 638 985 z "},"Ô":{"ha":804,"x_min":0,"x_max":0,"o":"m 374 -12 b 146 494 228 -6 144 172 b 374 985 147 811 229 978 b 35 483 165 985 35 813 b 374 -12 35 156 164 -12 z m 206 1132 l 289 1117 l 392 1282 z m 414 1282 l 517 1117 l 599 1132 z m 429 985 b 658 490 574 978 657 807 b 431 -12 660 171 576 -6 b 769 482 639 -12 769 156 b 429 985 769 811 638 985 z "},"Ố":{"ha":804,"x_min":0,"x_max":0,"o":"m 374 -12 b 146 494 228 -6 144 172 b 374 985 147 811 229 978 b 35 483 165 985 35 813 b 374 -12 35 156 164 -12 z m 206 1132 l 289 1117 l 392 1282 z m 311 1400 l 494 1557 l 379 1588 z m 414 1282 l 517 1117 l 599 1132 z m 429 985 b 658 490 574 978 657 807 b 431 -12 660 171 576 -6 b 769 482 639 -12 769 156 b 429 985 769 811 638 985 z "},"Ộ":{"ha":804,"x_min":0,"x_max":0,"o":"m 374 -12 b 146 494 228 -6 144 172 b 374 985 147 811 229 978 b 35 483 165 985 35 813 b 374 -12 35 156 164 -12 z m 206 1132 l 289 1117 l 392 1282 z m 351 -187 b 404 -239 351 -218 372 -239 b 456 -187 435 -239 456 -218 b 404 -135 456 -156 435 -135 b 351 -187 372 -135 351 -156 z m 414 1282 l 517 1117 l 599 1132 z m 429 985 b 658 490 574 978 657 807 b 431 -12 660 171 576 -6 b 769 482 639 -12 769 156 b 429 985 769 811 638 985 z "},"Ồ":{"ha":804,"x_min":0,"x_max":0,"o":"m 374 -12 b 146 494 228 -6 144 172 b 374 985 147 811 229 978 b 35 483 165 985 35 813 b 374 -12 35 156 164 -12 z m 206 1132 l 289 1117 l 392 1282 z m 311 1557 l 494 1400 l 426 1588 z m 414 1282 l 517 1117 l 599 1132 z m 429 985 b 658 490 574 978 657 807 b 431 -12 660 171 576 -6 b 769 482 639 -12 769 156 b 429 985 769 811 638 985 z "},"Ổ":{"ha":804,"x_min":0,"x_max":0,"o":"m 374 -12 b 146 494 228 -6 144 172 b 374 985 147 811 229 978 b 35 483 165 985 35 813 b 374 -12 35 156 164 -12 z m 206 1132 l 289 1117 l 392 1282 z m 335 1392 b 469 1517 411 1429 467 1464 b 417 1572 469 1550 451 1572 b 365 1521 386 1572 365 1551 b 389 1475 365 1500 374 1483 b 335 1392 411 1461 375 1413 z m 414 1282 l 517 1117 l 599 1132 z m 429 985 b 658 490 574 978 657 807 b 431 -12 660 171 576 -6 b 769 482 639 -12 769 156 b 429 985 769 811 638 985 z "},"Ỗ":{"ha":804,"x_min":0,"x_max":0,"o":"m 374 -12 b 146 494 228 -6 144 172 b 374 985 147 811 229 978 b 35 483 165 985 35 813 b 374 -12 35 156 164 -12 z m 206 1132 l 289 1117 l 392 1282 z m 253 1368 b 339 1449 258 1435 272 1449 l 433 1449 b 551 1563 493 1449 551 1457 b 417 1503 551 1488 460 1503 l 360 1503 b 253 1368 290 1503 253 1457 z m 414 1282 l 517 1117 l 599 1132 z m 429 985 b 658 490 574 978 657 807 b 431 -12 660 171 576 -6 b 769 482 639 -12 769 156 b 429 985 769 811 638 985 z "},"Ö":{"ha":804,"x_min":0,"x_max":0,"o":"m 374 -12 b 146 494 228 -6 144 172 b 374 985 147 811 229 978 b 35 483 165 985 35 813 b 374 -12 35 156 164 -12 z m 256 1161 b 307 1108 256 1129 276 1108 b 360 1161 339 1108 360 1129 b 307 1213 360 1192 339 1213 b 256 1161 276 1213 256 1192 z m 429 985 b 658 490 574 978 657 807 b 431 -12 660 171 576 -6 b 769 482 639 -12 769 156 b 429 985 769 811 638 985 z m 446 1161 b 497 1108 446 1129 467 1108 b 550 1161 529 1108 550 1129 b 497 1213 550 1192 529 1213 b 446 1161 467 1213 446 1192 z "},"Ȫ":{"ha":804,"x_min":0,"x_max":0,"o":"m 374 -12 b 146 494 228 -6 144 172 b 374 985 147 811 229 978 b 35 483 165 985 35 813 b 374 -12 35 156 164 -12 z m 206 1379 l 599 1379 l 599 1389 l 206 1389 z m 256 1161 b 307 1108 256 1129 276 1108 b 360 1161 339 1108 360 1129 b 307 1213 360 1192 339 1213 b 256 1161 276 1213 256 1192 z m 429 985 b 658 490 574 978 657 807 b 431 -12 660 171 576 -6 b 769 482 639 -12 769 156 b 429 985 769 811 638 985 z m 446 1161 b 497 1108 446 1129 467 1108 b 550 1161 529 1108 550 1129 b 497 1213 550 1192 529 1213 b 446 1161 467 1213 446 1192 z "},"Ọ":{"ha":804,"x_min":0,"x_max":0,"o":"m 374 -12 b 146 494 228 -6 144 172 b 374 985 147 811 229 978 b 35 483 165 985 35 813 b 374 -12 35 156 164 -12 z m 351 -187 b 404 -239 351 -218 372 -239 b 456 -187 435 -239 456 -218 b 404 -135 456 -156 435 -135 b 351 -187 372 -135 351 -156 z m 429 985 b 658 490 574 978 657 807 b 431 -12 660 171 576 -6 b 769 482 639 -12 769 156 b 429 985 769 811 638 985 z "},"Ò":{"ha":804,"x_min":0,"x_max":0,"o":"m 374 -12 b 146 494 228 -6 144 172 b 374 985 147 811 229 978 b 35 483 165 985 35 813 b 374 -12 35 156 164 -12 z m 311 1247 l 494 1090 l 426 1278 z m 429 985 b 658 490 574 978 657 807 b 431 -12 660 171 576 -6 b 769 482 639 -12 769 156 b 429 985 769 811 638 985 z "},"Ỏ":{"ha":804,"x_min":0,"x_max":0,"o":"m 374 -12 b 146 494 228 -6 144 172 b 374 985 147 811 229 978 b 35 483 165 985 35 813 b 374 -12 35 156 164 -12 z m 335 1082 b 469 1207 411 1119 467 1154 b 417 1263 469 1240 451 1263 b 365 1211 386 1263 365 1242 b 389 1165 365 1190 374 1174 b 335 1082 411 1151 375 1103 z m 429 985 b 658 490 574 978 657 807 b 431 -12 660 171 576 -6 b 769 482 639 -12 769 156 b 429 985 769 811 638 985 z "},"Ơ":{"ha":804,"x_min":0,"x_max":0,"o":"m 374 -12 b 146 494 228 -6 144 172 b 374 985 147 811 229 978 b 35 483 165 985 35 813 b 374 -12 35 156 164 -12 z m 429 985 b 658 490 574 978 657 807 b 431 -12 660 171 576 -6 b 769 482 639 -12 769 156 b 429 985 769 811 638 985 z m 657 885 b 839 1193 821 956 885 1054 l 747 1168 b 657 885 783 1035 769 960 z "},"Ớ":{"ha":804,"x_min":0,"x_max":0,"o":"m 374 -12 b 146 494 228 -6 144 172 b 374 985 147 811 229 978 b 35 483 165 985 35 813 b 374 -12 35 156 164 -12 z m 311 1090 l 494 1247 l 379 1278 z m 429 985 b 658 490 574 978 657 807 b 431 -12 660 171 576 -6 b 769 482 639 -12 769 156 b 429 985 769 811 638 985 z m 657 885 b 839 1193 821 956 885 1054 l 747 1168 b 657 885 783 1035 769 960 z "},"Ợ":{"ha":804,"x_min":0,"x_max":0,"o":"m 374 -12 b 146 494 228 -6 144 172 b 374 985 147 811 229 978 b 35 483 165 985 35 813 b 374 -12 35 156 164 -12 z m 351 -187 b 404 -239 351 -218 372 -239 b 456 -187 435 -239 456 -218 b 404 -135 456 -156 435 -135 b 351 -187 372 -135 351 -156 z m 429 985 b 658 490 574 978 657 807 b 431 -12 660 171 576 -6 b 769 482 639 -12 769 156 b 429 985 769 811 638 985 z m 657 885 b 839 1193 821 956 885 1054 l 747 1168 b 657 885 783 1035 769 960 z "},"Ờ":{"ha":804,"x_min":0,"x_max":0,"o":"m 374 -12 b 146 494 228 -6 144 172 b 374 985 147 811 229 978 b 35 483 165 985 35 813 b 374 -12 35 156 164 -12 z m 311 1247 l 494 1090 l 426 1278 z m 429 985 b 658 490 574 978 657 807 b 431 -12 660 171 576 -6 b 769 482 639 -12 769 156 b 429 985 769 811 638 985 z m 657 885 b 839 1193 821 956 885 1054 l 747 1168 b 657 885 783 1035 769 960 z "},"Ở":{"ha":804,"x_min":0,"x_max":0,"o":"m 374 -12 b 146 494 228 -6 144 172 b 374 985 147 811 229 978 b 35 483 165 985 35 813 b 374 -12 35 156 164 -12 z m 335 1082 b 469 1207 411 1119 467 1154 b 417 1263 469 1240 451 1263 b 365 1211 386 1263 365 1242 b 389 1165 365 1190 374 1174 b 335 1082 411 1151 375 1103 z m 429 985 b 658 490 574 978 657 807 b 431 -12 660 171 576 -6 b 769 482 639 -12 769 156 b 429 985 769 811 638 985 z m 657 885 b 839 1193 821 956 885 1054 l 747 1168 b 657 885 783 1035 769 960 z "},"Ỡ":{"ha":804,"x_min":0,"x_max":0,"o":"m 374 -12 b 146 494 228 -6 144 172 b 374 985 147 811 229 978 b 35 483 165 985 35 813 b 374 -12 35 156 164 -12 z m 253 1058 b 339 1139 258 1125 272 1139 l 433 1139 b 551 1253 493 1139 551 1147 b 417 1193 551 1178 460 1193 l 360 1193 b 253 1058 290 1193 253 1147 z m 429 985 b 658 490 574 978 657 807 b 431 -12 660 171 576 -6 b 769 482 639 -12 769 156 b 429 985 769 811 638 985 z m 657 885 b 839 1193 821 956 885 1054 l 747 1168 b 657 885 783 1035 769 960 z "},"Ő":{"ha":804,"x_min":0,"x_max":0,"o":"m 374 -12 b 146 494 228 -6 144 172 b 374 985 147 811 229 978 b 35 483 165 985 35 813 b 374 -12 35 156 164 -12 z m 178 1090 l 361 1247 l 246 1278 z m 429 985 b 658 490 574 978 657 807 b 431 -12 660 171 576 -6 b 769 482 639 -12 769 156 b 429 985 769 811 638 985 z m 444 1090 l 628 1247 l 513 1278 z "},"Ō":{"ha":804,"x_min":0,"x_max":0,"o":"m 374 -12 b 146 494 228 -6 144 172 b 374 985 147 811 229 978 b 35 483 165 985 35 813 b 374 -12 35 156 164 -12 z m 206 1139 l 599 1139 l 599 1149 l 206 1149 z m 429 985 b 658 490 574 978 657 807 b 431 -12 660 171 576 -6 b 769 482 639 -12 769 156 b 429 985 769 811 638 985 z "},"Ṓ":{"ha":804,"x_min":0,"x_max":0,"o":"m 374 -12 b 146 494 228 -6 144 172 b 374 985 147 811 229 978 b 35 483 165 985 35 813 b 374 -12 35 156 164 -12 z m 206 1139 l 599 1139 l 599 1149 l 206 1149 z m 311 1267 l 494 1424 l 379 1454 z m 429 985 b 658 490 574 978 657 807 b 431 -12 660 171 576 -6 b 769 482 639 -12 769 156 b 429 985 769 811 638 985 z "},"Ṑ":{"ha":804,"x_min":0,"x_max":0,"o":"m 374 -12 b 146 494 228 -6 144 172 b 374 985 147 811 229 978 b 35 483 165 985 35 813 b 374 -12 35 156 164 -12 z m 206 1139 l 599 1139 l 599 1149 l 206 1149 z m 311 1424 l 494 1267 l 426 1454 z m 429 985 b 658 490 574 978 657 807 b 431 -12 660 171 576 -6 b 769 482 639 -12 769 156 b 429 985 769 811 638 985 z "},"Ɔ":{"ha":742,"x_min":0,"x_max":0,"o":"m 76 990 l 76 663 b 297 985 93 765 219 985 b 118 931 246 985 167 931 b 76 990 93 931 76 946 z m 64 0 b 103 56 64 42 79 56 b 297 -12 154 56 244 -12 b 64 336 219 -12 64 229 z m 368 -12 b 707 483 578 -12 707 156 b 368 985 707 813 576 985 b 596 494 513 978 594 811 b 368 -12 597 172 514 -6 z "},"Ø":{"ha":804,"x_min":0,"x_max":0,"o":"m 374 -12 b 233 72 317 -10 269 19 l 579 889 b 658 490 631 807 657 672 b 431 -12 660 171 576 -6 b 769 482 639 -12 769 156 b 599 936 769 710 707 864 l 614 972 l 604 972 l 590 940 b 429 985 544 969 490 985 b 572 897 488 982 535 951 l 226 82 b 146 494 174 167 144 306 b 374 985 147 811 229 978 b 35 483 165 985 35 813 b 206 33 35 256 97 104 l 192 0 l 203 0 l 215 28 b 374 -12 261 0 314 -12 z "},"Ǿ":{"ha":804,"x_min":0,"x_max":0,"o":"m 374 -12 b 233 72 317 -10 269 19 l 579 889 b 658 490 631 807 657 672 b 431 -12 660 171 576 -6 b 769 482 639 -12 769 156 b 599 936 769 710 707 864 l 614 972 l 604 972 l 590 940 b 429 985 544 969 490 985 b 572 897 488 982 535 951 l 226 82 b 146 494 174 167 144 306 b 374 985 147 811 229 978 b 35 483 165 985 35 813 b 206 33 35 256 97 104 l 192 0 l 203 0 l 215 28 b 374 -12 261 0 314 -12 z m 311 1090 l 494 1247 l 379 1278 z "},"Õ":{"ha":804,"x_min":0,"x_max":0,"o":"m 374 -12 b 146 494 228 -6 144 172 b 374 985 147 811 229 978 b 35 483 165 985 35 813 b 374 -12 35 156 164 -12 z m 253 1058 b 339 1139 258 1125 272 1139 l 433 1139 b 551 1253 493 1139 551 1147 b 417 1193 551 1178 460 1193 l 360 1193 b 253 1058 290 1193 253 1147 z m 429 985 b 658 490 574 978 657 807 b 431 -12 660 171 576 -6 b 769 482 639 -12 769 156 b 429 985 769 811 638 985 z "},"Ṍ":{"ha":804,"x_min":0,"x_max":0,"o":"m 374 -12 b 146 494 228 -6 144 172 b 374 985 147 811 229 978 b 35 483 165 985 35 813 b 374 -12 35 156 164 -12 z m 253 1058 b 339 1139 258 1125 272 1139 l 433 1139 b 551 1253 493 1139 551 1147 b 417 1193 551 1178 460 1193 l 360 1193 b 253 1058 290 1193 253 1147 z m 311 1339 l 494 1496 l 379 1526 z m 429 985 b 658 490 574 978 657 807 b 431 -12 660 171 576 -6 b 769 482 639 -12 769 156 b 429 985 769 811 638 985 z "},"Œ":{"ha":1096,"x_min":0,"x_max":0,"o":"m 374 0 b 146 494 228 7 144 172 b 374 972 147 811 229 965 b 35 483 165 972 35 813 b 374 0 35 156 164 0 z m 453 0 l 638 0 l 638 972 l 453 972 b 526 917 493 971 526 963 l 526 56 b 453 0 526 10 493 1 z m 679 0 l 1047 0 l 1047 171 b 679 0 1047 92 924 0 z m 685 496 b 919 346 838 496 919 419 l 919 646 b 685 496 919 572 838 496 z m 685 972 b 1011 803 890 972 1011 876 l 1011 972 z "},"P":{"ha":710,"x_min":0,"x_max":0,"o":"m 261 411 b 675 718 501 411 675 540 b 392 974 675 864 560 968 b 261 972 350 975 310 975 b 564 713 469 976 564 896 b 261 411 564 518 457 413 z m 21 0 l 279 0 b 206 56 239 1 206 10 l 206 972 l 21 972 b 94 917 61 971 94 963 l 94 56 b 21 0 94 10 61 1 z "},"Þ":{"ha":678,"x_min":0,"x_max":0,"o":"m 226 56 l 226 871 b 300 926 226 917 260 925 l 42 926 b 115 871 82 925 115 917 l 115 56 b 42 0 115 10 82 1 l 300 0 b 226 56 260 1 226 10 z m 272 157 b 401 111 329 122 364 111 b 636 467 539 111 636 258 b 401 829 636 676 538 829 b 272 783 360 829 322 817 b 379 821 311 808 347 821 b 526 485 463 821 526 676 b 372 125 526 290 460 129 b 272 157 344 124 311 133 z "},"Q":{"ha":804,"x_min":0,"x_max":0,"o":"m 374 -12 b 146 494 228 -6 144 172 b 374 985 147 811 229 978 b 35 483 165 985 35 813 b 374 -12 35 156 164 -12 z m 388 -31 b 389 -42 388 -35 388 -37 b 606 -346 408 -132 593 -335 b 610 -61 625 -297 624 -125 b 540 -158 610 -132 578 -158 b 389 -42 479 -158 401 -94 b 388 -31 388 -39 388 -35 z m 429 985 b 658 490 574 978 657 807 b 431 -12 660 171 576 -6 b 769 482 639 -12 769 156 b 429 985 769 811 638 985 z "},"R":{"ha":746,"x_min":0,"x_max":0,"o":"m 449 464 l 343 426 l 536 0 l 746 0 b 617 93 676 0 649 24 z m 21 0 l 279 0 b 206 56 239 1 206 10 l 206 972 l 21 972 b 94 917 61 971 94 963 l 94 56 b 21 0 94 10 61 1 z m 261 972 b 564 694 474 976 564 899 b 449 464 564 569 531 488 b 675 721 593 499 675 597 b 392 974 675 865 565 968 b 261 972 350 975 310 975 z "},"Ŕ":{"ha":746,"x_min":0,"x_max":0,"o":"m 449 464 l 343 426 l 536 0 l 746 0 b 617 93 676 0 649 24 z m 21 0 l 279 0 b 206 56 239 1 206 10 l 206 972 l 21 972 b 94 917 61 971 94 963 l 94 56 b 21 0 94 10 61 1 z m 261 972 b 564 694 474 976 564 899 b 449 464 564 569 531 488 b 675 721 593 499 675 597 b 392 974 675 865 565 968 b 261 972 350 975 310 975 z m 282 1090 l 465 1247 l 350 1278 z "},"Ř":{"ha":746,"x_min":0,"x_max":0,"o":"m 449 464 l 343 426 l 536 0 l 746 0 b 617 93 676 0 649 24 z m 21 0 l 279 0 b 206 56 239 1 206 10 l 206 972 l 21 972 b 94 917 61 971 94 963 l 94 56 b 21 0 94 10 61 1 z m 176 1211 l 363 1061 l 260 1226 z m 261 972 b 564 694 474 976 564 899 b 449 464 564 569 531 488 b 675 721 593 499 675 597 b 392 974 675 865 565 968 b 261 972 350 975 310 975 z m 385 1061 l 569 1211 l 488 1226 z "},"Ŗ":{"ha":746,"x_min":0,"x_max":0,"o":"m 449 464 l 343 426 l 536 0 l 746 0 b 617 93 676 0 649 24 z m 21 0 l 279 0 b 206 56 239 1 206 10 l 206 972 l 21 972 b 94 917 61 971 94 963 l 94 56 b 21 0 94 10 61 1 z m 261 972 b 564 694 474 976 564 899 b 449 464 564 569 531 488 b 675 721 593 499 675 597 b 392 974 675 865 565 968 b 261 972 350 975 310 975 z m 314 -94 l 369 -279 l 378 -279 l 433 -94 z "},"Ṝ":{"ha":746,"x_min":0,"x_max":0,"o":"m 449 464 l 343 426 l 536 0 l 746 0 b 617 93 676 0 649 24 z m 21 0 l 279 0 b 206 56 239 1 206 10 l 206 972 l 21 972 b 94 917 61 971 94 963 l 94 56 b 21 0 94 10 61 1 z m 176 1139 l 569 1139 l 569 1149 l 176 1149 z m 261 972 b 564 694 474 976 564 899 b 449 464 564 569 531 488 b 675 721 593 499 675 597 b 392 974 675 865 565 968 b 261 972 350 975 310 975 z m 322 -187 b 375 -239 322 -218 343 -239 b 426 -187 406 -239 426 -218 b 375 -135 426 -156 406 -135 b 322 -187 343 -135 322 -156 z "},"Ṟ":{"ha":746,"x_min":0,"x_max":0,"o":"m 449 464 l 343 426 l 536 0 l 746 0 b 617 93 676 0 649 24 z m 21 0 l 279 0 b 206 56 239 1 206 10 l 206 972 l 21 972 b 94 917 61 971 94 963 l 94 56 b 21 0 94 10 61 1 z m 178 -176 l 571 -176 l 571 -167 l 178 -167 z m 261 972 b 564 694 474 976 564 899 b 449 464 564 569 531 488 b 675 721 593 499 675 597 b 392 974 675 865 565 968 b 261 972 350 975 310 975 z "},"S":{"ha":699,"x_min":0,"x_max":0,"o":"m 276 982 b 57 758 138 967 57 888 b 569 154 57 433 569 436 b 376 -7 569 51 501 0 b 650 213 556 0 650 76 b 138 825 650 528 138 517 b 276 982 138 919 186 968 z m 49 -15 b 82 61 49 42 60 61 b 332 -7 125 61 207 -7 b 49 396 186 -4 49 164 z m 340 982 l 350 981 l 354 981 b 374 975 361 979 367 978 b 621 614 478 942 597 774 l 621 979 b 571 906 621 925 601 906 b 374 975 519 906 438 957 b 351 981 367 978 358 979 b 340 982 347 981 343 982 z "},"Ś":{"ha":699,"x_min":0,"x_max":0,"o":"m 276 982 b 57 758 138 967 57 888 b 569 154 57 433 569 436 b 376 -7 569 51 501 0 b 650 213 556 0 650 76 b 138 825 650 528 138 517 b 276 982 138 919 186 968 z m 49 -15 b 82 61 49 42 60 61 b 332 -7 125 61 207 -7 b 49 396 186 -4 49 164 z m 258 1090 l 442 1247 l 326 1278 z m 340 982 l 350 981 l 354 981 b 374 975 361 979 367 978 b 621 614 478 942 597 774 l 621 979 b 571 906 621 925 601 906 b 374 975 519 906 438 957 b 351 981 367 978 358 979 b 340 982 347 981 343 982 z "},"Ꞌ":{"ha":300,"x_min":0,"x_max":0,"o":"m 94 917 l 94 56 b 21 0 94 10 61 1 l 279 0 b 206 56 239 1 206 10 l 206 917 b 279 972 206 963 239 971 l 21 972 b 94 917 61 971 94 963 z "},"Š":{"ha":699,"x_min":0,"x_max":0,"o":"m 276 982 b 57 758 138 967 57 888 b 569 154 57 433 569 436 b 376 -7 569 51 501 0 b 650 213 556 0 650 76 b 138 825 650 528 138 517 b 276 982 138 919 186 968 z m 49 -15 b 82 61 49 42 60 61 b 332 -7 125 61 207 -7 b 49 396 186 -4 49 164 z m 153 1211 l 339 1061 l 236 1226 z m 340 982 l 350 981 l 354 981 b 374 975 361 979 367 978 b 621 614 478 942 597 774 l 621 979 b 571 906 621 925 601 906 b 374 975 519 906 438 957 b 351 981 367 978 358 979 b 340 982 347 981 343 982 z m 361 1061 l 546 1211 l 464 1226 z "},"Ş":{"ha":699,"x_min":0,"x_max":0,"o":"m 276 982 b 57 758 138 967 57 888 b 569 154 57 433 569 436 b 376 -7 569 51 501 0 b 650 213 556 0 650 76 b 138 825 650 528 138 517 b 276 982 138 919 186 968 z m 49 -15 b 82 61 49 42 60 61 b 332 -7 125 61 207 -7 b 49 396 186 -4 49 164 z m 278 -228 b 421 -171 372 -228 421 -208 b 328 -117 421 -137 383 -117 b 368 -171 353 -117 368 -135 b 278 -228 368 -211 344 -226 z m 303 -117 l 313 -117 l 313 -49 l 303 -49 z m 340 982 l 350 981 l 354 981 b 374 975 361 979 367 978 b 621 614 478 942 597 774 l 621 979 b 571 906 621 925 601 906 b 374 975 519 906 438 957 b 351 981 367 978 358 979 b 340 982 347 981 343 982 z "},"Ŝ":{"ha":699,"x_min":0,"x_max":0,"o":"m 276 982 b 57 758 138 967 57 888 b 569 154 57 433 569 436 b 376 -7 569 51 501 0 b 650 213 556 0 650 76 b 138 825 650 528 138 517 b 276 982 138 919 186 968 z m 49 -15 b 82 61 49 42 60 61 b 332 -7 125 61 207 -7 b 49 396 186 -4 49 164 z m 153 1132 l 236 1117 l 339 1282 z m 340 982 l 350 981 l 354 981 b 374 975 361 979 367 978 b 621 614 478 942 597 774 l 621 979 b 571 906 621 925 601 906 b 374 975 519 906 438 957 b 351 981 367 978 358 979 b 340 982 347 981 343 982 z m 361 1282 l 464 1117 l 546 1132 z "},"Ș":{"ha":699,"x_min":0,"x_max":0,"o":"m 276 982 b 57 758 138 967 57 888 b 569 154 57 433 569 436 b 376 -7 569 51 501 0 b 650 213 556 0 650 76 b 138 825 650 528 138 517 b 276 982 138 919 186 968 z m 49 -15 b 82 61 49 42 60 61 b 332 -7 125 61 207 -7 b 49 396 186 -4 49 164 z m 290 -94 l 346 -279 l 354 -279 l 410 -94 z m 340 982 l 350 981 l 354 981 b 374 975 361 979 367 978 b 621 614 478 942 597 774 l 621 979 b 571 906 621 925 601 906 b 374 975 519 906 438 957 b 351 981 367 978 358 979 b 340 982 347 981 343 982 z "},"Ṣ":{"ha":699,"x_min":0,"x_max":0,"o":"m 276 982 b 57 758 138 967 57 888 b 569 154 57 433 569 436 b 376 -7 569 51 501 0 b 650 213 556 0 650 76 b 138 825 650 528 138 517 b 276 982 138 919 186 968 z m 49 -15 b 82 61 49 42 60 61 b 332 -7 125 61 207 -7 b 49 396 186 -4 49 164 z m 299 -187 b 351 -239 299 -218 319 -239 b 403 -187 382 -239 403 -218 b 351 -135 403 -156 382 -135 b 299 -187 319 -135 299 -156 z m 340 982 l 350 981 l 354 981 b 374 975 361 979 367 978 b 621 614 478 942 597 774 l 621 979 b 571 906 621 925 601 906 b 374 975 519 906 438 957 b 351 981 367 978 358 979 b 340 982 347 981 343 982 z "},"ẞ":{"ha":717,"x_min":0,"x_max":0,"o":"m 343 972 b 324 971 304 972 353 972 b 483 756 428 972 483 907 b 354 536 483 607 429 542 l 264 529 l 364 529 b 564 275 492 529 564 433 b 389 7 564 108 483 7 b 299 72 344 7 301 32 b 417 -1 301 28 347 -1 b 675 257 514 -1 675 56 b 444 539 675 407 586 514 b 594 740 533 564 594 647 b 343 972 594 886 446 972 z m 21 0 l 206 0 l 206 783 b 271 972 206 925 228 969 l 267 972 b 94 740 197 964 94 903 l 94 56 b 21 0 94 10 61 1 z m 299 72 b 303 103 299 88 300 94 b 299 76 299 93 299 85 z m 314 971 b 324 971 317 971 321 971 z "},"T":{"ha":771,"x_min":0,"x_max":0,"o":"m 331 972 l 331 56 b 257 0 331 10 297 1 l 515 0 b 442 56 475 1 442 10 l 442 972 z m 49 751 b 288 972 49 825 107 972 l 49 972 z m 483 972 b 722 751 664 972 722 825 l 722 972 z "},"Ŧ":{"ha":771,"x_min":0,"x_max":0,"o":"m 331 972 l 331 490 l 189 490 l 189 481 l 331 481 l 331 56 b 257 0 331 10 297 1 l 515 0 b 442 56 475 1 442 10 l 442 481 l 582 481 l 582 490 l 442 490 l 442 972 z m 49 751 b 288 972 49 825 107 972 l 49 972 z m 483 972 b 722 751 664 972 722 825 l 722 972 z "},"Ť":{"ha":771,"x_min":0,"x_max":0,"o":"m 331 972 l 331 56 b 257 0 331 10 297 1 l 515 0 b 442 56 475 1 442 10 l 442 972 z m 49 751 b 288 972 49 825 107 972 l 49 972 z m 189 1211 l 375 1061 l 272 1226 z m 397 1061 l 582 1211 l 500 1226 z m 483 972 b 722 751 664 972 722 825 l 722 972 z "},"Ţ":{"ha":771,"x_min":0,"x_max":0,"o":"m 331 972 l 331 56 b 257 0 331 10 297 1 l 515 0 b 442 56 475 1 442 10 l 442 972 z m 49 751 b 288 972 49 825 107 972 l 49 972 z m 314 -228 b 457 -171 408 -228 457 -208 b 364 -117 457 -137 419 -117 b 404 -171 389 -117 404 -135 b 314 -228 404 -211 381 -226 z m 339 -117 l 349 -117 l 349 -49 l 339 -49 z m 483 972 b 722 751 664 972 722 825 l 722 972 z "},"Ṱ":{"ha":771,"x_min":0,"x_max":0,"o":"m 331 972 l 331 56 b 257 0 331 10 297 1 l 515 0 b 442 56 475 1 442 10 l 442 972 z m 49 751 b 288 972 49 825 107 972 l 49 972 z m 190 -239 l 272 -254 l 375 -89 z m 397 -89 l 500 -254 l 583 -239 z m 483 972 b 722 751 664 972 722 825 l 722 972 z "},"Ț":{"ha":771,"x_min":0,"x_max":0,"o":"m 331 972 l 331 56 b 257 0 331 10 297 1 l 515 0 b 442 56 475 1 442 10 l 442 972 z m 49 751 b 288 972 49 825 107 972 l 49 972 z m 326 -94 l 382 -279 l 390 -279 l 446 -94 z m 483 972 b 722 751 664 972 722 825 l 722 972 z "},"Ṭ":{"ha":771,"x_min":0,"x_max":0,"o":"m 331 972 l 331 56 b 257 0 331 10 297 1 l 515 0 b 442 56 475 1 442 10 l 442 972 z m 49 751 b 288 972 49 825 107 972 l 49 972 z m 335 -187 b 388 -239 335 -218 356 -239 b 439 -187 418 -239 439 -218 b 388 -135 439 -156 418 -135 b 335 -187 356 -135 335 -156 z m 483 972 b 722 751 664 972 722 825 l 722 972 z "},"Ṯ":{"ha":771,"x_min":0,"x_max":0,"o":"m 331 972 l 331 56 b 257 0 331 10 297 1 l 515 0 b 442 56 475 1 442 10 l 442 972 z m 49 751 b 288 972 49 825 107 972 l 49 972 z m 190 -176 l 583 -176 l 583 -167 l 190 -167 z m 483 972 b 722 751 664 972 722 825 l 722 972 z "},"U":{"ha":778,"x_min":0,"x_max":0,"o":"m 615 108 b 403 -3 574 29 486 -3 b 199 236 268 -3 199 81 l 199 917 b 272 972 199 963 232 971 l 14 972 b 88 917 54 971 88 963 l 88 256 b 385 -12 88 93 203 -12 b 615 108 494 -12 578 26 z m 542 972 b 651 597 624 972 649 885 b 764 972 663 885 692 972 z "},"Ú":{"ha":778,"x_min":0,"x_max":0,"o":"m 615 108 b 403 -3 574 29 486 -3 b 199 236 268 -3 199 81 l 199 917 b 272 972 199 963 232 971 l 14 972 b 88 917 54 971 88 963 l 88 256 b 385 -12 88 93 203 -12 b 615 108 494 -12 578 26 z m 297 1090 l 481 1247 l 365 1278 z m 542 972 b 651 597 624 972 649 885 b 764 972 663 885 692 972 z "},"Ŭ":{"ha":778,"x_min":0,"x_max":0,"o":"m 615 108 b 403 -3 574 29 486 -3 b 199 236 268 -3 199 81 l 199 917 b 272 972 199 963 232 971 l 14 972 b 88 917 54 971 88 963 l 88 256 b 385 -12 88 93 203 -12 b 615 108 494 -12 578 26 z m 238 1307 b 385 1117 256 1218 292 1117 b 539 1300 478 1117 508 1211 b 389 1185 510 1238 463 1185 b 238 1307 313 1185 258 1244 z m 542 972 b 651 597 624 972 649 885 b 764 972 663 885 692 972 z "},"Ǔ":{"ha":778,"x_min":0,"x_max":0,"o":"m 615 108 b 403 -3 574 29 486 -3 b 199 236 268 -3 199 81 l 199 917 b 272 972 199 963 232 971 l 14 972 b 88 917 54 971 88 963 l 88 256 b 385 -12 88 93 203 -12 b 615 108 494 -12 578 26 z m 192 1211 l 378 1061 l 275 1226 z m 400 1061 l 585 1211 l 503 1226 z m 542 972 b 651 597 624 972 649 885 b 764 972 663 885 692 972 z "},"Û":{"ha":778,"x_min":0,"x_max":0,"o":"m 615 108 b 403 -3 574 29 486 -3 b 199 236 268 -3 199 81 l 199 917 b 272 972 199 963 232 971 l 14 972 b 88 917 54 971 88 963 l 88 256 b 385 -12 88 93 203 -12 b 615 108 494 -12 578 26 z m 192 1132 l 275 1117 l 378 1282 z m 400 1282 l 503 1117 l 585 1132 z m 542 972 b 651 597 624 972 649 885 b 764 972 663 885 692 972 z "},"Ü":{"ha":778,"x_min":0,"x_max":0,"o":"m 615 108 b 403 -3 574 29 486 -3 b 199 236 268 -3 199 81 l 199 917 b 272 972 199 963 232 971 l 14 972 b 88 917 54 971 88 963 l 88 256 b 385 -12 88 93 203 -12 b 615 108 494 -12 578 26 z m 242 1161 b 293 1108 242 1129 263 1108 b 346 1161 325 1108 346 1129 b 293 1213 346 1192 325 1213 b 242 1161 263 1213 242 1192 z m 432 1161 b 483 1108 432 1129 453 1108 b 536 1161 515 1108 536 1129 b 483 1213 536 1192 515 1213 b 432 1161 453 1213 432 1192 z m 542 972 b 651 597 624 972 649 885 b 764 972 663 885 692 972 z "},"Ǘ":{"ha":778,"x_min":0,"x_max":0,"o":"m 615 108 b 403 -3 574 29 486 -3 b 199 236 268 -3 199 81 l 199 917 b 272 972 199 963 232 971 l 14 972 b 88 917 54 971 88 963 l 88 256 b 385 -12 88 93 203 -12 b 615 108 494 -12 578 26 z m 242 1161 b 293 1108 242 1129 263 1108 b 346 1161 325 1108 346 1129 b 293 1213 346 1192 325 1213 b 242 1161 263 1213 242 1192 z m 297 1331 l 481 1488 l 365 1518 z m 432 1161 b 483 1108 432 1129 453 1108 b 536 1161 515 1108 536 1129 b 483 1213 536 1192 515 1213 b 432 1161 453 1213 432 1192 z m 542 972 b 651 597 624 972 649 885 b 764 972 663 885 692 972 z "},"Ǚ":{"ha":778,"x_min":0,"x_max":0,"o":"m 615 108 b 403 -3 574 29 486 -3 b 199 236 268 -3 199 81 l 199 917 b 272 972 199 963 232 971 l 14 972 b 88 917 54 971 88 963 l 88 256 b 385 -12 88 93 203 -12 b 615 108 494 -12 578 26 z m 192 1451 l 378 1301 l 275 1467 z m 242 1161 b 293 1108 242 1129 263 1108 b 346 1161 325 1108 346 1129 b 293 1213 346 1192 325 1213 b 242 1161 263 1213 242 1192 z m 400 1301 l 585 1451 l 503 1467 z m 432 1161 b 483 1108 432 1129 453 1108 b 536 1161 515 1108 536 1129 b 483 1213 536 1192 515 1213 b 432 1161 453 1213 432 1192 z m 542 972 b 651 597 624 972 649 885 b 764 972 663 885 692 972 z "},"Ǜ":{"ha":778,"x_min":0,"x_max":0,"o":"m 615 108 b 403 -3 574 29 486 -3 b 199 236 268 -3 199 81 l 199 917 b 272 972 199 963 232 971 l 14 972 b 88 917 54 971 88 963 l 88 256 b 385 -12 88 93 203 -12 b 615 108 494 -12 578 26 z m 242 1161 b 293 1108 242 1129 263 1108 b 346 1161 325 1108 346 1129 b 293 1213 346 1192 325 1213 b 242 1161 263 1213 242 1192 z m 297 1488 l 481 1331 l 413 1518 z m 432 1161 b 483 1108 432 1129 453 1108 b 536 1161 515 1108 536 1129 b 483 1213 536 1192 515 1213 b 432 1161 453 1213 432 1192 z m 542 972 b 651 597 624 972 649 885 b 764 972 663 885 692 972 z "},"Ǖ":{"ha":778,"x_min":0,"x_max":0,"o":"m 615 108 b 403 -3 574 29 486 -3 b 199 236 268 -3 199 81 l 199 917 b 272 972 199 963 232 971 l 14 972 b 88 917 54 971 88 963 l 88 256 b 385 -12 88 93 203 -12 b 615 108 494 -12 578 26 z m 192 1379 l 585 1379 l 585 1389 l 192 1389 z m 242 1161 b 293 1108 242 1129 263 1108 b 346 1161 325 1108 346 1129 b 293 1213 346 1192 325 1213 b 242 1161 263 1213 242 1192 z m 432 1161 b 483 1108 432 1129 453 1108 b 536 1161 515 1108 536 1129 b 483 1213 536 1192 515 1213 b 432 1161 453 1213 432 1192 z m 542 972 b 651 597 624 972 649 885 b 764 972 663 885 692 972 z "},"Ụ":{"ha":778,"x_min":0,"x_max":0,"o":"m 615 108 b 403 -3 574 29 486 -3 b 199 236 268 -3 199 81 l 199 917 b 272 972 199 963 232 971 l 14 972 b 88 917 54 971 88 963 l 88 256 b 385 -12 88 93 203 -12 b 615 108 494 -12 578 26 z m 338 -187 b 390 -239 338 -218 358 -239 b 442 -187 421 -239 442 -218 b 390 -135 442 -156 421 -135 b 338 -187 358 -135 338 -156 z m 542 972 b 651 597 624 972 649 885 b 764 972 663 885 692 972 z "},"Ù":{"ha":778,"x_min":0,"x_max":0,"o":"m 615 108 b 403 -3 574 29 486 -3 b 199 236 268 -3 199 81 l 199 917 b 272 972 199 963 232 971 l 14 972 b 88 917 54 971 88 963 l 88 256 b 385 -12 88 93 203 -12 b 615 108 494 -12 578 26 z m 297 1247 l 481 1090 l 413 1278 z m 542 972 b 651 597 624 972 649 885 b 764 972 663 885 692 972 z "},"Ủ":{"ha":778,"x_min":0,"x_max":0,"o":"m 615 108 b 403 -3 574 29 486 -3 b 199 236 268 -3 199 81 l 199 917 b 272 972 199 963 232 971 l 14 972 b 88 917 54 971 88 963 l 88 256 b 385 -12 88 93 203 -12 b 615 108 494 -12 578 26 z m 321 1082 b 456 1207 397 1119 453 1154 b 403 1263 456 1240 438 1263 b 351 1211 372 1263 351 1242 b 375 1165 351 1190 360 1174 b 321 1082 397 1151 361 1103 z m 542 972 b 651 597 624 972 649 885 b 764 972 663 885 692 972 z "},"Ư":{"ha":778,"x_min":0,"x_max":0,"o":"m 615 108 b 403 -3 574 29 486 -3 b 199 236 268 -3 199 81 l 199 917 b 272 972 199 963 232 971 l 14 972 b 88 917 54 971 88 963 l 88 256 b 385 -12 88 93 203 -12 b 615 108 494 -12 578 26 z m 542 972 b 651 597 624 972 649 885 b 764 972 663 885 692 972 z m 750 972 b 932 1281 914 1043 978 1142 l 840 1256 b 750 972 876 1122 863 1047 z "},"Ứ":{"ha":778,"x_min":0,"x_max":0,"o":"m 615 108 b 403 -3 574 29 486 -3 b 199 236 268 -3 199 81 l 199 917 b 272 972 199 963 232 971 l 14 972 b 88 917 54 971 88 963 l 88 256 b 385 -12 88 93 203 -12 b 615 108 494 -12 578 26 z m 297 1090 l 481 1247 l 365 1278 z m 542 972 b 651 597 624 972 649 885 b 764 972 663 885 692 972 z m 750 972 b 932 1281 914 1043 978 1142 l 840 1256 b 750 972 876 1122 863 1047 z "},"Ự":{"ha":778,"x_min":0,"x_max":0,"o":"m 615 108 b 403 -3 574 29 486 -3 b 199 236 268 -3 199 81 l 199 917 b 272 972 199 963 232 971 l 14 972 b 88 917 54 971 88 963 l 88 256 b 385 -12 88 93 203 -12 b 615 108 494 -12 578 26 z m 338 -187 b 390 -239 338 -218 358 -239 b 442 -187 421 -239 442 -218 b 390 -135 442 -156 421 -135 b 338 -187 358 -135 338 -156 z m 542 972 b 651 597 624 972 649 885 b 764 972 663 885 692 972 z m 750 972 b 932 1281 914 1043 978 1142 l 840 1256 b 750 972 876 1122 863 1047 z "},"Ừ":{"ha":778,"x_min":0,"x_max":0,"o":"m 615 108 b 403 -3 574 29 486 -3 b 199 236 268 -3 199 81 l 199 917 b 272 972 199 963 232 971 l 14 972 b 88 917 54 971 88 963 l 88 256 b 385 -12 88 93 203 -12 b 615 108 494 -12 578 26 z m 297 1247 l 481 1090 l 413 1278 z m 542 972 b 651 597 624 972 649 885 b 764 972 663 885 692 972 z m 750 972 b 932 1281 914 1043 978 1142 l 840 1256 b 750 972 876 1122 863 1047 z "},"Ử":{"ha":778,"x_min":0,"x_max":0,"o":"m 615 108 b 403 -3 574 29 486 -3 b 199 236 268 -3 199 81 l 199 917 b 272 972 199 963 232 971 l 14 972 b 88 917 54 971 88 963 l 88 256 b 385 -12 88 93 203 -12 b 615 108 494 -12 578 26 z m 321 1082 b 456 1207 397 1119 453 1154 b 403 1263 456 1240 438 1263 b 351 1211 372 1263 351 1242 b 375 1165 351 1190 360 1174 b 321 1082 397 1151 361 1103 z m 542 972 b 651 597 624 972 649 885 b 764 972 663 885 692 972 z m 750 972 b 932 1281 914 1043 978 1142 l 840 1256 b 750 972 876 1122 863 1047 z "},"Ữ":{"ha":778,"x_min":0,"x_max":0,"o":"m 615 108 b 403 -3 574 29 486 -3 b 199 236 268 -3 199 81 l 199 917 b 272 972 199 963 232 971 l 14 972 b 88 917 54 971 88 963 l 88 256 b 385 -12 88 93 203 -12 b 615 108 494 -12 578 26 z m 239 1058 b 325 1139 244 1125 258 1139 l 419 1139 b 538 1253 479 1139 538 1147 b 403 1193 538 1178 446 1193 l 346 1193 b 239 1058 276 1193 239 1147 z m 542 972 b 651 597 624 972 649 885 b 764 972 663 885 692 972 z m 750 972 b 932 1281 914 1043 978 1142 l 840 1256 b 750 972 876 1122 863 1047 z "},"Ű":{"ha":778,"x_min":0,"x_max":0,"o":"m 615 108 b 403 -3 574 29 486 -3 b 199 236 268 -3 199 81 l 199 917 b 272 972 199 963 232 971 l 14 972 b 88 917 54 971 88 963 l 88 256 b 385 -12 88 93 203 -12 b 615 108 494 -12 578 26 z m 164 1090 l 347 1247 l 232 1278 z m 431 1090 l 614 1247 l 499 1278 z m 542 972 b 651 597 624 972 649 885 b 764 972 663 885 692 972 z "},"Ū":{"ha":778,"x_min":0,"x_max":0,"o":"m 615 108 b 403 -3 574 29 486 -3 b 199 236 268 -3 199 81 l 199 917 b 272 972 199 963 232 971 l 14 972 b 88 917 54 971 88 963 l 88 256 b 385 -12 88 93 203 -12 b 615 108 494 -12 578 26 z m 192 1139 l 585 1139 l 585 1149 l 192 1149 z m 542 972 b 651 597 624 972 649 885 b 764 972 663 885 692 972 z "},"Ų":{"ha":778,"x_min":0,"x_max":0,"o":"m 615 108 b 403 -3 574 29 486 -3 b 199 236 268 -3 199 81 l 199 917 b 272 972 199 963 232 971 l 14 972 b 88 917 54 971 88 963 l 88 256 b 385 -12 88 93 203 -12 b 615 108 494 -12 578 26 z m 317 -103 b 460 -204 317 -161 365 -204 b 369 -101 393 -203 369 -164 b 410 -26 369 -50 385 -26 b 317 -103 354 -26 317 -53 z m 542 972 b 651 597 624 972 649 885 b 764 972 663 885 692 972 z "},"Ʊ":{"ha":778,"x_min":0,"x_max":0,"o":"m 615 108 b 403 -3 574 29 486 -3 b 199 236 268 -3 199 81 l 199 917 b 272 972 199 963 232 971 l 14 972 b 88 917 54 971 88 963 l 88 256 b 385 -12 88 93 203 -12 b 615 108 494 -12 578 26 z m 542 972 b 651 597 624 972 649 885 b 764 972 663 885 692 972 z "},"Ů":{"ha":778,"x_min":0,"x_max":0,"o":"m 615 108 b 403 -3 574 29 486 -3 b 199 236 268 -3 199 81 l 199 917 b 272 972 199 963 232 971 l 14 972 b 88 917 54 971 88 963 l 88 256 b 385 -12 88 93 203 -12 b 615 108 494 -12 578 26 z m 269 1207 b 389 1088 269 1135 317 1088 b 507 1207 460 1088 507 1135 b 389 1325 507 1278 460 1325 b 269 1207 317 1325 269 1278 z m 289 1207 b 389 1306 289 1267 328 1306 b 488 1207 449 1306 488 1267 b 389 1107 488 1146 449 1107 b 289 1207 328 1107 289 1146 z m 542 972 b 651 597 624 972 649 885 b 764 972 663 885 692 972 z "},"Ũ":{"ha":778,"x_min":0,"x_max":0,"o":"m 615 108 b 403 -3 574 29 486 -3 b 199 236 268 -3 199 81 l 199 917 b 272 972 199 963 232 971 l 14 972 b 88 917 54 971 88 963 l 88 256 b 385 -12 88 93 203 -12 b 615 108 494 -12 578 26 z m 239 1058 b 325 1139 244 1125 258 1139 l 419 1139 b 538 1253 479 1139 538 1147 b 403 1193 538 1178 446 1193 l 346 1193 b 239 1058 276 1193 239 1147 z m 542 972 b 651 597 624 972 649 885 b 764 972 663 885 692 972 z "},"V":{"ha":764,"x_min":0,"x_max":0,"o":"m 79 894 l 357 -10 l 415 206 l 194 894 b 271 972 175 954 224 971 l 0 972 b 79 894 47 971 63 947 z m 538 972 b 542 533 631 972 607 750 b 764 972 632 828 682 972 z "},"Ʌ":{"ha":764,"x_min":0,"x_max":0,"o":"m 685 78 l 407 982 l 349 767 l 569 78 b 493 0 589 18 540 1 l 764 0 b 685 78 717 1 701 25 z m 0 0 l 226 0 b 222 439 133 0 157 222 b 0 0 132 144 82 0 z "},"W":{"ha":1117,"x_min":0,"x_max":0,"o":"m 432 894 l 710 -10 l 768 206 l 547 894 b 624 972 528 954 576 971 l 353 972 b 432 894 400 971 415 947 z m 0 972 b 79 894 47 971 64 947 l 347 -10 l 401 199 l 194 894 b 271 972 176 954 224 971 z m 890 972 b 894 533 983 972 960 750 b 1117 972 985 828 1035 972 z "},"Ẃ":{"ha":1117,"x_min":0,"x_max":0,"o":"m 432 894 l 710 -10 l 768 206 l 547 894 b 624 972 528 954 576 971 l 353 972 b 432 894 400 971 415 947 z m 0 972 b 79 894 47 971 64 947 l 347 -10 l 401 199 l 194 894 b 271 972 176 954 224 971 z m 467 1090 l 650 1247 l 535 1278 z m 890 972 b 894 533 983 972 960 750 b 1117 972 985 828 1035 972 z "},"Ŵ":{"ha":1117,"x_min":0,"x_max":0,"o":"m 432 894 l 710 -10 l 768 206 l 547 894 b 624 972 528 954 576 971 l 353 972 b 432 894 400 971 415 947 z m 0 972 b 79 894 47 971 64 947 l 347 -10 l 401 199 l 194 894 b 271 972 176 954 224 971 z m 361 1132 l 444 1117 l 547 1282 z m 569 1282 l 672 1117 l 754 1132 z m 890 972 b 894 533 983 972 960 750 b 1117 972 985 828 1035 972 z "},"Ẅ":{"ha":1117,"x_min":0,"x_max":0,"o":"m 432 894 l 710 -10 l 768 206 l 547 894 b 624 972 528 954 576 971 l 353 972 b 432 894 400 971 415 947 z m 0 972 b 79 894 47 971 64 947 l 347 -10 l 401 199 l 194 894 b 271 972 176 954 224 971 z m 411 1161 b 463 1108 411 1129 432 1108 b 515 1161 494 1108 515 1129 b 463 1213 515 1192 494 1213 b 411 1161 432 1213 411 1192 z m 601 1161 b 653 1108 601 1129 622 1108 b 706 1161 685 1108 706 1129 b 653 1213 706 1192 685 1213 b 601 1161 622 1213 601 1192 z m 890 972 b 894 533 983 972 960 750 b 1117 972 985 828 1035 972 z "},"Ẁ":{"ha":1117,"x_min":0,"x_max":0,"o":"m 432 894 l 710 -10 l 768 206 l 547 894 b 624 972 528 954 576 971 l 353 972 b 432 894 400 971 415 947 z m 0 972 b 79 894 47 971 64 947 l 347 -10 l 401 199 l 194 894 b 271 972 176 954 224 971 z m 467 1247 l 650 1090 l 582 1278 z m 890 972 b 894 533 983 972 960 750 b 1117 972 985 828 1035 972 z "},"X":{"ha":764,"x_min":0,"x_max":0,"o":"m 481 0 l 760 0 b 669 78 718 1 696 24 b 554 297 628 158 589 231 l 349 686 b 233 906 314 753 276 825 b 324 972 200 968 268 972 l 0 972 b 113 894 58 972 79 957 l 549 67 b 481 0 578 11 531 1 z m 0 0 l 232 0 b 310 371 133 0 207 171 b 0 0 168 99 86 0 z m 456 599 l 467 619 b 760 972 607 893 676 972 l 528 972 b 467 619 622 972 554 793 z "},"Y":{"ha":758,"x_min":0,"x_max":0,"o":"m 547 668 b 549 671 547 669 549 669 b 758 972 629 857 676 972 l 524 972 b 549 671 617 972 608 810 b 547 668 549 669 547 669 z m 0 972 b 79 922 47 971 64 957 l 336 343 l 336 56 b 263 0 336 10 303 1 l 521 0 b 447 56 481 1 447 10 l 447 367 l 200 922 b 276 972 183 961 229 971 z "},"Ý":{"ha":758,"x_min":0,"x_max":0,"o":"m 547 668 b 549 671 547 669 549 669 b 758 972 629 857 676 972 l 524 972 b 549 671 617 972 608 810 b 547 668 549 669 547 669 z m 0 972 b 79 922 47 971 64 957 l 336 343 l 336 56 b 263 0 336 10 303 1 l 521 0 b 447 56 481 1 447 10 l 447 367 l 200 922 b 276 972 183 961 229 971 z m 288 1090 l 471 1247 l 356 1278 z "},"Ŷ":{"ha":758,"x_min":0,"x_max":0,"o":"m 547 668 b 549 671 547 669 549 669 b 758 972 629 857 676 972 l 524 972 b 549 671 617 972 608 810 b 547 668 549 669 547 669 z m 0 972 b 79 922 47 971 64 957 l 336 343 l 336 56 b 263 0 336 10 303 1 l 521 0 b 447 56 481 1 447 10 l 447 367 l 200 922 b 276 972 183 961 229 971 z m 182 1132 l 265 1117 l 368 1282 z m 390 1282 l 493 1117 l 575 1132 z "},"Ÿ":{"ha":758,"x_min":0,"x_max":0,"o":"m 547 668 b 549 671 547 669 549 669 b 758 972 629 857 676 972 l 524 972 b 549 671 617 972 608 810 b 547 668 549 669 547 669 z m 0 972 b 79 922 47 971 64 957 l 336 343 l 336 56 b 263 0 336 10 303 1 l 521 0 b 447 56 481 1 447 10 l 447 367 l 200 922 b 276 972 183 961 229 971 z m 232 1161 b 283 1108 232 1129 253 1108 b 336 1161 315 1108 336 1129 b 283 1213 336 1192 315 1213 b 232 1161 253 1213 232 1192 z m 422 1161 b 474 1108 422 1129 443 1108 b 526 1161 506 1108 526 1129 b 474 1213 526 1192 506 1213 b 422 1161 443 1213 422 1192 z "},"Ẏ":{"ha":758,"x_min":0,"x_max":0,"o":"m 547 668 b 549 671 547 669 549 669 b 758 972 629 857 676 972 l 524 972 b 549 671 617 972 608 810 b 547 668 549 669 547 669 z m 0 972 b 79 922 47 971 64 957 l 336 343 l 336 56 b 263 0 336 10 303 1 l 521 0 b 447 56 481 1 447 10 l 447 367 l 200 922 b 276 972 183 961 229 971 z m 326 1160 b 378 1107 326 1128 347 1107 b 431 1160 410 1107 431 1128 b 378 1211 431 1190 410 1211 b 326 1160 347 1211 326 1190 z "},"Ỵ":{"ha":758,"x_min":0,"x_max":0,"o":"m 547 668 b 549 671 547 669 549 669 b 758 972 629 857 676 972 l 524 972 b 549 671 617 972 608 810 b 547 668 549 669 547 669 z m 0 972 b 79 922 47 971 64 957 l 336 343 l 336 56 b 263 0 336 10 303 1 l 521 0 b 447 56 481 1 447 10 l 447 367 l 200 922 b 276 972 183 961 229 971 z m 328 -187 b 381 -239 328 -218 349 -239 b 432 -187 411 -239 432 -218 b 381 -135 432 -156 411 -135 b 328 -187 349 -135 328 -156 z "},"Ỳ":{"ha":758,"x_min":0,"x_max":0,"o":"m 547 668 b 549 671 547 669 549 669 b 758 972 629 857 676 972 l 524 972 b 549 671 617 972 608 810 b 547 668 549 669 547 669 z m 0 972 b 79 922 47 971 64 957 l 336 343 l 336 56 b 263 0 336 10 303 1 l 521 0 b 447 56 481 1 447 10 l 447 367 l 200 922 b 276 972 183 961 229 971 z m 288 1247 l 471 1090 l 403 1278 z "},"Ỷ":{"ha":758,"x_min":0,"x_max":0,"o":"m 547 668 b 549 671 547 669 549 669 b 758 972 629 857 676 972 l 524 972 b 549 671 617 972 608 810 b 547 668 549 669 547 669 z m 0 972 b 79 922 47 971 64 957 l 336 343 l 336 56 b 263 0 336 10 303 1 l 521 0 b 447 56 481 1 447 10 l 447 367 l 200 922 b 276 972 183 961 229 971 z m 311 1082 b 446 1207 388 1119 443 1154 b 393 1263 446 1240 428 1263 b 342 1211 363 1263 342 1242 b 365 1165 342 1190 350 1174 b 311 1082 388 1151 351 1103 z "},"Ȳ":{"ha":758,"x_min":0,"x_max":0,"o":"m 547 668 b 549 671 547 669 549 669 b 758 972 629 857 676 972 l 524 972 b 549 671 617 972 608 810 b 547 668 549 669 547 669 z m 0 972 b 79 922 47 971 64 957 l 336 343 l 336 56 b 263 0 336 10 303 1 l 521 0 b 447 56 481 1 447 10 l 447 367 l 200 922 b 276 972 183 961 229 971 z m 182 1139 l 575 1139 l 575 1149 l 182 1149 z "},"Ỹ":{"ha":758,"x_min":0,"x_max":0,"o":"m 547 668 b 549 671 547 669 549 669 b 758 972 629 857 676 972 l 524 972 b 549 671 617 972 608 810 b 547 668 549 669 547 669 z m 0 972 b 79 922 47 971 64 957 l 336 343 l 336 56 b 263 0 336 10 303 1 l 521 0 b 447 56 481 1 447 10 l 447 367 l 200 922 b 276 972 183 961 229 971 z m 229 1058 b 315 1139 235 1125 249 1139 l 410 1139 b 528 1253 469 1139 528 1147 b 393 1193 528 1178 436 1193 l 336 1193 b 229 1058 267 1193 229 1147 z "},"Z":{"ha":710,"x_min":0,"x_max":0,"o":"m 126 0 l 633 972 l 508 972 l 0 0 z m 29 790 b 444 972 29 925 271 972 l 29 972 z m 189 0 l 636 0 l 636 189 b 189 0 636 47 388 0 z "},"Ź":{"ha":710,"x_min":0,"x_max":0,"o":"m 126 0 l 633 972 l 508 972 l 0 0 z m 29 790 b 444 972 29 925 271 972 l 29 972 z m 189 0 l 636 0 l 636 189 b 189 0 636 47 388 0 z m 264 1090 l 447 1247 l 332 1278 z "},"Ž":{"ha":710,"x_min":0,"x_max":0,"o":"m 126 0 l 633 972 l 508 972 l 0 0 z m 29 790 b 444 972 29 925 271 972 l 29 972 z m 158 1211 l 344 1061 l 242 1226 z m 189 0 l 636 0 l 636 189 b 189 0 636 47 388 0 z m 367 1061 l 551 1211 l 469 1226 z "},"Ż":{"ha":710,"x_min":0,"x_max":0,"o":"m 126 0 l 633 972 l 508 972 l 0 0 z m 29 790 b 444 972 29 925 271 972 l 29 972 z m 189 0 l 636 0 l 636 189 b 189 0 636 47 388 0 z m 303 1160 b 354 1107 303 1128 324 1107 b 407 1160 386 1107 407 1128 b 354 1211 407 1190 386 1211 b 303 1160 324 1211 303 1190 z "},"Ẓ":{"ha":710,"x_min":0,"x_max":0,"o":"m 126 0 l 633 972 l 508 972 l 0 0 z m 29 790 b 444 972 29 925 271 972 l 29 972 z m 189 0 l 636 0 l 636 189 b 189 0 636 47 388 0 z m 304 -187 b 357 -239 304 -218 325 -239 b 408 -187 388 -239 408 -218 b 357 -135 408 -156 388 -135 b 304 -187 325 -135 304 -156 z "},"Ẕ":{"ha":710,"x_min":0,"x_max":0,"o":"m 126 0 l 633 972 l 508 972 l 0 0 z m 29 790 b 444 972 29 925 271 972 l 29 972 z m 160 -176 l 553 -176 l 553 -167 l 160 -167 z m 189 0 l 636 0 l 636 189 b 189 0 636 47 388 0 z "},"a":{"ha":606,"x_min":0,"x_max":0,"o":"m 318 708 b 414 472 392 708 414 651 l 414 211 b 599 0 414 46 454 0 b 525 257 517 0 525 138 l 525 415 b 318 708 525 594 446 708 z m 44 200 b 235 -12 44 79 126 -12 b 372 38 275 -12 310 0 b 278 6 335 17 304 6 b 154 210 200 6 154 85 b 383 472 154 371 229 456 b 44 200 169 451 44 350 z m 90 617 l 267 499 b 272 708 171 563 174 689 b 90 617 213 697 125 651 z "},"á":{"ha":606,"x_min":0,"x_max":0,"o":"m 318 708 b 414 472 392 708 414 651 l 414 211 b 599 0 414 46 454 0 b 525 257 517 0 525 138 l 525 415 b 318 708 525 594 446 708 z m 44 200 b 235 -12 44 79 126 -12 b 372 38 275 -12 310 0 b 278 6 335 17 304 6 b 154 210 200 6 154 85 b 383 472 154 371 229 456 b 44 200 169 451 44 350 z m 90 617 l 267 499 b 272 708 171 563 174 689 b 90 617 213 697 125 651 z m 211 813 l 394 969 l 279 1000 z "},"ă":{"ha":606,"x_min":0,"x_max":0,"o":"m 318 708 b 414 472 392 708 414 651 l 414 211 b 599 0 414 46 454 0 b 525 257 517 0 525 138 l 525 415 b 318 708 525 594 446 708 z m 44 200 b 235 -12 44 79 126 -12 b 372 38 275 -12 310 0 b 278 6 335 17 304 6 b 154 210 200 6 154 85 b 383 472 154 371 229 456 b 44 200 169 451 44 350 z m 90 617 l 267 499 b 272 708 171 563 174 689 b 90 617 213 697 125 651 z m 151 1029 b 299 839 169 940 206 839 b 453 1022 392 839 422 933 b 303 907 424 960 376 907 b 151 1029 226 907 172 967 z "},"ắ":{"ha":606,"x_min":0,"x_max":0,"o":"m 318 708 b 414 472 392 708 414 651 l 414 211 b 599 0 414 46 454 0 b 525 257 517 0 525 138 l 525 415 b 318 708 525 594 446 708 z m 44 200 b 235 -12 44 79 126 -12 b 372 38 275 -12 310 0 b 278 6 335 17 304 6 b 154 210 200 6 154 85 b 383 472 154 371 229 456 b 44 200 169 451 44 350 z m 90 617 l 267 499 b 272 708 171 563 174 689 b 90 617 213 697 125 651 z m 151 1029 b 299 839 169 940 206 839 b 453 1022 392 839 422 933 b 303 907 424 960 376 907 b 151 1029 226 907 172 967 z m 211 1106 l 394 1263 l 279 1293 z "},"ặ":{"ha":606,"x_min":0,"x_max":0,"o":"m 318 708 b 414 472 392 708 414 651 l 414 211 b 599 0 414 46 454 0 b 525 257 517 0 525 138 l 525 415 b 318 708 525 594 446 708 z m 44 200 b 235 -12 44 79 126 -12 b 372 38 275 -12 310 0 b 278 6 335 17 304 6 b 154 210 200 6 154 85 b 383 472 154 371 229 456 b 44 200 169 451 44 350 z m 90 617 l 267 499 b 272 708 171 563 174 689 b 90 617 213 697 125 651 z m 151 1029 b 299 839 169 940 206 839 b 453 1022 392 839 422 933 b 303 907 424 960 376 907 b 151 1029 226 907 172 967 z m 251 -187 b 304 -239 251 -218 272 -239 b 356 -187 335 -239 356 -218 b 304 -135 356 -156 335 -135 b 251 -187 272 -135 251 -156 z "},"ằ":{"ha":606,"x_min":0,"x_max":0,"o":"m 318 708 b 414 472 392 708 414 651 l 414 211 b 599 0 414 46 454 0 b 525 257 517 0 525 138 l 525 415 b 318 708 525 594 446 708 z m 44 200 b 235 -12 44 79 126 -12 b 372 38 275 -12 310 0 b 278 6 335 17 304 6 b 154 210 200 6 154 85 b 383 472 154 371 229 456 b 44 200 169 451 44 350 z m 90 617 l 267 499 b 272 708 171 563 174 689 b 90 617 213 697 125 651 z m 151 1029 b 299 839 169 940 206 839 b 453 1022 392 839 422 933 b 303 907 424 960 376 907 b 151 1029 226 907 172 967 z m 211 1263 l 394 1106 l 326 1293 z "},"ẳ":{"ha":606,"x_min":0,"x_max":0,"o":"m 318 708 b 414 472 392 708 414 651 l 414 211 b 599 0 414 46 454 0 b 525 257 517 0 525 138 l 525 415 b 318 708 525 594 446 708 z m 44 200 b 235 -12 44 79 126 -12 b 372 38 275 -12 310 0 b 278 6 335 17 304 6 b 154 210 200 6 154 85 b 383 472 154 371 229 456 b 44 200 169 451 44 350 z m 90 617 l 267 499 b 272 708 171 563 174 689 b 90 617 213 697 125 651 z m 151 1029 b 299 839 169 940 206 839 b 453 1022 392 839 422 933 b 303 907 424 960 376 907 b 151 1029 226 907 172 967 z m 235 1097 b 369 1222 311 1135 367 1169 b 317 1278 369 1256 351 1278 b 265 1226 286 1278 265 1257 b 289 1181 265 1206 274 1189 b 235 1097 311 1167 275 1118 z "},"ẵ":{"ha":606,"x_min":0,"x_max":0,"o":"m 318 708 b 414 472 392 708 414 651 l 414 211 b 599 0 414 46 454 0 b 525 257 517 0 525 138 l 525 415 b 318 708 525 594 446 708 z m 44 200 b 235 -12 44 79 126 -12 b 372 38 275 -12 310 0 b 278 6 335 17 304 6 b 154 210 200 6 154 85 b 383 472 154 371 229 456 b 44 200 169 451 44 350 z m 90 617 l 267 499 b 272 708 171 563 174 689 b 90 617 213 697 125 651 z m 151 1029 b 299 839 169 940 206 839 b 453 1022 392 839 422 933 b 303 907 424 960 376 907 b 151 1029 226 907 172 967 z m 153 1074 b 239 1154 158 1140 172 1154 l 333 1154 b 451 1268 393 1154 451 1163 b 317 1208 451 1193 360 1208 l 260 1208 b 153 1074 190 1208 153 1163 z "},"ǎ":{"ha":606,"x_min":0,"x_max":0,"o":"m 318 708 b 414 472 392 708 414 651 l 414 211 b 599 0 414 46 454 0 b 525 257 517 0 525 138 l 525 415 b 318 708 525 594 446 708 z m 44 200 b 235 -12 44 79 126 -12 b 372 38 275 -12 310 0 b 278 6 335 17 304 6 b 154 210 200 6 154 85 b 383 472 154 371 229 456 b 44 200 169 451 44 350 z m 90 617 l 267 499 b 272 708 171 563 174 689 b 90 617 213 697 125 651 z m 106 933 l 292 783 l 189 949 z m 314 783 l 499 933 l 417 949 z "},"â":{"ha":606,"x_min":0,"x_max":0,"o":"m 318 708 b 414 472 392 708 414 651 l 414 211 b 599 0 414 46 454 0 b 525 257 517 0 525 138 l 525 415 b 318 708 525 594 446 708 z m 44 200 b 235 -12 44 79 126 -12 b 372 38 275 -12 310 0 b 278 6 335 17 304 6 b 154 210 200 6 154 85 b 383 472 154 371 229 456 b 44 200 169 451 44 350 z m 90 617 l 267 499 b 272 708 171 563 174 689 b 90 617 213 697 125 651 z m 106 854 l 189 839 l 292 1004 z m 314 1004 l 417 839 l 499 854 z "},"ấ":{"ha":606,"x_min":0,"x_max":0,"o":"m 318 708 b 414 472 392 708 414 651 l 414 211 b 599 0 414 46 454 0 b 525 257 517 0 525 138 l 525 415 b 318 708 525 594 446 708 z m 44 200 b 235 -12 44 79 126 -12 b 372 38 275 -12 310 0 b 278 6 335 17 304 6 b 154 210 200 6 154 85 b 383 472 154 371 229 456 b 44 200 169 451 44 350 z m 90 617 l 267 499 b 272 708 171 563 174 689 b 90 617 213 697 125 651 z m 106 854 l 189 839 l 292 1004 z m 211 1122 l 394 1279 l 279 1310 z m 314 1004 l 417 839 l 499 854 z "},"ậ":{"ha":606,"x_min":0,"x_max":0,"o":"m 318 708 b 414 472 392 708 414 651 l 414 211 b 599 0 414 46 454 0 b 525 257 517 0 525 138 l 525 415 b 318 708 525 594 446 708 z m 44 200 b 235 -12 44 79 126 -12 b 372 38 275 -12 310 0 b 278 6 335 17 304 6 b 154 210 200 6 154 85 b 383 472 154 371 229 456 b 44 200 169 451 44 350 z m 90 617 l 267 499 b 272 708 171 563 174 689 b 90 617 213 697 125 651 z m 106 854 l 189 839 l 292 1004 z m 251 -187 b 304 -239 251 -218 272 -239 b 356 -187 335 -239 356 -218 b 304 -135 356 -156 335 -135 b 251 -187 272 -135 251 -156 z m 314 1004 l 417 839 l 499 854 z "},"ầ":{"ha":606,"x_min":0,"x_max":0,"o":"m 318 708 b 414 472 392 708 414 651 l 414 211 b 599 0 414 46 454 0 b 525 257 517 0 525 138 l 525 415 b 318 708 525 594 446 708 z m 44 200 b 235 -12 44 79 126 -12 b 372 38 275 -12 310 0 b 278 6 335 17 304 6 b 154 210 200 6 154 85 b 383 472 154 371 229 456 b 44 200 169 451 44 350 z m 90 617 l 267 499 b 272 708 171 563 174 689 b 90 617 213 697 125 651 z m 106 854 l 189 839 l 292 1004 z m 211 1279 l 394 1122 l 326 1310 z m 314 1004 l 417 839 l 499 854 z "},"ẩ":{"ha":606,"x_min":0,"x_max":0,"o":"m 318 708 b 414 472 392 708 414 651 l 414 211 b 599 0 414 46 454 0 b 525 257 517 0 525 138 l 525 415 b 318 708 525 594 446 708 z m 44 200 b 235 -12 44 79 126 -12 b 372 38 275 -12 310 0 b 278 6 335 17 304 6 b 154 210 200 6 154 85 b 383 472 154 371 229 456 b 44 200 169 451 44 350 z m 90 617 l 267 499 b 272 708 171 563 174 689 b 90 617 213 697 125 651 z m 106 854 l 189 839 l 292 1004 z m 235 1114 b 369 1239 311 1151 367 1186 b 317 1294 369 1272 351 1294 b 265 1243 286 1294 265 1274 b 289 1197 265 1222 274 1206 b 235 1114 311 1183 275 1135 z m 314 1004 l 417 839 l 499 854 z "},"ẫ":{"ha":606,"x_min":0,"x_max":0,"o":"m 318 708 b 414 472 392 708 414 651 l 414 211 b 599 0 414 46 454 0 b 525 257 517 0 525 138 l 525 415 b 318 708 525 594 446 708 z m 44 200 b 235 -12 44 79 126 -12 b 372 38 275 -12 310 0 b 278 6 335 17 304 6 b 154 210 200 6 154 85 b 383 472 154 371 229 456 b 44 200 169 451 44 350 z m 90 617 l 267 499 b 272 708 171 563 174 689 b 90 617 213 697 125 651 z m 106 854 l 189 839 l 292 1004 z m 153 1090 b 239 1171 158 1157 172 1171 l 333 1171 b 451 1285 393 1171 451 1179 b 317 1225 451 1210 360 1225 l 260 1225 b 153 1090 190 1225 153 1179 z m 314 1004 l 417 839 l 499 854 z "},"ä":{"ha":606,"x_min":0,"x_max":0,"o":"m 318 708 b 414 472 392 708 414 651 l 414 211 b 599 0 414 46 454 0 b 525 257 517 0 525 138 l 525 415 b 318 708 525 594 446 708 z m 44 200 b 235 -12 44 79 126 -12 b 372 38 275 -12 310 0 b 278 6 335 17 304 6 b 154 210 200 6 154 85 b 383 472 154 371 229 456 b 44 200 169 451 44 350 z m 90 617 l 267 499 b 272 708 171 563 174 689 b 90 617 213 697 125 651 z m 156 883 b 207 831 156 851 176 831 b 260 883 239 831 260 851 b 207 935 260 914 239 935 b 156 883 176 935 156 914 z m 346 883 b 397 831 346 851 367 831 b 450 883 429 831 450 851 b 397 935 450 914 429 935 b 346 883 367 935 346 914 z "},"ǟ":{"ha":606,"x_min":0,"x_max":0,"o":"m 318 708 b 414 472 392 708 414 651 l 414 211 b 599 0 414 46 454 0 b 525 257 517 0 525 138 l 525 415 b 318 708 525 594 446 708 z m 44 200 b 235 -12 44 79 126 -12 b 372 38 275 -12 310 0 b 278 6 335 17 304 6 b 154 210 200 6 154 85 b 383 472 154 371 229 456 b 44 200 169 451 44 350 z m 90 617 l 267 499 b 272 708 171 563 174 689 b 90 617 213 697 125 651 z m 106 1101 l 499 1101 l 499 1111 l 106 1111 z m 156 883 b 207 831 156 851 176 831 b 260 883 239 831 260 851 b 207 935 260 914 239 935 b 156 883 176 935 156 914 z m 346 883 b 397 831 346 851 367 831 b 450 883 429 831 450 851 b 397 935 450 914 429 935 b 346 883 367 935 346 914 z "},"ạ":{"ha":606,"x_min":0,"x_max":0,"o":"m 318 708 b 414 472 392 708 414 651 l 414 211 b 599 0 414 46 454 0 b 525 257 517 0 525 138 l 525 415 b 318 708 525 594 446 708 z m 44 200 b 235 -12 44 79 126 -12 b 372 38 275 -12 310 0 b 278 6 335 17 304 6 b 154 210 200 6 154 85 b 383 472 154 371 229 456 b 44 200 169 451 44 350 z m 90 617 l 267 499 b 272 708 171 563 174 689 b 90 617 213 697 125 651 z m 251 -187 b 304 -239 251 -218 272 -239 b 356 -187 335 -239 356 -218 b 304 -135 356 -156 335 -135 b 251 -187 272 -135 251 -156 z "},"à":{"ha":606,"x_min":0,"x_max":0,"o":"m 318 708 b 414 472 392 708 414 651 l 414 211 b 599 0 414 46 454 0 b 525 257 517 0 525 138 l 525 415 b 318 708 525 594 446 708 z m 44 200 b 235 -12 44 79 126 -12 b 372 38 275 -12 310 0 b 278 6 335 17 304 6 b 154 210 200 6 154 85 b 383 472 154 371 229 456 b 44 200 169 451 44 350 z m 90 617 l 267 499 b 272 708 171 563 174 689 b 90 617 213 697 125 651 z m 211 969 l 394 813 l 326 1000 z "},"ả":{"ha":606,"x_min":0,"x_max":0,"o":"m 318 708 b 414 472 392 708 414 651 l 414 211 b 599 0 414 46 454 0 b 525 257 517 0 525 138 l 525 415 b 318 708 525 594 446 708 z m 44 200 b 235 -12 44 79 126 -12 b 372 38 275 -12 310 0 b 278 6 335 17 304 6 b 154 210 200 6 154 85 b 383 472 154 371 229 456 b 44 200 169 451 44 350 z m 90 617 l 267 499 b 272 708 171 563 174 689 b 90 617 213 697 125 651 z m 235 804 b 369 929 311 842 367 876 b 317 985 369 963 351 985 b 265 933 286 985 265 964 b 289 888 265 913 274 896 b 235 804 311 874 275 825 z "},"ɑ":{"ha":667,"x_min":0,"x_max":0,"o":"m 94 69 b 21 13 94 14 81 18 b 206 -1 88 14 94 18 l 206 956 b 243 1006 206 996 221 1006 b 279 1001 254 1006 267 1004 l 94 1051 z m 268 35 b 397 -11 325 0 360 -11 b 632 344 535 -11 632 136 b 397 707 632 554 533 707 b 268 661 356 707 318 694 b 375 699 307 686 343 699 b 522 363 458 699 522 554 b 368 3 522 168 456 7 b 268 35 340 1 307 11 z "},"ā":{"ha":606,"x_min":0,"x_max":0,"o":"m 318 708 b 414 472 392 708 414 651 l 414 211 b 599 0 414 46 454 0 b 525 257 517 0 525 138 l 525 415 b 318 708 525 594 446 708 z m 44 200 b 235 -12 44 79 126 -12 b 372 38 275 -12 310 0 b 278 6 335 17 304 6 b 154 210 200 6 154 85 b 383 472 154 371 229 456 b 44 200 169 451 44 350 z m 90 617 l 267 499 b 272 708 171 563 174 689 b 90 617 213 697 125 651 z m 106 861 l 499 861 l 499 871 l 106 871 z "},"ą":{"ha":606,"x_min":0,"x_max":0,"o":"m 318 708 b 414 472 392 708 414 651 l 414 211 b 599 0 414 46 454 0 b 525 257 517 0 525 138 l 525 415 b 318 708 525 594 446 708 z m 44 200 b 235 -12 44 79 126 -12 b 372 38 275 -12 310 0 b 278 6 335 17 304 6 b 154 210 200 6 154 85 b 383 472 154 371 229 456 b 44 200 169 451 44 350 z m 90 617 l 267 499 b 272 708 171 563 174 689 b 90 617 213 697 125 651 z m 401 -62 b 544 -164 401 -121 450 -164 b 454 -61 478 -162 454 -124 b 494 14 454 -10 469 14 b 401 -62 439 14 401 -12 z "},"å":{"ha":606,"x_min":0,"x_max":0,"o":"m 318 708 b 414 472 392 708 414 651 l 414 211 b 599 0 414 46 454 0 b 525 257 517 0 525 138 l 525 415 b 318 708 525 594 446 708 z m 44 200 b 235 -12 44 79 126 -12 b 372 38 275 -12 310 0 b 278 6 335 17 304 6 b 154 210 200 6 154 85 b 383 472 154 371 229 456 b 44 200 169 451 44 350 z m 90 617 l 267 499 b 272 708 171 563 174 689 b 90 617 213 697 125 651 z m 183 929 b 303 810 183 857 231 810 b 421 929 374 810 421 857 b 303 1047 421 1000 374 1047 b 183 929 231 1047 183 1000 z m 203 929 b 303 1028 203 989 242 1028 b 401 929 363 1028 401 989 b 303 829 401 868 363 829 b 203 929 242 829 203 868 z "},"ã":{"ha":606,"x_min":0,"x_max":0,"o":"m 318 708 b 414 472 392 708 414 651 l 414 211 b 599 0 414 46 454 0 b 525 257 517 0 525 138 l 525 415 b 318 708 525 594 446 708 z m 44 200 b 235 -12 44 79 126 -12 b 372 38 275 -12 310 0 b 278 6 335 17 304 6 b 154 210 200 6 154 85 b 383 472 154 371 229 456 b 44 200 169 451 44 350 z m 90 617 l 267 499 b 272 708 171 563 174 689 b 90 617 213 697 125 651 z m 153 781 b 239 861 158 847 172 861 l 333 861 b 451 975 393 861 451 869 b 317 915 451 900 360 915 l 260 915 b 153 781 190 915 153 869 z "},"æ":{"ha":921,"x_min":0,"x_max":0,"o":"m 318 708 b 414 472 392 708 415 651 l 413 356 l 413 343 b 671 -12 413 118 506 -12 b 524 363 572 -12 522 115 l 525 415 b 667 707 525 503 542 707 b 482 613 589 707 525 674 b 318 708 446 674 389 708 z m 44 200 b 235 -12 44 79 126 -12 b 372 38 275 -12 310 0 b 278 6 335 17 304 6 b 154 210 200 6 154 85 b 383 472 154 371 229 456 b 44 200 169 451 44 350 z m 90 617 l 267 499 b 272 708 171 563 174 689 b 90 617 213 697 125 651 z m 574 283 b 900 508 769 285 900 375 b 700 707 900 618 811 707 b 801 521 765 707 801 639 b 574 283 801 360 735 290 z m 701 -12 b 864 43 756 -12 825 43 b 892 -1 881 43 892 32 l 892 257 b 701 -12 875 154 779 -12 z "},"ǣ":{"ha":921,"x_min":0,"x_max":0,"o":"m 318 708 b 414 472 392 708 415 651 l 413 356 l 413 343 b 671 -12 413 118 506 -12 b 524 363 572 -12 522 115 l 525 415 b 667 707 525 503 542 707 b 482 613 589 707 525 674 b 318 708 446 674 389 708 z m 44 200 b 235 -12 44 79 126 -12 b 372 38 275 -12 310 0 b 278 6 335 17 304 6 b 154 210 200 6 154 85 b 383 472 154 371 229 456 b 44 200 169 451 44 350 z m 90 617 l 267 499 b 272 708 171 563 174 689 b 90 617 213 697 125 651 z m 264 861 l 657 861 l 657 871 l 264 871 z m 574 283 b 900 508 769 285 900 375 b 700 707 900 618 811 707 b 801 521 765 707 801 639 b 574 283 801 360 735 290 z m 701 -12 b 864 43 756 -12 825 43 b 892 -1 881 43 892 32 l 892 257 b 701 -12 875 154 779 -12 z "},"b":{"ha":665,"x_min":0,"x_max":0,"o":"m 94 956 l 94 -10 b 161 79 101 44 124 79 b 206 65 174 79 189 75 l 206 1051 l 21 1001 b 57 1006 33 1004 46 1006 b 94 956 79 1006 94 996 z m 267 35 b 396 -11 324 0 358 -11 b 631 344 533 -11 631 136 b 396 707 631 554 532 707 b 267 661 354 707 317 694 b 374 699 306 686 342 699 b 521 363 457 699 521 554 b 367 3 521 168 454 7 b 267 35 339 1 306 11 z "},"ḅ":{"ha":665,"x_min":0,"x_max":0,"o":"m 94 956 l 94 -10 b 161 79 101 44 124 79 b 206 65 174 79 189 75 l 206 1051 l 21 1001 b 57 1006 33 1004 46 1006 b 94 956 79 1006 94 996 z m 267 35 b 396 -11 324 0 358 -11 b 631 344 533 -11 631 136 b 396 707 631 554 532 707 b 267 661 354 707 317 694 b 374 699 306 686 342 699 b 521 363 457 699 521 554 b 367 3 521 168 454 7 b 267 35 339 1 306 11 z m 282 -187 b 335 -239 282 -218 303 -239 b 386 -187 365 -239 386 -218 b 335 -135 386 -156 365 -135 b 282 -187 303 -135 282 -156 z "},"c":{"ha":606,"x_min":0,"x_max":0,"o":"m 542 438 l 542 679 b 514 639 542 649 531 639 b 335 706 472 639 390 706 b 542 438 413 706 525 540 z m 35 342 b 299 -12 35 117 129 -12 b 146 363 196 -12 144 114 b 289 706 147 594 193 706 b 35 342 131 706 35 568 z m 335 -12 b 510 43 389 -12 467 43 b 542 -1 529 43 542 32 l 542 257 b 335 -12 525 154 413 -12 z "},"ć":{"ha":606,"x_min":0,"x_max":0,"o":"m 542 438 l 542 679 b 514 639 542 649 531 639 b 335 706 472 639 390 706 b 542 438 413 706 525 540 z m 35 342 b 299 -12 35 117 129 -12 b 146 363 196 -12 144 114 b 289 706 147 594 193 706 b 35 342 131 706 35 568 z m 211 813 l 394 969 l 279 1000 z m 335 -12 b 510 43 389 -12 467 43 b 542 -1 529 43 542 32 l 542 257 b 335 -12 525 154 413 -12 z "},"č":{"ha":606,"x_min":0,"x_max":0,"o":"m 542 438 l 542 679 b 514 639 542 649 531 639 b 335 706 472 639 390 706 b 542 438 413 706 525 540 z m 35 342 b 299 -12 35 117 129 -12 b 146 363 196 -12 144 114 b 289 706 147 594 193 706 b 35 342 131 706 35 568 z m 106 933 l 292 783 l 189 949 z m 314 783 l 499 933 l 417 949 z m 335 -12 b 510 43 389 -12 467 43 b 542 -1 529 43 542 32 l 542 257 b 335 -12 525 154 413 -12 z "},"ç":{"ha":606,"x_min":0,"x_max":0,"o":"m 542 438 l 542 679 b 514 639 542 649 531 639 b 335 706 472 639 390 706 b 542 438 413 706 525 540 z m 35 342 b 299 -12 35 117 129 -12 b 146 363 196 -12 144 114 b 289 706 147 594 193 706 b 35 342 131 706 35 568 z m 231 -228 b 374 -171 325 -228 374 -208 b 281 -117 374 -137 336 -117 b 321 -171 306 -117 321 -135 b 231 -228 321 -211 297 -226 z m 256 -117 l 265 -117 l 265 -49 l 256 -49 z m 335 -12 b 510 43 389 -12 467 43 b 542 -1 529 43 542 32 l 542 257 b 335 -12 525 154 413 -12 z "},"ĉ":{"ha":606,"x_min":0,"x_max":0,"o":"m 542 438 l 542 679 b 514 639 542 649 531 639 b 335 706 472 639 390 706 b 542 438 413 706 525 540 z m 35 342 b 299 -12 35 117 129 -12 b 146 363 196 -12 144 114 b 289 706 147 594 193 706 b 35 342 131 706 35 568 z m 106 854 l 189 839 l 292 1004 z m 314 1004 l 417 839 l 499 854 z m 335 -12 b 510 43 389 -12 467 43 b 542 -1 529 43 542 32 l 542 257 b 335 -12 525 154 413 -12 z "},"ċ":{"ha":606,"x_min":0,"x_max":0,"o":"m 542 438 l 542 679 b 514 639 542 649 531 639 b 335 706 472 639 390 706 b 542 438 413 706 525 540 z m 35 342 b 299 -12 35 117 129 -12 b 146 363 196 -12 144 114 b 289 706 147 594 193 706 b 35 342 131 706 35 568 z m 250 882 b 301 829 250 850 271 829 b 354 882 333 829 354 850 b 301 933 354 913 333 933 b 250 882 271 933 250 913 z m 335 -12 b 510 43 389 -12 467 43 b 542 -1 529 43 542 32 l 542 257 b 335 -12 525 154 413 -12 z "},"d":{"ha":667,"x_min":0,"x_max":0,"o":"m 572 69 l 572 1051 l 388 1001 b 424 1006 400 1004 413 1006 b 461 956 446 1006 461 996 l 461 -1 b 646 13 572 18 579 14 b 572 69 586 18 572 14 z m 35 344 b 269 -11 35 136 132 -11 b 399 35 307 -11 342 0 b 299 3 360 11 326 1 b 144 363 211 7 144 168 b 292 699 144 554 208 699 b 399 661 324 699 360 686 b 269 707 349 694 311 707 b 35 344 133 707 35 554 z "},"ð":{"ha":674,"x_min":0,"x_max":0,"o":"m 326 972 b 333 971 329 972 331 971 b 469 806 400 951 443 888 l 271 685 l 275 676 l 472 796 b 513 457 503 696 513 571 b 358 -7 513 324 500 -1 b 624 435 581 -1 624 257 b 525 828 624 599 589 733 l 632 893 l 625 900 l 519 836 b 333 971 471 904 408 950 b 326 972 331 971 329 972 z m 42 269 b 294 -7 42 131 133 -1 b 153 269 188 0 153 138 b 325 546 153 421 200 550 b 444 518 364 544 410 531 b 313 549 410 532 360 546 b 42 269 151 556 42 422 z m 97 604 b 306 972 97 846 194 972 b 97 911 240 972 154 943 z m 294 -7 b 306 -7 299 -7 301 -7 z m 356 -7 b 358 -7 357 -7 358 -7 z "},"ď":{"ha":667,"x_min":0,"x_max":0,"o":"m 572 69 l 572 1051 l 388 1001 b 424 1006 400 1004 413 1006 b 461 956 446 1006 461 996 l 461 -1 b 646 13 572 18 579 14 b 572 69 586 18 572 14 z m 35 344 b 269 -11 35 136 132 -11 b 399 35 307 -11 342 0 b 299 3 360 11 326 1 b 144 363 211 7 144 168 b 292 699 144 554 208 699 b 399 661 324 699 360 686 b 269 707 349 694 311 707 b 35 344 133 707 35 554 z m 667 804 b 801 929 743 842 799 876 b 749 985 801 963 783 985 b 697 933 718 985 697 964 b 721 888 697 913 706 896 b 667 804 743 874 707 825 z "},"ḓ":{"ha":667,"x_min":0,"x_max":0,"o":"m 572 69 l 572 1051 l 388 1001 b 424 1006 400 1004 413 1006 b 461 956 446 1006 461 996 l 461 -1 b 646 13 572 18 579 14 b 572 69 586 18 572 14 z m 35 344 b 269 -11 35 136 132 -11 b 399 35 307 -11 342 0 b 299 3 360 11 326 1 b 144 363 211 7 144 168 b 292 699 144 554 208 699 b 399 661 324 699 360 686 b 269 707 349 694 311 707 b 35 344 133 707 35 554 z m 138 -239 l 219 -254 l 322 -89 z m 344 -89 l 447 -254 l 531 -239 z "},"đ":{"ha":667,"x_min":0,"x_max":0,"o":"m 572 856 l 572 1051 l 388 1001 b 424 1006 400 1004 413 1006 b 461 956 446 1006 461 996 l 461 856 l 307 856 l 307 846 l 461 846 l 461 -1 b 646 13 572 18 579 14 b 572 69 586 18 572 14 l 572 846 l 700 846 l 700 856 z m 35 344 b 269 -11 35 136 132 -11 b 399 35 307 -11 342 0 b 299 3 360 11 326 1 b 144 363 211 7 144 168 b 292 699 144 554 208 699 b 399 661 324 699 360 686 b 269 707 349 694 311 707 b 35 344 133 707 35 554 z "},"ḍ":{"ha":667,"x_min":0,"x_max":0,"o":"m 572 69 l 572 1051 l 388 1001 b 424 1006 400 1004 413 1006 b 461 956 446 1006 461 996 l 461 -1 b 646 13 572 18 579 14 b 572 69 586 18 572 14 z m 35 344 b 269 -11 35 136 132 -11 b 399 35 307 -11 342 0 b 299 3 360 11 326 1 b 144 363 211 7 144 168 b 292 699 144 554 208 699 b 399 661 324 699 360 686 b 269 707 349 694 311 707 b 35 344 133 707 35 554 z m 282 -187 b 335 -239 282 -218 303 -239 b 386 -187 365 -239 386 -218 b 335 -135 386 -156 365 -135 b 282 -187 303 -135 282 -156 z "},"ḏ":{"ha":667,"x_min":0,"x_max":0,"o":"m 572 69 l 572 1051 l 388 1001 b 424 1006 400 1004 413 1006 b 461 956 446 1006 461 996 l 461 -1 b 646 13 572 18 579 14 b 572 69 586 18 572 14 z m 35 344 b 269 -11 35 136 132 -11 b 399 35 307 -11 342 0 b 299 3 360 11 326 1 b 144 363 211 7 144 168 b 292 699 144 554 208 699 b 399 661 324 699 360 686 b 269 707 349 694 311 707 b 35 344 133 707 35 554 z m 138 -176 l 531 -176 l 531 -167 l 138 -167 z "},"e":{"ha":557,"x_min":0,"x_max":0,"o":"m 196 283 b 522 508 392 285 522 375 b 322 707 522 618 433 707 b 424 521 388 707 424 639 b 196 283 424 360 357 290 z m 35 342 b 293 -12 35 118 128 -12 b 146 363 194 -12 144 115 b 289 707 147 594 193 707 b 35 342 131 707 35 568 z m 324 -12 b 486 43 378 -12 447 43 b 514 -1 503 43 514 -35 l 514 257 b 324 -12 497 154 401 -12 z "},"é":{"ha":557,"x_min":0,"x_max":0,"o":"m 196 283 b 522 508 392 285 522 375 b 322 707 522 618 433 707 b 424 521 388 707 424 639 b 196 283 424 360 357 290 z m 35 342 b 293 -12 35 118 128 -12 b 146 363 194 -12 144 115 b 289 707 147 594 193 707 b 35 342 131 707 35 568 z m 211 813 l 394 969 l 279 1000 z m 324 -12 b 486 43 378 -12 447 43 b 514 -1 503 43 514 -35 l 514 257 b 324 -12 497 154 401 -12 z "},"ě":{"ha":557,"x_min":0,"x_max":0,"o":"m 196 283 b 522 508 392 285 522 375 b 322 707 522 618 433 707 b 424 521 388 707 424 639 b 196 283 424 360 357 290 z m 35 342 b 293 -12 35 118 128 -12 b 146 363 194 -12 144 115 b 289 707 147 594 193 707 b 35 342 131 707 35 568 z m 106 933 l 292 783 l 189 949 z m 314 783 l 499 933 l 417 949 z m 324 -12 b 486 43 378 -12 447 43 b 514 -1 503 43 514 -35 l 514 257 b 324 -12 497 154 401 -12 z "},"ȩ":{"ha":557,"x_min":0,"x_max":0,"o":"m 196 283 b 522 508 392 285 522 375 b 322 707 522 618 433 707 b 424 521 388 707 424 639 b 196 283 424 360 357 290 z m 35 342 b 293 -12 35 118 128 -12 b 146 363 194 -12 144 115 b 289 707 147 594 193 707 b 35 342 131 707 35 568 z m 232 -228 b 375 -171 326 -228 375 -208 b 282 -117 375 -137 338 -117 b 322 -171 307 -117 322 -135 b 232 -228 322 -211 299 -226 z m 257 -117 l 267 -117 l 267 -49 l 257 -49 z m 324 -12 b 486 43 378 -12 447 43 b 514 -1 503 43 514 -35 l 514 257 b 324 -12 497 154 401 -12 z "},"ê":{"ha":557,"x_min":0,"x_max":0,"o":"m 196 283 b 522 508 392 285 522 375 b 322 707 522 618 433 707 b 424 521 388 707 424 639 b 196 283 424 360 357 290 z m 35 342 b 293 -12 35 118 128 -12 b 146 363 194 -12 144 115 b 289 707 147 594 193 707 b 35 342 131 707 35 568 z m 106 854 l 189 839 l 292 1004 z m 314 1004 l 417 839 l 499 854 z m 324 -12 b 486 43 378 -12 447 43 b 514 -1 503 43 514 -35 l 514 257 b 324 -12 497 154 401 -12 z "},"ế":{"ha":557,"x_min":0,"x_max":0,"o":"m 196 283 b 522 508 392 285 522 375 b 322 707 522 618 433 707 b 424 521 388 707 424 639 b 196 283 424 360 357 290 z m 35 342 b 293 -12 35 118 128 -12 b 146 363 194 -12 144 115 b 289 707 147 594 193 707 b 35 342 131 707 35 568 z m 106 854 l 189 839 l 292 1004 z m 211 1122 l 394 1279 l 279 1310 z m 314 1004 l 417 839 l 499 854 z m 324 -12 b 486 43 378 -12 447 43 b 514 -1 503 43 514 -35 l 514 257 b 324 -12 497 154 401 -12 z "},"ệ":{"ha":557,"x_min":0,"x_max":0,"o":"m 196 283 b 522 508 392 285 522 375 b 322 707 522 618 433 707 b 424 521 388 707 424 639 b 196 283 424 360 357 290 z m 35 342 b 293 -12 35 118 128 -12 b 146 363 194 -12 144 115 b 289 707 147 594 193 707 b 35 342 131 707 35 568 z m 106 854 l 189 839 l 292 1004 z m 253 -187 b 306 -239 253 -218 274 -239 b 357 -187 336 -239 357 -218 b 306 -135 357 -156 336 -135 b 253 -187 274 -135 253 -156 z m 314 1004 l 417 839 l 499 854 z m 324 -12 b 486 43 378 -12 447 43 b 514 -1 503 43 514 -35 l 514 257 b 324 -12 497 154 401 -12 z "},"ề":{"ha":557,"x_min":0,"x_max":0,"o":"m 196 283 b 522 508 392 285 522 375 b 322 707 522 618 433 707 b 424 521 388 707 424 639 b 196 283 424 360 357 290 z m 35 342 b 293 -12 35 118 128 -12 b 146 363 194 -12 144 115 b 289 707 147 594 193 707 b 35 342 131 707 35 568 z m 106 854 l 189 839 l 292 1004 z m 211 1279 l 394 1122 l 326 1310 z m 314 1004 l 417 839 l 499 854 z m 324 -12 b 486 43 378 -12 447 43 b 514 -1 503 43 514 -35 l 514 257 b 324 -12 497 154 401 -12 z "},"ể":{"ha":557,"x_min":0,"x_max":0,"o":"m 196 283 b 522 508 392 285 522 375 b 322 707 522 618 433 707 b 424 521 388 707 424 639 b 196 283 424 360 357 290 z m 35 342 b 293 -12 35 118 128 -12 b 146 363 194 -12 144 115 b 289 707 147 594 193 707 b 35 342 131 707 35 568 z m 106 854 l 189 839 l 292 1004 z m 235 1114 b 369 1239 311 1151 367 1186 b 317 1294 369 1272 351 1294 b 265 1243 286 1294 265 1274 b 289 1197 265 1222 274 1206 b 235 1114 311 1183 275 1135 z m 314 1004 l 417 839 l 499 854 z m 324 -12 b 486 43 378 -12 447 43 b 514 -1 503 43 514 -35 l 514 257 b 324 -12 497 154 401 -12 z "},"ễ":{"ha":557,"x_min":0,"x_max":0,"o":"m 196 283 b 522 508 392 285 522 375 b 322 707 522 618 433 707 b 424 521 388 707 424 639 b 196 283 424 360 357 290 z m 35 342 b 293 -12 35 118 128 -12 b 146 363 194 -12 144 115 b 289 707 147 594 193 707 b 35 342 131 707 35 568 z m 106 854 l 189 839 l 292 1004 z m 153 1090 b 239 1171 158 1157 172 1171 l 333 1171 b 451 1285 393 1171 451 1179 b 317 1225 451 1210 360 1225 l 260 1225 b 153 1090 190 1225 153 1179 z m 314 1004 l 417 839 l 499 854 z m 324 -12 b 486 43 378 -12 447 43 b 514 -1 503 43 514 -35 l 514 257 b 324 -12 497 154 401 -12 z "},"ë":{"ha":557,"x_min":0,"x_max":0,"o":"m 196 283 b 522 508 392 285 522 375 b 322 707 522 618 433 707 b 424 521 388 707 424 639 b 196 283 424 360 357 290 z m 35 342 b 293 -12 35 118 128 -12 b 146 363 194 -12 144 115 b 289 707 147 594 193 707 b 35 342 131 707 35 568 z m 156 883 b 207 831 156 851 176 831 b 260 883 239 831 260 851 b 207 935 260 914 239 935 b 156 883 176 935 156 914 z m 324 -12 b 486 43 378 -12 447 43 b 514 -1 503 43 514 -35 l 514 257 b 324 -12 497 154 401 -12 z m 346 883 b 397 831 346 851 367 831 b 450 883 429 831 450 851 b 397 935 450 914 429 935 b 346 883 367 935 346 914 z "},"ė":{"ha":557,"x_min":0,"x_max":0,"o":"m 196 283 b 522 508 392 285 522 375 b 322 707 522 618 433 707 b 424 521 388 707 424 639 b 196 283 424 360 357 290 z m 35 342 b 293 -12 35 118 128 -12 b 146 363 194 -12 144 115 b 289 707 147 594 193 707 b 35 342 131 707 35 568 z m 250 882 b 301 829 250 850 271 829 b 354 882 333 829 354 850 b 301 933 354 913 333 933 b 250 882 271 933 250 913 z m 324 -12 b 486 43 378 -12 447 43 b 514 -1 503 43 514 -35 l 514 257 b 324 -12 497 154 401 -12 z "},"ẹ":{"ha":557,"x_min":0,"x_max":0,"o":"m 196 283 b 522 508 392 285 522 375 b 322 707 522 618 433 707 b 424 521 388 707 424 639 b 196 283 424 360 357 290 z m 35 342 b 293 -12 35 118 128 -12 b 146 363 194 -12 144 115 b 289 707 147 594 193 707 b 35 342 131 707 35 568 z m 253 -187 b 306 -239 253 -218 274 -239 b 357 -187 336 -239 357 -218 b 306 -135 357 -156 336 -135 b 253 -187 274 -135 253 -156 z m 324 -12 b 486 43 378 -12 447 43 b 514 -1 503 43 514 -35 l 514 257 b 324 -12 497 154 401 -12 z "},"è":{"ha":557,"x_min":0,"x_max":0,"o":"m 196 283 b 522 508 392 285 522 375 b 322 707 522 618 433 707 b 424 521 388 707 424 639 b 196 283 424 360 357 290 z m 35 342 b 293 -12 35 118 128 -12 b 146 363 194 -12 144 115 b 289 707 147 594 193 707 b 35 342 131 707 35 568 z m 211 969 l 394 813 l 326 1000 z m 324 -12 b 486 43 378 -12 447 43 b 514 -1 503 43 514 -35 l 514 257 b 324 -12 497 154 401 -12 z "},"ẻ":{"ha":557,"x_min":0,"x_max":0,"o":"m 196 283 b 522 508 392 285 522 375 b 322 707 522 618 433 707 b 424 521 388 707 424 639 b 196 283 424 360 357 290 z m 35 342 b 293 -12 35 118 128 -12 b 146 363 194 -12 144 115 b 289 707 147 594 193 707 b 35 342 131 707 35 568 z m 235 804 b 369 929 311 842 367 876 b 317 985 369 963 351 985 b 265 933 286 985 265 964 b 289 888 265 913 274 896 b 235 804 311 874 275 825 z m 324 -12 b 486 43 378 -12 447 43 b 514 -1 503 43 514 -35 l 514 257 b 324 -12 497 154 401 -12 z "},"ē":{"ha":557,"x_min":0,"x_max":0,"o":"m 196 283 b 522 508 392 285 522 375 b 322 707 522 618 433 707 b 424 521 388 707 424 639 b 196 283 424 360 357 290 z m 35 342 b 293 -12 35 118 128 -12 b 146 363 194 -12 144 115 b 289 707 147 594 193 707 b 35 342 131 707 35 568 z m 106 861 l 499 861 l 499 871 l 106 871 z m 324 -12 b 486 43 378 -12 447 43 b 514 -1 503 43 514 -35 l 514 257 b 324 -12 497 154 401 -12 z "},"ę":{"ha":557,"x_min":0,"x_max":0,"o":"m 196 283 b 522 508 392 285 522 375 b 322 707 522 618 433 707 b 424 521 388 707 424 639 b 196 283 424 360 357 290 z m 35 342 b 293 -12 35 118 128 -12 b 146 363 194 -12 144 115 b 289 707 147 594 193 707 b 35 342 131 707 35 568 z m 324 -12 b 486 43 378 -12 447 43 b 514 -1 503 43 514 -35 l 514 257 b 324 -12 497 154 401 -12 z m 346 -62 b 489 -164 346 -121 394 -164 b 399 -61 422 -162 399 -124 b 439 14 399 -10 414 14 b 346 -62 383 14 346 -12 z "},"ɛ":{"ha":632,"x_min":0,"x_max":0,"o":"m 346 -7 b 153 158 250 4 153 35 b 482 376 153 292 278 376 l 519 376 l 488 378 b 171 574 244 386 171 475 b 289 697 171 649 211 689 b 60 543 151 686 60 624 b 415 378 60 447 193 388 b 42 171 199 368 42 285 b 346 -7 42 56 196 6 z m 349 697 b 590 436 460 697 590 607 l 590 654 b 349 697 522 675 422 697 z m 406 -7 b 585 36 506 -7 585 36 l 585 254 b 406 -7 585 83 492 -7 z "},"ʃ":{"ha":406,"x_min":0,"x_max":0,"o":"m 258 75 l 258 819 b 350 1054 258 997 281 1054 b 147 763 225 1054 147 940 l 147 56 b -29 -146 147 -144 57 -147 b 258 75 50 -149 258 -190 z m -35 -146 b -29 -146 -33 -146 -31 -146 z m 350 1054 b 350 1054 350 1054 350 1054 z "},"ẽ":{"ha":557,"x_min":0,"x_max":0,"o":"m 196 283 b 522 508 392 285 522 375 b 322 707 522 618 433 707 b 424 521 388 707 424 639 b 196 283 424 360 357 290 z m 35 342 b 293 -12 35 118 128 -12 b 146 363 194 -12 144 115 b 289 707 147 594 193 707 b 35 342 131 707 35 568 z m 153 781 b 239 861 158 847 172 861 l 333 861 b 451 975 393 861 451 869 b 317 915 451 900 360 915 l 260 915 b 153 781 190 915 153 869 z m 324 -12 b 486 43 378 -12 447 43 b 514 -1 503 43 514 -35 l 514 257 b 324 -12 497 154 401 -12 z "},"ǝ":{"ha":557,"x_min":0,"x_max":0,"o":"m 361 411 b 35 186 165 410 35 319 b 235 -12 35 76 124 -12 b 133 174 169 -12 133 56 b 361 411 133 335 200 404 z m 43 438 b 233 707 60 540 156 707 b 71 651 179 707 110 651 b 43 696 54 651 43 729 z m 264 707 b 411 332 363 707 413 579 b 268 -12 410 100 364 -12 b 522 353 426 -12 522 126 b 264 707 522 576 429 707 z "},"ə":{"ha":557,"x_min":0,"x_max":0,"o":"m 361 411 b 35 186 165 410 35 319 b 235 -12 35 76 124 -12 b 133 174 169 -12 133 56 b 361 411 133 335 200 404 z m 43 438 b 233 707 60 540 156 707 b 71 651 179 707 110 651 b 43 696 54 651 43 729 z m 264 707 b 411 332 363 707 413 579 b 268 -12 410 100 364 -12 b 522 353 426 -12 522 126 b 264 707 522 576 429 707 z "},"ʒ":{"ha":632,"x_min":0,"x_max":0,"o":"m 286 -296 b 590 -46 436 -279 590 -207 b 217 246 590 115 433 232 b 572 479 439 260 572 343 b 343 696 572 592 481 681 b 461 522 421 683 461 626 b 144 246 461 382 388 257 l 113 244 l 150 244 b 479 -62 354 244 479 125 b 286 -296 479 -237 382 -281 z m 42 328 b 283 696 42 569 172 696 b 42 635 210 696 110 665 z m 47 -235 b 226 -296 47 -235 126 -296 b 47 72 140 -296 47 -169 z "},"ǯ":{"ha":632,"x_min":0,"x_max":0,"o":"m 286 -296 b 590 -46 436 -279 590 -207 b 217 246 590 115 433 232 b 572 479 439 260 572 343 b 343 696 572 592 481 681 b 461 522 421 683 461 626 b 144 246 461 382 388 257 l 113 244 l 150 244 b 479 -62 354 244 479 125 b 286 -296 479 -237 382 -281 z m 42 328 b 283 696 42 569 172 696 b 42 635 210 696 110 665 z m 47 -235 b 226 -296 47 -235 126 -296 b 47 72 140 -296 47 -169 z m 119 933 l 306 783 l 203 949 z m 328 783 l 513 933 l 431 949 z "},"f":{"ha":525,"x_min":0,"x_max":0,"o":"m 94 763 l 94 56 b 21 0 94 10 61 1 l 279 0 b 206 56 239 1 206 10 l 206 819 b 297 1054 206 997 228 1054 b 94 763 172 1054 94 940 z m 244 694 b 431 538 331 694 431 611 l 431 694 z m 343 1054 b 349 846 442 1035 444 910 l 525 964 b 343 1054 490 999 403 1043 z "},"g":{"ha":604,"x_min":0,"x_max":0,"o":"m 365 733 b 368 739 367 736 367 738 b 454 783 382 769 419 783 b 543 729 496 783 536 765 l 514 892 b 368 739 460 892 411 842 b 365 733 367 738 367 736 z m -14 -278 b 301 -357 47 -325 179 -357 b 518 -303 389 -357 471 -342 b 382 -342 482 -331 433 -342 b 111 -240 279 -342 165 -294 b 124 -83 58 -187 57 -161 b -14 -278 65 -140 1 -247 z m 56 414 b 288 129 56 242 140 129 b 164 419 207 129 164 242 b 288 707 164 597 207 707 b 56 414 142 707 56 588 z m 78 -10 b 275 -89 113 -78 190 -89 b 574 -143 397 -89 533 -64 b 550 -271 592 -178 585 -221 b 578 -67 600 -203 608 -126 b 383 18 542 4 465 18 b 218 13 328 18 269 13 b 85 64 157 13 106 21 b 86 157 68 97 68 119 b 78 -10 56 99 53 39 z m 324 707 b 446 428 404 707 444 600 b 325 129 449 242 404 129 b 557 414 468 129 557 239 b 324 707 557 588 471 707 z m 543 729 b 544 725 544 728 544 726 z "},"ğ":{"ha":604,"x_min":0,"x_max":0,"o":"m 365 733 b 368 739 367 736 367 738 b 454 783 382 769 419 783 b 543 729 496 783 536 765 l 514 892 b 368 739 460 892 411 842 b 365 733 367 738 367 736 z m -14 -278 b 301 -357 47 -325 179 -357 b 518 -303 389 -357 471 -342 b 382 -342 482 -331 433 -342 b 111 -240 279 -342 165 -294 b 124 -83 58 -187 57 -161 b -14 -278 65 -140 1 -247 z m 56 414 b 288 129 56 242 140 129 b 164 419 207 129 164 242 b 288 707 164 597 207 707 b 56 414 142 707 56 588 z m 78 -10 b 275 -89 113 -78 190 -89 b 574 -143 397 -89 533 -64 b 550 -271 592 -178 585 -221 b 578 -67 600 -203 608 -126 b 383 18 542 4 465 18 b 218 13 328 18 269 13 b 85 64 157 13 106 21 b 86 157 68 97 68 119 b 78 -10 56 99 53 39 z m 151 1142 b 299 951 169 1053 206 951 b 453 1135 392 951 422 1046 b 303 1019 424 1072 376 1019 b 151 1142 226 1019 172 1079 z m 324 707 b 446 428 404 707 444 600 b 325 129 449 242 404 129 b 557 414 468 129 557 239 b 324 707 557 588 471 707 z m 543 729 b 544 725 544 728 544 726 z "},"ǧ":{"ha":604,"x_min":0,"x_max":0,"o":"m 365 733 b 368 739 367 736 367 738 b 454 783 382 769 419 783 b 543 729 496 783 536 765 l 514 892 b 368 739 460 892 411 842 b 365 733 367 738 367 736 z m -14 -278 b 301 -357 47 -325 179 -357 b 518 -303 389 -357 471 -342 b 382 -342 482 -331 433 -342 b 111 -240 279 -342 165 -294 b 124 -83 58 -187 57 -161 b -14 -278 65 -140 1 -247 z m 56 414 b 288 129 56 242 140 129 b 164 419 207 129 164 242 b 288 707 164 597 207 707 b 56 414 142 707 56 588 z m 78 -10 b 275 -89 113 -78 190 -89 b 574 -143 397 -89 533 -64 b 550 -271 592 -178 585 -221 b 578 -67 600 -203 608 -126 b 383 18 542 4 465 18 b 218 13 328 18 269 13 b 85 64 157 13 106 21 b 86 157 68 97 68 119 b 78 -10 56 99 53 39 z m 106 1046 l 292 896 l 189 1061 z m 314 896 l 499 1046 l 417 1061 z m 324 707 b 446 428 404 707 444 600 b 325 129 449 242 404 129 b 557 414 468 129 557 239 b 324 707 557 588 471 707 z m 543 729 b 544 725 544 728 544 726 z "},"ĝ":{"ha":604,"x_min":0,"x_max":0,"o":"m 365 733 b 368 739 367 736 367 738 b 454 783 382 769 419 783 b 543 729 496 783 536 765 l 514 892 b 368 739 460 892 411 842 b 365 733 367 738 367 736 z m -14 -278 b 301 -357 47 -325 179 -357 b 518 -303 389 -357 471 -342 b 382 -342 482 -331 433 -342 b 111 -240 279 -342 165 -294 b 124 -83 58 -187 57 -161 b -14 -278 65 -140 1 -247 z m 56 414 b 288 129 56 242 140 129 b 164 419 207 129 164 242 b 288 707 164 597 207 707 b 56 414 142 707 56 588 z m 78 -10 b 275 -89 113 -78 190 -89 b 574 -143 397 -89 533 -64 b 550 -271 592 -178 585 -221 b 578 -67 600 -203 608 -126 b 383 18 542 4 465 18 b 218 13 328 18 269 13 b 85 64 157 13 106 21 b 86 157 68 97 68 119 b 78 -10 56 99 53 39 z m 106 967 l 189 951 l 292 1117 z m 314 1117 l 417 951 l 499 967 z m 324 707 b 446 428 404 707 444 600 b 325 129 449 242 404 129 b 557 414 468 129 557 239 b 324 707 557 588 471 707 z m 543 729 b 544 725 544 728 544 726 z "},"ģ":{"ha":604,"x_min":0,"x_max":0,"o":"m 365 733 b 368 739 367 736 367 738 b 454 783 382 769 419 783 b 543 729 496 783 536 765 l 514 892 b 368 739 460 892 411 842 b 365 733 367 738 367 736 z m -14 -278 b 301 -357 47 -325 179 -357 b 518 -303 389 -357 471 -342 b 382 -342 482 -331 433 -342 b 111 -240 279 -342 165 -294 b 124 -83 58 -187 57 -161 b -14 -278 65 -140 1 -247 z m 56 414 b 288 129 56 242 140 129 b 164 419 207 129 164 242 b 288 707 164 597 207 707 b 56 414 142 707 56 588 z m 78 -10 b 275 -89 113 -78 190 -89 b 574 -143 397 -89 533 -64 b 550 -271 592 -178 585 -221 b 578 -67 600 -203 608 -126 b 383 18 542 4 465 18 b 218 13 328 18 269 13 b 85 64 157 13 106 21 b 86 157 68 97 68 119 b 78 -10 56 99 53 39 z m 324 707 b 446 428 404 707 444 600 b 325 129 449 242 404 129 b 557 414 468 129 557 239 b 324 707 557 588 471 707 z m 388 1192 b 440 1136 388 1158 406 1136 b 492 1188 471 1136 492 1157 b 468 1233 492 1208 483 1225 b 522 1317 446 1247 482 1296 b 388 1192 446 1279 390 1244 z m 543 729 b 544 725 544 728 544 726 z "},"ġ":{"ha":604,"x_min":0,"x_max":0,"o":"m 365 733 b 368 739 367 736 367 738 b 454 783 382 769 419 783 b 543 729 496 783 536 765 l 514 892 b 368 739 460 892 411 842 b 365 733 367 738 367 736 z m -14 -278 b 301 -357 47 -325 179 -357 b 518 -303 389 -357 471 -342 b 382 -342 482 -331 433 -342 b 111 -240 279 -342 165 -294 b 124 -83 58 -187 57 -161 b -14 -278 65 -140 1 -247 z m 56 414 b 288 129 56 242 140 129 b 164 419 207 129 164 242 b 288 707 164 597 207 707 b 56 414 142 707 56 588 z m 78 -10 b 275 -89 113 -78 190 -89 b 574 -143 397 -89 533 -64 b 550 -271 592 -178 585 -221 b 578 -67 600 -203 608 -126 b 383 18 542 4 465 18 b 218 13 328 18 269 13 b 85 64 157 13 106 21 b 86 157 68 97 68 119 b 78 -10 56 99 53 39 z m 250 994 b 301 942 250 963 271 942 b 354 994 333 942 354 963 b 301 1046 354 1025 333 1046 b 250 994 271 1046 250 1025 z m 324 707 b 446 428 404 707 444 600 b 325 129 449 242 404 129 b 557 414 468 129 557 239 b 324 707 557 588 471 707 z m 543 729 b 544 725 544 728 544 726 z "},"ḡ":{"ha":604,"x_min":0,"x_max":0,"o":"m 365 733 b 368 739 367 736 367 738 b 454 783 382 769 419 783 b 543 729 496 783 536 765 l 514 892 b 368 739 460 892 411 842 b 365 733 367 738 367 736 z m -14 -278 b 301 -357 47 -325 179 -357 b 518 -303 389 -357 471 -342 b 382 -342 482 -331 433 -342 b 111 -240 279 -342 165 -294 b 124 -83 58 -187 57 -161 b -14 -278 65 -140 1 -247 z m 56 414 b 288 129 56 242 140 129 b 164 419 207 129 164 242 b 288 707 164 597 207 707 b 56 414 142 707 56 588 z m 78 -10 b 275 -89 113 -78 190 -89 b 574 -143 397 -89 533 -64 b 550 -271 592 -178 585 -221 b 578 -67 600 -203 608 -126 b 383 18 542 4 465 18 b 218 13 328 18 269 13 b 85 64 157 13 106 21 b 86 157 68 97 68 119 b 78 -10 56 99 53 39 z m 106 974 l 499 974 l 499 983 l 106 983 z m 324 707 b 446 428 404 707 444 600 b 325 129 449 242 404 129 b 557 414 468 129 557 239 b 324 707 557 588 471 707 z m 543 729 b 544 725 544 728 544 726 z "},"ǥ":{"ha":604,"x_min":0,"x_max":0,"o":"m 365 733 b 368 739 367 736 367 738 b 454 783 382 769 419 783 b 543 729 496 783 536 765 l 514 892 b 368 739 460 892 411 842 b 365 733 367 738 367 736 z m -14 -278 b 301 -357 47 -325 179 -357 b 518 -303 389 -357 471 -342 b 382 -342 482 -331 433 -342 b 111 -240 279 -342 165 -294 b 124 -83 58 -187 57 -161 b -14 -278 65 -140 1 -247 z m 56 414 b 288 129 56 242 140 129 b 164 419 207 129 164 242 b 288 707 164 597 207 707 b 56 414 142 707 56 588 z m 78 -10 b 275 -89 113 -78 190 -89 b 574 -143 397 -89 533 -64 b 550 -271 592 -178 585 -221 b 578 -67 600 -203 608 -126 b 383 18 542 4 465 18 b 218 13 328 18 269 13 b 85 64 157 13 106 21 b 86 157 68 97 68 119 b 78 -10 56 99 53 39 z m 263 399 l 446 399 b 325 129 444 231 400 129 b 557 399 464 129 551 232 l 656 399 l 656 408 l 557 408 l 557 414 b 324 707 557 588 471 707 b 446 428 404 707 444 600 l 446 408 l 263 408 z m 543 729 b 544 725 544 728 544 726 z "},"h":{"ha":686,"x_min":0,"x_max":0,"o":"m 94 956 l 94 56 b 21 0 94 10 61 1 l 279 0 b 206 56 239 1 206 10 l 206 1051 l 21 1001 b 57 1006 33 1004 46 1006 b 94 956 79 1006 94 996 z m 263 660 b 379 700 308 688 347 700 b 494 458 457 700 494 621 l 494 56 b 421 0 494 10 461 1 l 679 0 b 606 56 639 1 606 10 l 606 439 b 410 707 606 607 524 707 b 263 660 364 707 314 692 z "},"ħ":{"ha":686,"x_min":0,"x_max":0,"o":"m 94 956 l 94 854 l 8 854 l 8 844 l 94 844 l 94 56 b 21 0 94 10 61 1 l 279 0 b 206 56 239 1 206 10 l 206 844 l 401 844 l 401 854 l 206 854 l 206 1051 l 21 1001 b 57 1006 33 1004 46 1006 b 94 956 79 1006 94 996 z m 263 660 b 379 700 308 688 347 700 b 494 458 457 700 494 621 l 494 56 b 421 0 494 10 461 1 l 679 0 b 606 56 639 1 606 10 l 606 439 b 410 707 606 607 524 707 b 263 660 364 707 314 692 z "},"ḫ":{"ha":686,"x_min":0,"x_max":0,"o":"m 94 956 l 94 56 b 21 0 94 10 61 1 l 279 0 b 206 56 239 1 206 10 l 206 1051 l 21 1001 b 57 1006 33 1004 46 1006 b 94 956 79 1006 94 996 z m 192 -182 b 339 -372 210 -271 246 -372 b 493 -189 432 -372 463 -278 b 343 -304 464 -251 417 -304 b 192 -182 267 -304 213 -244 z m 263 660 b 379 700 308 688 347 700 b 494 458 457 700 494 621 l 494 56 b 421 0 494 10 461 1 l 679 0 b 606 56 639 1 606 10 l 606 439 b 410 707 606 607 524 707 b 263 660 364 707 314 692 z "},"ĥ":{"ha":686,"x_min":0,"x_max":0,"o":"m 94 956 l 94 56 b 21 0 94 10 61 1 l 279 0 b 206 56 239 1 206 10 l 206 1051 l 21 1001 b 57 1006 33 1004 46 1006 b 94 956 79 1006 94 996 z m 146 1201 l 229 1186 l 332 1351 z m 263 660 b 379 700 308 688 347 700 b 494 458 457 700 494 621 l 494 56 b 421 0 494 10 461 1 l 679 0 b 606 56 639 1 606 10 l 606 439 b 410 707 606 607 524 707 b 263 660 364 707 314 692 z m 354 1351 l 457 1186 l 539 1201 z "},"ḥ":{"ha":686,"x_min":0,"x_max":0,"o":"m 94 956 l 94 56 b 21 0 94 10 61 1 l 279 0 b 206 56 239 1 206 10 l 206 1051 l 21 1001 b 57 1006 33 1004 46 1006 b 94 956 79 1006 94 996 z m 263 660 b 379 700 308 688 347 700 b 494 458 457 700 494 621 l 494 56 b 421 0 494 10 461 1 l 679 0 b 606 56 639 1 606 10 l 606 439 b 410 707 606 607 524 707 b 263 660 364 707 314 692 z m 292 -187 b 344 -239 292 -218 313 -239 b 396 -187 375 -239 396 -218 b 344 -135 396 -156 375 -135 b 292 -187 313 -135 292 -156 z "},"ẖ":{"ha":686,"x_min":0,"x_max":0,"o":"m 94 956 l 94 56 b 21 0 94 10 61 1 l 279 0 b 206 56 239 1 206 10 l 206 1051 l 21 1001 b 57 1006 33 1004 46 1006 b 94 956 79 1006 94 996 z m 147 -176 l 540 -176 l 540 -167 l 147 -167 z m 263 660 b 379 700 308 688 347 700 b 494 458 457 700 494 621 l 494 56 b 421 0 494 10 461 1 l 679 0 b 606 56 639 1 606 10 l 606 439 b 410 707 606 607 524 707 b 263 660 364 707 314 692 z "},"i":{"ha":300,"x_min":0,"x_max":0,"o":"m 75 881 b 143 813 75 839 101 813 b 210 881 183 813 210 839 b 143 947 210 921 183 947 b 75 881 101 947 75 921 z m 21 0 l 279 0 b 206 56 239 1 206 10 l 206 704 l 21 654 b 57 658 33 657 46 658 b 94 608 79 658 94 649 l 94 56 b 21 0 94 10 61 1 z "},"ı":{"ha":300,"x_min":0,"x_max":0,"o":"m 206 56 l 206 704 l 21 654 b 57 658 33 657 46 658 b 94 608 79 658 94 649 l 94 56 b 21 0 94 10 61 1 l 279 0 b 206 56 239 1 206 10 z "},"í":{"ha":300,"x_min":0,"x_max":0,"o":"m 206 56 l 206 704 l 21 654 b 57 658 33 657 46 658 b 94 608 79 658 94 649 l 94 56 b 21 0 94 10 61 1 l 279 0 b 206 56 239 1 206 10 z m 58 813 l 242 969 l 126 1000 z "},"ǐ":{"ha":300,"x_min":0,"x_max":0,"o":"m 206 56 l 206 704 l 21 654 b 57 658 33 657 46 658 b 94 608 79 658 94 649 l 94 56 b 21 0 94 10 61 1 l 279 0 b 206 56 239 1 206 10 z m -47 933 l 139 783 l 36 949 z m 161 783 l 346 933 l 264 949 z "},"î":{"ha":300,"x_min":0,"x_max":0,"o":"m 206 56 l 206 704 l 21 654 b 57 658 33 657 46 658 b 94 608 79 658 94 649 l 94 56 b 21 0 94 10 61 1 l 279 0 b 206 56 239 1 206 10 z m -47 854 l 36 839 l 139 1004 z m 161 1004 l 264 839 l 346 854 z "},"ï":{"ha":300,"x_min":0,"x_max":0,"o":"m 206 56 l 206 704 l 21 654 b 57 658 33 657 46 658 b 94 608 79 658 94 649 l 94 56 b 21 0 94 10 61 1 l 279 0 b 206 56 239 1 206 10 z m 3 883 b 54 831 3 851 24 831 b 107 883 86 831 107 851 b 54 935 107 914 86 935 b 3 883 24 935 3 914 z m 193 883 b 244 831 193 851 214 831 b 297 883 276 831 297 851 b 244 935 297 914 276 935 b 193 883 214 935 193 914 z "},"ḯ":{"ha":300,"x_min":0,"x_max":0,"o":"m 206 56 l 206 704 l 21 654 b 57 658 33 657 46 658 b 94 608 79 658 94 649 l 94 56 b 21 0 94 10 61 1 l 279 0 b 206 56 239 1 206 10 z m 3 883 b 54 831 3 851 24 831 b 107 883 86 831 107 851 b 54 935 107 914 86 935 b 3 883 24 935 3 914 z m 58 1053 l 242 1210 l 126 1240 z m 193 883 b 244 831 193 851 214 831 b 297 883 276 831 297 851 b 244 935 297 914 276 935 b 193 883 214 935 193 914 z "},"ị":{"ha":300,"x_min":0,"x_max":0,"o":"m 75 881 b 143 813 75 839 101 813 b 210 881 183 813 210 839 b 143 947 210 921 183 947 b 75 881 101 947 75 921 z m 21 0 l 279 0 b 206 56 239 1 206 10 l 206 704 l 21 654 b 57 658 33 657 46 658 b 94 608 79 658 94 649 l 94 56 b 21 0 94 10 61 1 z m 99 -187 b 151 -239 99 -218 119 -239 b 203 -187 182 -239 203 -218 b 151 -135 203 -156 182 -135 b 99 -187 119 -135 99 -156 z "},"ì":{"ha":300,"x_min":0,"x_max":0,"o":"m 206 56 l 206 704 l 21 654 b 57 658 33 657 46 658 b 94 608 79 658 94 649 l 94 56 b 21 0 94 10 61 1 l 279 0 b 206 56 239 1 206 10 z m 58 969 l 242 813 l 174 1000 z "},"ỉ":{"ha":300,"x_min":0,"x_max":0,"o":"m 206 56 l 206 704 l 21 654 b 57 658 33 657 46 658 b 94 608 79 658 94 649 l 94 56 b 21 0 94 10 61 1 l 279 0 b 206 56 239 1 206 10 z m 82 804 b 217 929 158 842 214 876 b 164 985 217 963 199 985 b 113 933 133 985 113 964 b 136 888 113 913 121 896 b 82 804 158 874 122 825 z "},"ĳ":{"ha":621,"x_min":0,"x_max":0,"o":"m 75 881 b 143 813 75 839 101 813 b 210 881 183 813 210 839 b 143 947 210 921 183 947 b 75 881 101 947 75 921 z m 21 0 l 279 0 b 206 56 239 1 206 10 l 206 704 l 21 654 b 57 658 33 657 46 658 b 94 608 79 658 94 649 l 94 56 b 21 0 94 10 61 1 z m 310 -357 b 533 -114 485 -357 532 -251 l 533 704 l 349 654 b 385 658 361 657 374 658 b 422 608 407 658 422 649 l 422 -64 b 310 -357 421 -183 436 -357 z m 399 881 b 467 813 399 839 425 813 b 533 881 507 813 533 839 b 467 947 533 921 507 947 b 399 881 425 947 399 921 z "},"ī":{"ha":300,"x_min":0,"x_max":0,"o":"m 206 56 l 206 704 l 21 654 b 57 658 33 657 46 658 b 94 608 79 658 94 649 l 94 56 b 21 0 94 10 61 1 l 279 0 b 206 56 239 1 206 10 z m -47 861 l 346 861 l 346 871 l -47 871 z "},"į":{"ha":300,"x_min":0,"x_max":0,"o":"m 206 56 l 206 704 l 21 654 b 57 658 33 657 46 658 b 94 608 79 658 94 649 l 94 56 b 21 0 94 10 61 1 l 160 0 b 126 -62 139 -12 126 -33 b 269 -164 126 -121 175 -164 b 179 -61 203 -162 179 -124 b 193 0 179 -32 183 -12 l 279 0 b 206 56 239 1 206 10 z m 97 882 b 149 829 97 850 118 829 b 201 882 181 829 201 850 b 149 933 201 913 181 933 b 97 882 118 933 97 913 z "},"ɩ":{"ha":300,"x_min":0,"x_max":0,"o":"m 94 639 l 94 -10 l 279 40 b 243 36 267 38 254 36 b 206 86 221 36 206 46 l 206 639 b 279 694 206 685 239 693 l 21 694 b 94 639 61 693 94 685 z "},"ĩ":{"ha":300,"x_min":0,"x_max":0,"o":"m 206 56 l 206 704 l 21 654 b 57 658 33 657 46 658 b 94 608 79 658 94 649 l 94 56 b 21 0 94 10 61 1 l 279 0 b 206 56 239 1 206 10 z m 0 781 b 86 861 6 847 19 861 l 181 861 b 299 975 240 861 299 869 b 164 915 299 900 207 915 l 107 915 b 0 781 38 915 0 869 z "},"j":{"ha":332,"x_min":0,"x_max":0,"o":"m 110 881 b 178 813 110 839 136 813 b 244 881 218 813 244 839 b 178 947 244 921 218 947 b 110 881 136 947 110 921 z m 21 -357 b 244 -114 196 -357 243 -251 l 244 704 l 60 654 b 96 658 72 657 85 658 b 133 608 118 658 133 649 l 133 -64 b 21 -357 132 -183 147 -357 z "},"ȷ":{"ha":332,"x_min":0,"x_max":0,"o":"m 133 608 l 133 -64 b 21 -357 132 -183 147 -357 b 244 -114 196 -357 243 -251 l 244 704 l 60 654 b 96 658 72 657 85 658 b 133 608 118 658 133 649 z "},"ĵ":{"ha":332,"x_min":0,"x_max":0,"o":"m 133 608 l 133 -64 b 21 -357 132 -183 147 -357 b 244 -114 196 -357 243 -251 l 244 704 l 60 654 b 96 658 72 657 85 658 b 133 608 118 658 133 649 z m -31 854 l 53 839 l 156 1004 z m 178 1004 l 281 839 l 363 854 z "},"k":{"ha":679,"x_min":0,"x_max":0,"o":"m 94 956 l 94 56 b 21 0 94 10 61 1 l 279 0 b 206 56 239 1 206 10 l 206 1051 l 21 1001 b 57 1006 33 1004 46 1006 b 94 956 79 1006 94 996 z m 278 363 l 479 0 l 679 0 b 565 67 625 0 592 19 l 344 469 z m 344 469 b 657 694 431 601 550 694 l 383 694 b 344 469 472 694 406 567 z "},"ǩ":{"ha":679,"x_min":0,"x_max":0,"o":"m 94 956 l 94 56 b 21 0 94 10 61 1 l 279 0 b 206 56 239 1 206 10 l 206 1051 l 21 1001 b 57 1006 33 1004 46 1006 b 94 956 79 1006 94 996 z m 143 1281 l 329 1131 l 226 1296 z m 278 363 l 479 0 l 679 0 b 565 67 625 0 592 19 l 344 469 z m 344 469 b 657 694 431 601 550 694 l 383 694 b 344 469 472 694 406 567 z m 351 1131 l 536 1281 l 454 1296 z "},"ķ":{"ha":679,"x_min":0,"x_max":0,"o":"m 94 956 l 94 56 b 21 0 94 10 61 1 l 279 0 b 206 56 239 1 206 10 l 206 1051 l 21 1001 b 57 1006 33 1004 46 1006 b 94 956 79 1006 94 996 z m 278 363 l 479 0 l 679 0 b 565 67 625 0 592 19 l 344 469 z m 281 -94 l 336 -279 l 344 -279 l 400 -94 z m 344 469 b 657 694 431 601 550 694 l 383 694 b 344 469 472 694 406 567 z "},"ĸ":{"ha":679,"x_min":0,"x_max":0,"o":"m 94 608 l 94 56 b 21 0 94 10 61 1 l 279 0 b 206 56 239 1 206 10 l 206 704 l 21 654 b 57 658 33 657 46 658 b 94 608 79 658 94 649 z m 278 363 l 479 0 l 679 0 b 565 67 625 0 592 19 l 344 469 z m 344 469 b 657 694 431 601 550 694 l 383 694 b 344 469 472 694 406 567 z "},"ḵ":{"ha":679,"x_min":0,"x_max":0,"o":"m 94 956 l 94 56 b 21 0 94 10 61 1 l 279 0 b 206 56 239 1 206 10 l 206 1051 l 21 1001 b 57 1006 33 1004 46 1006 b 94 956 79 1006 94 996 z m 144 -176 l 538 -176 l 538 -167 l 144 -167 z m 278 363 l 479 0 l 679 0 b 565 67 625 0 592 19 l 344 469 z m 344 469 b 657 694 431 601 550 694 l 383 694 b 344 469 472 694 406 567 z "},"l":{"ha":300,"x_min":0,"x_max":0,"o":"m 94 956 l 94 56 b 21 0 94 10 61 1 l 279 0 b 206 56 239 1 206 10 l 206 1051 l 21 1001 b 57 1006 33 1004 46 1006 b 94 956 79 1006 94 996 z "},"ĺ":{"ha":300,"x_min":0,"x_max":0,"o":"m 94 956 l 94 56 b 21 0 94 10 61 1 l 279 0 b 206 56 239 1 206 10 l 206 1051 l 21 1001 b 57 1006 33 1004 46 1006 b 94 956 79 1006 94 996 z m 58 1160 l 242 1317 l 126 1347 z "},"ľ":{"ha":300,"x_min":0,"x_max":0,"o":"m 94 956 l 94 56 b 21 0 94 10 61 1 l 279 0 b 206 56 239 1 206 10 l 206 1051 l 21 1001 b 57 1006 33 1004 46 1006 b 94 956 79 1006 94 996 z m 300 804 b 435 929 376 842 432 876 b 382 985 435 963 417 985 b 331 933 351 985 331 964 b 354 888 331 913 339 896 b 300 804 376 874 340 825 z "},"ḽ":{"ha":300,"x_min":0,"x_max":0,"o":"m 94 956 l 94 56 b 21 0 94 10 61 1 l 279 0 b 206 56 239 1 206 10 l 206 1051 l 21 1001 b 57 1006 33 1004 46 1006 b 94 956 79 1006 94 996 z m -46 -239 l 36 -254 l 139 -89 z m 161 -89 l 264 -254 l 347 -239 z "},"ļ":{"ha":300,"x_min":0,"x_max":0,"o":"m 94 956 l 94 56 b 21 0 94 10 61 1 l 279 0 b 206 56 239 1 206 10 l 206 1051 l 21 1001 b 57 1006 33 1004 46 1006 b 94 956 79 1006 94 996 z m 90 -94 l 146 -279 l 154 -279 l 210 -94 z "},"ḷ":{"ha":300,"x_min":0,"x_max":0,"o":"m 94 956 l 94 56 b 21 0 94 10 61 1 l 279 0 b 206 56 239 1 206 10 l 206 1051 l 21 1001 b 57 1006 33 1004 46 1006 b 94 956 79 1006 94 996 z m 99 -187 b 151 -239 99 -218 119 -239 b 203 -187 182 -239 203 -218 b 151 -135 203 -156 182 -135 b 99 -187 119 -135 99 -156 z "},"ḹ":{"ha":300,"x_min":0,"x_max":0,"o":"m 94 956 l 94 56 b 21 0 94 10 61 1 l 279 0 b 206 56 239 1 206 10 l 206 1051 l 21 1001 b 57 1006 33 1004 46 1006 b 94 956 79 1006 94 996 z m -47 1208 l 346 1208 l 346 1218 l -47 1218 z m 99 -187 b 151 -239 99 -218 119 -239 b 203 -187 182 -239 203 -218 b 151 -135 203 -156 182 -135 b 99 -187 119 -135 99 -156 z "},"ḻ":{"ha":300,"x_min":0,"x_max":0,"o":"m 94 956 l 94 56 b 21 0 94 10 61 1 l 279 0 b 206 56 239 1 206 10 l 206 1051 l 21 1001 b 57 1006 33 1004 46 1006 b 94 956 79 1006 94 996 z m -46 -176 l 347 -176 l 347 -167 l -46 -167 z "},"ł":{"ha":300,"x_min":0,"x_max":0,"o":"m 94 667 l 94 56 b 21 0 94 10 -19 0 l 279 0 b 206 56 319 0 206 10 l 206 703 l 326 742 l 326 751 l 206 713 l 206 1051 l 21 1001 b 57 1006 8 999 46 1006 b 94 956 79 1006 94 996 l 94 676 l -47 631 l -47 621 z "},"m":{"ha":1019,"x_min":0,"x_max":0,"o":"m 269 660 b 368 700 308 686 340 700 b 471 458 436 700 471 619 l 471 56 b 397 0 471 10 438 1 l 656 0 b 582 56 615 1 582 10 l 582 439 b 397 708 582 604 501 708 b 269 660 357 708 314 693 z m 21 0 l 279 0 b 206 56 239 1 206 10 l 206 704 l 21 654 b 57 658 33 657 46 658 b 94 608 79 658 94 649 l 94 56 b 21 0 94 10 61 1 z m 603 644 b 724 699 650 681 690 699 b 828 458 792 699 828 621 l 828 56 b 754 0 828 10 794 1 l 1013 0 b 939 56 972 1 939 10 l 939 439 b 753 707 939 607 858 707 b 603 644 706 707 654 688 z "},"ḿ":{"ha":1019,"x_min":0,"x_max":0,"o":"m 269 660 b 368 700 308 686 340 700 b 471 458 436 700 471 619 l 471 56 b 397 0 471 10 438 1 l 656 0 b 582 56 615 1 582 10 l 582 439 b 397 708 582 604 501 708 b 269 660 357 708 314 693 z m 21 0 l 279 0 b 206 56 239 1 206 10 l 206 704 l 21 654 b 57 658 33 657 46 658 b 94 608 79 658 94 649 l 94 56 b 21 0 94 10 61 1 z m 418 813 l 601 969 l 486 1000 z m 603 644 b 724 699 650 681 690 699 b 828 458 792 699 828 621 l 828 56 b 754 0 828 10 794 1 l 1013 0 b 939 56 972 1 939 10 l 939 439 b 753 707 939 607 858 707 b 603 644 706 707 654 688 z "},"ṁ":{"ha":1019,"x_min":0,"x_max":0,"o":"m 269 660 b 368 700 308 686 340 700 b 471 458 436 700 471 619 l 471 56 b 397 0 471 10 438 1 l 656 0 b 582 56 615 1 582 10 l 582 439 b 397 708 582 604 501 708 b 269 660 357 708 314 693 z m 21 0 l 279 0 b 206 56 239 1 206 10 l 206 704 l 21 654 b 57 658 33 657 46 658 b 94 608 79 658 94 649 l 94 56 b 21 0 94 10 61 1 z m 457 882 b 508 829 457 850 478 829 b 561 882 540 829 561 850 b 508 933 561 913 540 933 b 457 882 478 933 457 913 z m 603 644 b 724 699 650 681 690 699 b 828 458 792 699 828 621 l 828 56 b 754 0 828 10 794 1 l 1013 0 b 939 56 972 1 939 10 l 939 439 b 753 707 939 607 858 707 b 603 644 706 707 654 688 z "},"ṃ":{"ha":1019,"x_min":0,"x_max":0,"o":"m 269 660 b 368 700 308 686 340 700 b 471 458 436 700 471 619 l 471 56 b 397 0 471 10 438 1 l 656 0 b 582 56 615 1 582 10 l 582 439 b 397 708 582 604 501 708 b 269 660 357 708 314 693 z m 21 0 l 279 0 b 206 56 239 1 206 10 l 206 704 l 21 654 b 57 658 33 657 46 658 b 94 608 79 658 94 649 l 94 56 b 21 0 94 10 61 1 z m 458 -187 b 511 -239 458 -218 479 -239 b 563 -187 542 -239 563 -218 b 511 -135 563 -156 542 -135 b 458 -187 479 -135 458 -156 z m 603 644 b 724 699 650 681 690 699 b 828 458 792 699 828 621 l 828 56 b 754 0 828 10 794 1 l 1013 0 b 939 56 972 1 939 10 l 939 439 b 753 707 939 607 858 707 b 603 644 706 707 654 688 z "},"n":{"ha":686,"x_min":0,"x_max":0,"o":"m 263 660 b 379 700 308 688 347 700 b 494 458 457 700 494 621 l 494 56 b 421 0 494 10 461 1 l 679 0 b 606 56 639 1 606 10 l 606 439 b 410 707 606 607 524 707 b 263 660 364 707 314 692 z m 21 0 l 279 0 b 206 56 239 1 206 10 l 206 704 l 21 654 b 57 658 33 657 46 658 b 94 608 79 658 94 649 l 94 56 b 21 0 94 10 61 1 z "},"ń":{"ha":686,"x_min":0,"x_max":0,"o":"m 263 660 b 379 700 308 688 347 700 b 494 458 457 700 494 621 l 494 56 b 421 0 494 10 461 1 l 679 0 b 606 56 639 1 606 10 l 606 439 b 410 707 606 607 524 707 b 263 660 364 707 314 692 z m 21 0 l 279 0 b 206 56 239 1 206 10 l 206 704 l 21 654 b 57 658 33 657 46 658 b 94 608 79 658 94 649 l 94 56 b 21 0 94 10 61 1 z m 251 813 l 435 969 l 319 1000 z "},"ň":{"ha":686,"x_min":0,"x_max":0,"o":"m 263 660 b 379 700 308 688 347 700 b 494 458 457 700 494 621 l 494 56 b 421 0 494 10 461 1 l 679 0 b 606 56 639 1 606 10 l 606 439 b 410 707 606 607 524 707 b 263 660 364 707 314 692 z m 21 0 l 279 0 b 206 56 239 1 206 10 l 206 704 l 21 654 b 57 658 33 657 46 658 b 94 608 79 658 94 649 l 94 56 b 21 0 94 10 61 1 z m 146 933 l 332 783 l 229 949 z m 354 783 l 539 933 l 457 949 z "},"ṋ":{"ha":686,"x_min":0,"x_max":0,"o":"m 263 660 b 379 700 308 688 347 700 b 494 458 457 700 494 621 l 494 56 b 421 0 494 10 461 1 l 679 0 b 606 56 639 1 606 10 l 606 439 b 410 707 606 607 524 707 b 263 660 364 707 314 692 z m 21 0 l 279 0 b 206 56 239 1 206 10 l 206 704 l 21 654 b 57 658 33 657 46 658 b 94 608 79 658 94 649 l 94 56 b 21 0 94 10 61 1 z m 147 -239 l 229 -254 l 332 -89 z m 354 -89 l 457 -254 l 540 -239 z "},"ņ":{"ha":686,"x_min":0,"x_max":0,"o":"m 263 660 b 379 700 308 688 347 700 b 494 458 457 700 494 621 l 494 56 b 421 0 494 10 461 1 l 679 0 b 606 56 639 1 606 10 l 606 439 b 410 707 606 607 524 707 b 263 660 364 707 314 692 z m 21 0 l 279 0 b 206 56 239 1 206 10 l 206 704 l 21 654 b 57 658 33 657 46 658 b 94 608 79 658 94 649 l 94 56 b 21 0 94 10 61 1 z m 283 -94 l 339 -279 l 347 -279 l 403 -94 z "},"ṅ":{"ha":686,"x_min":0,"x_max":0,"o":"m 263 660 b 379 700 308 688 347 700 b 494 458 457 700 494 621 l 494 56 b 421 0 494 10 461 1 l 679 0 b 606 56 639 1 606 10 l 606 439 b 410 707 606 607 524 707 b 263 660 364 707 314 692 z m 21 0 l 279 0 b 206 56 239 1 206 10 l 206 704 l 21 654 b 57 658 33 657 46 658 b 94 608 79 658 94 649 l 94 56 b 21 0 94 10 61 1 z m 290 882 b 342 829 290 850 311 829 b 394 882 374 829 394 850 b 342 933 394 913 374 933 b 290 882 311 933 290 913 z "},"ṇ":{"ha":686,"x_min":0,"x_max":0,"o":"m 263 660 b 379 700 308 688 347 700 b 494 458 457 700 494 621 l 494 56 b 421 0 494 10 461 1 l 679 0 b 606 56 639 1 606 10 l 606 439 b 410 707 606 607 524 707 b 263 660 364 707 314 692 z m 21 0 l 279 0 b 206 56 239 1 206 10 l 206 704 l 21 654 b 57 658 33 657 46 658 b 94 608 79 658 94 649 l 94 56 b 21 0 94 10 61 1 z m 292 -187 b 344 -239 292 -218 313 -239 b 396 -187 375 -239 396 -218 b 344 -135 396 -156 375 -135 b 292 -187 313 -135 292 -156 z "},"ṉ":{"ha":686,"x_min":0,"x_max":0,"o":"m 263 660 b 379 700 308 688 347 700 b 494 458 457 700 494 621 l 494 56 b 421 0 494 10 461 1 l 679 0 b 606 56 639 1 606 10 l 606 439 b 410 707 606 607 524 707 b 263 660 364 707 314 692 z m 21 0 l 279 0 b 206 56 239 1 206 10 l 206 704 l 21 654 b 57 658 33 657 46 658 b 94 608 79 658 94 649 l 94 56 b 21 0 94 10 61 1 z m 147 -176 l 540 -176 l 540 -167 l 147 -167 z "},"ñ":{"ha":686,"x_min":0,"x_max":0,"o":"m 263 660 b 379 700 308 688 347 700 b 494 458 457 700 494 621 l 494 56 b 421 0 494 10 461 1 l 679 0 b 606 56 639 1 606 10 l 606 439 b 410 707 606 607 524 707 b 263 660 364 707 314 692 z m 21 0 l 279 0 b 206 56 239 1 206 10 l 206 704 l 21 654 b 57 658 33 657 46 658 b 94 608 79 658 94 649 l 94 56 b 21 0 94 10 61 1 z m 193 781 b 279 861 199 847 213 861 l 374 861 b 492 975 433 861 492 869 b 357 915 492 900 400 915 l 300 915 b 193 781 231 915 193 869 z "},"ŋ":{"ha":1004,"x_min":0,"x_max":0,"o":"m 263 660 b 379 700 308 688 347 700 b 494 458 457 700 494 621 l 494 -64 b 382 -357 494 -183 508 -357 b 606 -114 557 -357 606 -251 l 606 439 b 410 707 606 607 524 707 b 263 660 364 707 314 692 z m 21 0 l 279 0 b 206 56 324 0 206 10 l 206 704 l 21 654 b 57 658 35 657 46 658 b 94 608 79 658 94 649 l 94 56 b 21 0 94 10 -15 0 z "},"o":{"ha":632,"x_min":0,"x_max":0,"o":"m 297 -10 b 146 357 197 -10 144 118 b 297 707 147 585 197 707 b 35 347 131 707 35 572 b 297 -10 35 121 131 -10 z m 333 707 b 486 354 433 707 485 585 b 335 -10 488 118 435 -10 b 597 346 501 -10 597 121 b 333 707 597 572 500 707 z "},"ó":{"ha":632,"x_min":0,"x_max":0,"o":"m 297 -10 b 146 357 197 -10 144 118 b 297 707 147 585 197 707 b 35 347 131 707 35 572 b 297 -10 35 121 131 -10 z m 225 813 l 408 969 l 293 1000 z m 333 707 b 486 354 433 707 485 585 b 335 -10 488 118 435 -10 b 597 346 501 -10 597 121 b 333 707 597 572 500 707 z "},"ǒ":{"ha":632,"x_min":0,"x_max":0,"o":"m 297 -10 b 146 357 197 -10 144 118 b 297 707 147 585 197 707 b 35 347 131 707 35 572 b 297 -10 35 121 131 -10 z m 119 933 l 306 783 l 203 949 z m 328 783 l 513 933 l 431 949 z m 333 707 b 486 354 433 707 485 585 b 335 -10 488 118 435 -10 b 597 346 501 -10 597 121 b 333 707 597 572 500 707 z "},"ô":{"ha":632,"x_min":0,"x_max":0,"o":"m 297 -10 b 146 357 197 -10 144 118 b 297 707 147 585 197 707 b 35 347 131 707 35 572 b 297 -10 35 121 131 -10 z m 119 854 l 203 839 l 306 1004 z m 328 1004 l 431 839 l 513 854 z m 333 707 b 486 354 433 707 485 585 b 335 -10 488 118 435 -10 b 597 346 501 -10 597 121 b 333 707 597 572 500 707 z "},"ố":{"ha":632,"x_min":0,"x_max":0,"o":"m 297 -10 b 146 357 197 -10 144 118 b 297 707 147 585 197 707 b 35 347 131 707 35 572 b 297 -10 35 121 131 -10 z m 119 854 l 203 839 l 306 1004 z m 225 1122 l 408 1279 l 293 1310 z m 328 1004 l 431 839 l 513 854 z m 333 707 b 486 354 433 707 485 585 b 335 -10 488 118 435 -10 b 597 346 501 -10 597 121 b 333 707 597 572 500 707 z "},"ộ":{"ha":632,"x_min":0,"x_max":0,"o":"m 297 -10 b 146 357 197 -10 144 118 b 297 707 147 585 197 707 b 35 347 131 707 35 572 b 297 -10 35 121 131 -10 z m 119 854 l 203 839 l 306 1004 z m 265 -187 b 318 -239 265 -218 286 -239 b 369 -187 349 -239 369 -218 b 318 -135 369 -156 349 -135 b 265 -187 286 -135 265 -156 z m 328 1004 l 431 839 l 513 854 z m 333 707 b 486 354 433 707 485 585 b 335 -10 488 118 435 -10 b 597 346 501 -10 597 121 b 333 707 597 572 500 707 z "},"ồ":{"ha":632,"x_min":0,"x_max":0,"o":"m 297 -10 b 146 357 197 -10 144 118 b 297 707 147 585 197 707 b 35 347 131 707 35 572 b 297 -10 35 121 131 -10 z m 119 854 l 203 839 l 306 1004 z m 225 1279 l 408 1122 l 340 1310 z m 328 1004 l 431 839 l 513 854 z m 333 707 b 486 354 433 707 485 585 b 335 -10 488 118 435 -10 b 597 346 501 -10 597 121 b 333 707 597 572 500 707 z "},"ổ":{"ha":632,"x_min":0,"x_max":0,"o":"m 297 -10 b 146 357 197 -10 144 118 b 297 707 147 585 197 707 b 35 347 131 707 35 572 b 297 -10 35 121 131 -10 z m 119 854 l 203 839 l 306 1004 z m 249 1114 b 383 1239 325 1151 381 1186 b 331 1294 383 1272 365 1294 b 279 1243 300 1294 279 1274 b 303 1197 279 1222 288 1206 b 249 1114 325 1183 289 1135 z m 328 1004 l 431 839 l 513 854 z m 333 707 b 486 354 433 707 485 585 b 335 -10 488 118 435 -10 b 597 346 501 -10 597 121 b 333 707 597 572 500 707 z "},"ỗ":{"ha":632,"x_min":0,"x_max":0,"o":"m 297 -10 b 146 357 197 -10 144 118 b 297 707 147 585 197 707 b 35 347 131 707 35 572 b 297 -10 35 121 131 -10 z m 119 854 l 203 839 l 306 1004 z m 167 1090 b 253 1171 172 1157 186 1171 l 347 1171 b 465 1285 407 1171 465 1179 b 331 1225 465 1210 374 1225 l 274 1225 b 167 1090 204 1225 167 1179 z m 328 1004 l 431 839 l 513 854 z m 333 707 b 486 354 433 707 485 585 b 335 -10 488 118 435 -10 b 597 346 501 -10 597 121 b 333 707 597 572 500 707 z "},"ö":{"ha":632,"x_min":0,"x_max":0,"o":"m 297 -10 b 146 357 197 -10 144 118 b 297 707 147 585 197 707 b 35 347 131 707 35 572 b 297 -10 35 121 131 -10 z m 169 883 b 221 831 169 851 190 831 b 274 883 253 831 274 851 b 221 935 274 914 253 935 b 169 883 190 935 169 914 z m 333 707 b 486 354 433 707 485 585 b 335 -10 488 118 435 -10 b 597 346 501 -10 597 121 b 333 707 597 572 500 707 z m 360 883 b 411 831 360 851 381 831 b 464 883 443 831 464 851 b 411 935 464 914 443 935 b 360 883 381 935 360 914 z "},"ȫ":{"ha":632,"x_min":0,"x_max":0,"o":"m 297 -10 b 146 357 197 -10 144 118 b 297 707 147 585 197 707 b 35 347 131 707 35 572 b 297 -10 35 121 131 -10 z m 119 1101 l 513 1101 l 513 1111 l 119 1111 z m 169 883 b 221 831 169 851 190 831 b 274 883 253 831 274 851 b 221 935 274 914 253 935 b 169 883 190 935 169 914 z m 333 707 b 486 354 433 707 485 585 b 335 -10 488 118 435 -10 b 597 346 501 -10 597 121 b 333 707 597 572 500 707 z m 360 883 b 411 831 360 851 381 831 b 464 883 443 831 464 851 b 411 935 464 914 443 935 b 360 883 381 935 360 914 z "},"ọ":{"ha":632,"x_min":0,"x_max":0,"o":"m 297 -10 b 146 357 197 -10 144 118 b 297 707 147 585 197 707 b 35 347 131 707 35 572 b 297 -10 35 121 131 -10 z m 265 -187 b 318 -239 265 -218 286 -239 b 369 -187 349 -239 369 -218 b 318 -135 369 -156 349 -135 b 265 -187 286 -135 265 -156 z m 333 707 b 486 354 433 707 485 585 b 335 -10 488 118 435 -10 b 597 346 501 -10 597 121 b 333 707 597 572 500 707 z "},"ò":{"ha":632,"x_min":0,"x_max":0,"o":"m 297 -10 b 146 357 197 -10 144 118 b 297 707 147 585 197 707 b 35 347 131 707 35 572 b 297 -10 35 121 131 -10 z m 225 969 l 408 813 l 340 1000 z m 333 707 b 486 354 433 707 485 585 b 335 -10 488 118 435 -10 b 597 346 501 -10 597 121 b 333 707 597 572 500 707 z "},"ỏ":{"ha":632,"x_min":0,"x_max":0,"o":"m 297 -10 b 146 357 197 -10 144 118 b 297 707 147 585 197 707 b 35 347 131 707 35 572 b 297 -10 35 121 131 -10 z m 249 804 b 383 929 325 842 381 876 b 331 985 383 963 365 985 b 279 933 300 985 279 964 b 303 888 279 913 288 896 b 249 804 325 874 289 825 z m 333 707 b 486 354 433 707 485 585 b 335 -10 488 118 435 -10 b 597 346 501 -10 597 121 b 333 707 597 572 500 707 z "},"ơ":{"ha":632,"x_min":0,"x_max":0,"o":"m 297 -10 b 146 357 197 -10 144 118 b 297 707 147 585 197 707 b 35 347 131 707 35 572 b 297 -10 35 121 131 -10 z m 333 707 b 486 354 433 707 485 585 b 335 -10 488 118 435 -10 b 597 346 501 -10 597 121 b 511 632 597 472 567 571 b 692 940 674 703 738 801 l 600 915 b 511 632 636 782 622 707 b 333 707 467 681 407 707 z "},"ớ":{"ha":632,"x_min":0,"x_max":0,"o":"m 297 -10 b 146 357 197 -10 144 118 b 297 707 147 585 197 707 b 35 347 131 707 35 572 b 297 -10 35 121 131 -10 z m 225 813 l 408 969 l 293 1000 z m 333 707 b 486 354 433 707 485 585 b 335 -10 488 118 435 -10 b 597 346 501 -10 597 121 b 511 632 597 472 567 571 b 692 940 674 703 738 801 l 600 915 b 511 632 636 782 622 707 b 333 707 467 681 407 707 z "},"ợ":{"ha":632,"x_min":0,"x_max":0,"o":"m 297 -10 b 146 357 197 -10 144 118 b 297 707 147 585 197 707 b 35 347 131 707 35 572 b 297 -10 35 121 131 -10 z m 265 -187 b 318 -239 265 -218 286 -239 b 369 -187 349 -239 369 -218 b 318 -135 369 -156 349 -135 b 265 -187 286 -135 265 -156 z m 333 707 b 486 354 433 707 485 585 b 335 -10 488 118 435 -10 b 597 346 501 -10 597 121 b 511 632 597 472 567 571 b 692 940 674 703 738 801 l 600 915 b 511 632 636 782 622 707 b 333 707 467 681 407 707 z "},"ờ":{"ha":632,"x_min":0,"x_max":0,"o":"m 297 -10 b 146 357 197 -10 144 118 b 297 707 147 585 197 707 b 35 347 131 707 35 572 b 297 -10 35 121 131 -10 z m 225 969 l 408 813 l 340 1000 z m 333 707 b 486 354 433 707 485 585 b 335 -10 488 118 435 -10 b 597 346 501 -10 597 121 b 511 632 597 472 567 571 b 692 940 674 703 738 801 l 600 915 b 511 632 636 782 622 707 b 333 707 467 681 407 707 z "},"ở":{"ha":632,"x_min":0,"x_max":0,"o":"m 297 -10 b 146 357 197 -10 144 118 b 297 707 147 585 197 707 b 35 347 131 707 35 572 b 297 -10 35 121 131 -10 z m 249 804 b 383 929 325 842 381 876 b 331 985 383 963 365 985 b 279 933 300 985 279 964 b 303 888 279 913 288 896 b 249 804 325 874 289 825 z m 333 707 b 486 354 433 707 485 585 b 335 -10 488 118 435 -10 b 597 346 501 -10 597 121 b 511 632 597 472 567 571 b 692 940 674 703 738 801 l 600 915 b 511 632 636 782 622 707 b 333 707 467 681 407 707 z "},"ỡ":{"ha":632,"x_min":0,"x_max":0,"o":"m 297 -10 b 146 357 197 -10 144 118 b 297 707 147 585 197 707 b 35 347 131 707 35 572 b 297 -10 35 121 131 -10 z m 167 781 b 253 861 172 847 186 861 l 347 861 b 465 975 407 861 465 869 b 331 915 465 900 374 915 l 274 915 b 167 781 204 915 167 869 z m 333 707 b 486 354 433 707 485 585 b 335 -10 488 118 435 -10 b 597 346 501 -10 597 121 b 511 632 597 472 567 571 b 692 940 674 703 738 801 l 600 915 b 511 632 636 782 622 707 b 333 707 467 681 407 707 z "},"ő":{"ha":632,"x_min":0,"x_max":0,"o":"m 297 -10 b 146 357 197 -10 144 118 b 297 707 147 585 197 707 b 35 347 131 707 35 572 b 297 -10 35 121 131 -10 z m 92 813 l 275 969 l 160 1000 z m 333 707 b 486 354 433 707 485 585 b 335 -10 488 118 435 -10 b 597 346 501 -10 597 121 b 333 707 597 572 500 707 z m 358 813 l 542 969 l 426 1000 z "},"ō":{"ha":632,"x_min":0,"x_max":0,"o":"m 297 -10 b 146 357 197 -10 144 118 b 297 707 147 585 197 707 b 35 347 131 707 35 572 b 297 -10 35 121 131 -10 z m 119 861 l 513 861 l 513 871 l 119 871 z m 333 707 b 486 354 433 707 485 585 b 335 -10 488 118 435 -10 b 597 346 501 -10 597 121 b 333 707 597 572 500 707 z "},"ṓ":{"ha":632,"x_min":0,"x_max":0,"o":"m 297 -10 b 146 357 197 -10 144 118 b 297 707 147 585 197 707 b 35 347 131 707 35 572 b 297 -10 35 121 131 -10 z m 119 861 l 513 861 l 513 871 l 119 871 z m 225 989 l 408 1146 l 293 1176 z m 333 707 b 486 354 433 707 485 585 b 335 -10 488 118 435 -10 b 597 346 501 -10 597 121 b 333 707 597 572 500 707 z "},"ṑ":{"ha":632,"x_min":0,"x_max":0,"o":"m 297 -10 b 146 357 197 -10 144 118 b 297 707 147 585 197 707 b 35 347 131 707 35 572 b 297 -10 35 121 131 -10 z m 119 861 l 513 861 l 513 871 l 119 871 z m 225 1146 l 408 989 l 340 1176 z m 333 707 b 486 354 433 707 485 585 b 335 -10 488 118 435 -10 b 597 346 501 -10 597 121 b 333 707 597 572 500 707 z "},"ɔ":{"ha":606,"x_min":0,"x_max":0,"o":"m 64 679 l 64 438 b 271 706 81 540 193 706 b 92 639 215 706 133 639 b 64 679 75 639 64 649 z m 64 -1 b 96 43 64 32 76 43 b 271 -12 139 43 217 -12 b 64 257 193 -12 81 154 z m 307 -12 b 571 342 476 -12 571 117 b 317 706 571 568 475 706 b 460 363 413 706 458 594 b 307 -12 461 114 410 -12 z "},"ø":{"ha":632,"x_min":0,"x_max":0,"o":"m 297 -10 b 175 106 242 -10 200 29 l 451 606 b 486 354 474 546 486 463 b 335 -10 488 118 435 -10 b 597 346 501 -10 597 121 b 481 660 597 493 556 601 l 500 694 l 490 694 l 474 665 b 333 707 435 693 388 707 b 447 617 383 707 422 676 l 171 119 b 146 356 153 179 146 257 b 297 707 147 585 197 707 b 35 347 131 707 35 572 b 133 50 35 211 69 110 l 106 0 l 117 0 l 140 43 b 297 -10 182 8 235 -10 z "},"ǿ":{"ha":632,"x_min":0,"x_max":0,"o":"m 297 -10 b 175 106 242 -10 200 29 l 451 606 b 486 354 474 546 486 463 b 335 -10 488 118 435 -10 b 597 346 501 -10 597 121 b 481 660 597 493 556 601 l 500 694 l 490 694 l 474 665 b 333 707 435 693 388 707 b 447 617 383 707 422 676 l 171 119 b 146 356 153 179 146 257 b 297 707 147 585 197 707 b 35 347 131 707 35 572 b 133 50 35 211 69 110 l 106 0 l 117 0 l 140 43 b 297 -10 182 8 235 -10 z m 225 813 l 408 969 l 293 1000 z "},"õ":{"ha":632,"x_min":0,"x_max":0,"o":"m 297 -10 b 146 357 197 -10 144 118 b 297 707 147 585 197 707 b 35 347 131 707 35 572 b 297 -10 35 121 131 -10 z m 167 781 b 253 861 172 847 186 861 l 347 861 b 465 975 407 861 465 869 b 331 915 465 900 374 915 l 274 915 b 167 781 204 915 167 869 z m 333 707 b 486 354 433 707 485 585 b 335 -10 488 118 435 -10 b 597 346 501 -10 597 121 b 333 707 597 572 500 707 z "},"ṍ":{"ha":632,"x_min":0,"x_max":0,"o":"m 297 -10 b 146 357 197 -10 144 118 b 297 707 147 585 197 707 b 35 347 131 707 35 572 b 297 -10 35 121 131 -10 z m 167 781 b 253 861 172 847 186 861 l 347 861 b 465 975 407 861 465 869 b 331 915 465 900 374 915 l 274 915 b 167 781 204 915 167 869 z m 225 1061 l 408 1218 l 293 1249 z m 333 707 b 486 354 433 707 485 585 b 335 -10 488 118 435 -10 b 597 346 501 -10 597 121 b 333 707 597 572 500 707 z "},"œ":{"ha":996,"x_min":0,"x_max":0,"o":"m 297 -10 b 146 356 197 -10 144 118 b 297 707 147 585 197 707 b 35 347 131 707 35 572 b 297 -10 35 121 131 -10 z m 333 707 b 486 354 433 707 485 585 b 335 -10 488 118 435 -10 b 540 101 426 -10 496 29 b 746 -12 583 28 654 -12 b 599 363 647 -12 597 115 b 742 707 600 594 646 707 b 543 589 654 707 586 665 b 333 707 499 665 426 707 z m 649 283 b 975 508 844 285 975 375 b 775 707 975 618 886 707 b 876 521 840 707 876 639 b 649 283 876 360 810 290 z m 776 -12 b 939 43 831 -12 900 43 b 967 -1 956 43 967 32 l 967 257 b 776 -12 950 154 854 -12 z "},"p":{"ha":663,"x_min":0,"x_max":0,"o":"m 393 707 b 264 661 351 707 314 694 b 371 699 303 686 339 699 b 518 363 454 699 518 554 b 364 1 518 168 451 6 b 264 35 336 0 303 11 b 394 -12 321 0 356 -12 b 628 344 531 -12 628 136 b 393 707 628 554 529 707 z m 21 -347 l 279 -347 b 206 -292 239 -346 206 -337 l 206 704 b 21 682 94 685 88 681 b 94 625 81 676 94 681 l 94 -292 b 21 -347 94 -337 61 -346 z "},"þ":{"ha":690,"x_min":0,"x_max":0,"o":"m 115 871 l 115 -292 b 42 -347 115 -337 82 -346 l 300 -347 b 226 -292 260 -346 226 -337 l 226 871 b 300 926 226 917 260 925 l 42 926 b 115 871 82 925 115 917 z m 285 35 b 415 -12 342 0 376 -12 b 649 344 551 -12 649 136 b 414 707 649 554 550 707 b 285 661 372 707 335 694 b 392 699 324 686 360 699 b 539 363 475 699 539 554 b 385 1 539 168 472 6 b 285 35 357 0 324 11 z "},"q":{"ha":667,"x_min":0,"x_max":0,"o":"m 269 707 b 35 342 133 707 35 551 b 271 -12 35 133 132 -12 b 399 32 307 -12 342 -3 b 299 0 360 8 326 -1 b 144 360 211 4 144 165 b 292 699 144 551 208 699 b 399 658 321 699 357 685 b 269 707 347 693 310 707 z m 461 -356 b 646 -333 572 -336 579 -332 b 572 -276 586 -328 572 -332 l 572 704 b 506 615 565 650 543 615 b 461 629 493 615 478 619 z "},"r":{"ha":479,"x_min":0,"x_max":0,"o":"m 206 56 l 206 704 l 21 654 b 57 658 33 657 46 658 b 94 608 79 658 94 649 l 94 56 b 21 0 94 10 61 1 l 279 0 b 206 56 239 1 206 10 z m 258 624 l 260 624 b 294 636 272 632 283 636 b 413 418 361 636 422 514 l 444 694 b 258 624 396 693 307 660 z m 413 413 l 413 418 z "},"ŕ":{"ha":479,"x_min":0,"x_max":0,"o":"m 206 56 l 206 704 l 21 654 b 57 658 33 657 46 658 b 94 608 79 658 94 649 l 94 56 b 21 0 94 10 61 1 l 279 0 b 206 56 239 1 206 10 z m 149 813 l 332 969 l 217 1000 z m 258 624 l 260 624 b 294 636 272 632 283 636 b 413 418 361 636 422 514 l 444 694 b 258 624 396 693 307 660 z m 413 413 l 413 418 z "},"ř":{"ha":479,"x_min":0,"x_max":0,"o":"m 206 56 l 206 704 l 21 654 b 57 658 33 657 46 658 b 94 608 79 658 94 649 l 94 56 b 21 0 94 10 61 1 l 279 0 b 206 56 239 1 206 10 z m 43 933 l 229 783 l 126 949 z m 251 783 l 436 933 l 354 949 z m 258 624 l 260 624 b 294 636 272 632 283 636 b 413 418 361 636 422 514 l 444 694 b 258 624 396 693 307 660 z m 413 413 l 413 418 z "},"ŗ":{"ha":479,"x_min":0,"x_max":0,"o":"m 206 56 l 206 704 l 21 654 b 57 658 33 657 46 658 b 94 608 79 658 94 649 l 94 56 b 21 0 94 10 61 1 l 279 0 b 206 56 239 1 206 10 z m 181 -94 l 236 -279 l 244 -279 l 300 -94 z m 258 624 l 260 624 b 294 636 272 632 283 636 b 413 418 361 636 422 514 l 444 694 b 258 624 396 693 307 660 z m 413 413 l 413 418 z "},"ṝ":{"ha":479,"x_min":0,"x_max":0,"o":"m 206 56 l 206 704 l 21 654 b 57 658 33 657 46 658 b 94 608 79 658 94 649 l 94 56 b 21 0 94 10 61 1 l 279 0 b 206 56 239 1 206 10 z m 43 861 l 436 861 l 436 871 l 43 871 z m 189 -187 b 242 -239 189 -218 210 -239 b 293 -187 272 -239 293 -218 b 242 -135 293 -156 272 -135 b 189 -187 210 -135 189 -156 z m 258 624 l 260 624 b 294 636 272 632 283 636 b 413 418 361 636 422 514 l 444 694 b 258 624 396 693 307 660 z m 413 413 l 413 418 z "},"ṟ":{"ha":479,"x_min":0,"x_max":0,"o":"m 206 56 l 206 704 l 21 654 b 57 658 33 657 46 658 b 94 608 79 658 94 649 l 94 56 b 21 0 94 10 61 1 l 279 0 b 206 56 239 1 206 10 z m 44 -176 l 438 -176 l 438 -167 l 44 -167 z m 258 624 l 260 624 b 294 636 272 632 283 636 b 413 418 361 636 422 514 l 444 694 b 258 624 396 693 307 660 z m 413 413 l 413 418 z "},"s":{"ha":571,"x_min":0,"x_max":0,"o":"m 228 707 b 56 544 119 696 56 638 b 458 97 56 310 458 272 b 306 -10 458 33 404 -4 b 522 150 447 -4 522 51 b 119 603 522 378 119 414 b 228 707 119 661 157 697 z m 49 -15 b 75 22 49 13 57 22 b 272 -10 110 22 175 -10 b 49 282 157 -7 49 114 z m 275 707 b 499 440 363 707 478 569 l 499 704 b 460 661 499 672 483 661 b 275 707 411 661 328 707 z "},"ś":{"ha":571,"x_min":0,"x_max":0,"o":"m 228 707 b 56 544 119 696 56 638 b 458 97 56 310 458 272 b 306 -10 458 33 404 -4 b 522 150 447 -4 522 51 b 119 603 522 378 119 414 b 228 707 119 661 157 697 z m 49 -15 b 75 22 49 13 57 22 b 272 -10 110 22 175 -10 b 49 282 157 -7 49 114 z m 194 813 l 378 969 l 263 1000 z m 275 707 b 499 440 363 707 478 569 l 499 704 b 460 661 499 672 483 661 b 275 707 411 661 328 707 z "},"ꞌ":{"ha":300,"x_min":0,"x_max":0,"o":"m 94 917 l 94 56 b 21 0 94 10 61 1 l 279 0 b 206 56 239 1 206 10 l 206 917 b 279 972 206 963 239 971 l 21 972 b 94 917 61 971 94 963 z "},"š":{"ha":571,"x_min":0,"x_max":0,"o":"m 228 707 b 56 544 119 696 56 638 b 458 97 56 310 458 272 b 306 -10 458 33 404 -4 b 522 150 447 -4 522 51 b 119 603 522 378 119 414 b 228 707 119 661 157 697 z m 49 -15 b 75 22 49 13 57 22 b 272 -10 110 22 175 -10 b 49 282 157 -7 49 114 z m 89 933 l 275 783 l 172 949 z m 275 707 b 499 440 363 707 478 569 l 499 704 b 460 661 499 672 483 661 b 275 707 411 661 328 707 z m 297 783 l 482 933 l 400 949 z "},"ş":{"ha":571,"x_min":0,"x_max":0,"o":"m 228 707 b 56 544 119 696 56 638 b 458 97 56 310 458 272 b 306 -10 458 33 404 -4 b 522 150 447 -4 522 51 b 119 603 522 378 119 414 b 228 707 119 661 157 697 z m 49 -15 b 75 22 49 13 57 22 b 272 -10 110 22 175 -10 b 49 282 157 -7 49 114 z m 214 -228 b 357 -171 308 -228 357 -208 b 264 -117 357 -137 319 -117 b 304 -171 289 -117 304 -135 b 214 -228 304 -211 281 -226 z m 239 -117 l 249 -117 l 249 -49 l 239 -49 z m 275 707 b 499 440 363 707 478 569 l 499 704 b 460 661 499 672 483 661 b 275 707 411 661 328 707 z "},"ŝ":{"ha":571,"x_min":0,"x_max":0,"o":"m 228 707 b 56 544 119 696 56 638 b 458 97 56 310 458 272 b 306 -10 458 33 404 -4 b 522 150 447 -4 522 51 b 119 603 522 378 119 414 b 228 707 119 661 157 697 z m 49 -15 b 75 22 49 13 57 22 b 272 -10 110 22 175 -10 b 49 282 157 -7 49 114 z m 89 854 l 172 839 l 275 1004 z m 275 707 b 499 440 363 707 478 569 l 499 704 b 460 661 499 672 483 661 b 275 707 411 661 328 707 z m 297 1004 l 400 839 l 482 854 z "},"ș":{"ha":571,"x_min":0,"x_max":0,"o":"m 228 707 b 56 544 119 696 56 638 b 458 97 56 310 458 272 b 306 -10 458 33 404 -4 b 522 150 447 -4 522 51 b 119 603 522 378 119 414 b 228 707 119 661 157 697 z m 49 -15 b 75 22 49 13 57 22 b 272 -10 110 22 175 -10 b 49 282 157 -7 49 114 z m 226 -94 l 282 -279 l 290 -279 l 346 -94 z m 275 707 b 499 440 363 707 478 569 l 499 704 b 460 661 499 672 483 661 b 275 707 411 661 328 707 z "},"ṣ":{"ha":571,"x_min":0,"x_max":0,"o":"m 228 707 b 56 544 119 696 56 638 b 458 97 56 310 458 272 b 306 -10 458 33 404 -4 b 522 150 447 -4 522 51 b 119 603 522 378 119 414 b 228 707 119 661 157 697 z m 49 -15 b 75 22 49 13 57 22 b 272 -10 110 22 175 -10 b 49 282 157 -7 49 114 z m 235 -187 b 288 -239 235 -218 256 -239 b 339 -187 318 -239 339 -218 b 288 -135 339 -156 318 -135 b 235 -187 256 -135 235 -156 z m 275 707 b 499 440 363 707 478 569 l 499 704 b 460 661 499 672 483 661 b 275 707 411 661 328 707 z "},"ß":{"ha":717,"x_min":0,"x_max":0,"o":"m 343 972 b 324 971 304 972 353 972 b 483 756 428 972 483 907 b 354 536 483 607 429 542 l 264 529 l 364 529 b 564 275 492 529 564 433 b 389 7 564 108 483 7 b 299 72 344 7 301 32 b 417 -1 301 28 347 -1 b 675 257 514 -1 675 56 b 444 539 675 407 586 514 b 594 740 533 564 594 647 b 343 972 594 886 446 972 z m 21 0 l 206 0 l 206 783 b 271 972 206 925 228 969 l 267 972 b 94 740 197 964 94 903 l 94 56 b 21 0 94 10 61 1 z m 299 72 b 303 103 299 88 300 94 b 299 76 299 93 299 85 z m 314 971 b 324 971 317 971 321 971 z "},"t":{"ha":471,"x_min":0,"x_max":0,"o":"m 0 694 l 81 694 l 81 276 b 279 -10 82 149 128 -4 l 288 -10 b 268 -8 281 -10 275 -10 b 192 222 206 -1 192 47 l 192 875 b 0 694 186 771 146 700 z m 221 694 b 407 538 307 694 407 611 l 407 694 z m 313 -10 b 464 46 363 -3 431 22 l 386 200 b 313 -10 422 128 372 8 z "},"ŧ":{"ha":471,"x_min":0,"x_max":0,"o":"m 0 694 l 81 694 l 81 351 l 39 351 l 39 342 l 81 342 l 81 276 b 279 -10 82 149 128 -4 l 288 -10 b 268 -8 281 -10 275 -10 b 192 222 206 -1 192 47 l 192 342 l 432 342 l 432 351 l 192 351 l 192 875 b 0 694 186 771 146 700 z m 221 694 b 407 538 307 694 407 611 l 407 694 z m 313 -10 b 464 46 363 -3 431 22 l 386 200 b 313 -10 422 128 372 8 z "},"ť":{"ha":471,"x_min":0,"x_max":0,"o":"m 0 694 l 81 694 l 81 276 b 279 -10 82 149 128 -4 l 288 -10 b 268 -8 281 -10 275 -10 b 192 222 206 -1 192 47 l 192 875 b 0 694 186 771 146 700 z m 221 694 b 407 538 307 694 407 611 l 407 694 z m 313 -10 b 464 46 363 -3 431 22 l 386 200 b 313 -10 422 128 372 8 z m 471 804 b 606 929 547 842 603 876 b 553 985 606 963 588 985 b 501 933 522 985 501 964 b 525 888 501 913 510 896 b 471 804 547 874 511 825 z "},"ţ":{"ha":471,"x_min":0,"x_max":0,"o":"m 0 694 l 81 694 l 81 276 b 279 -10 82 149 128 -4 l 288 -10 b 268 -8 281 -10 275 -10 b 192 222 206 -1 192 47 l 192 875 b 0 694 186 771 146 700 z m 164 -228 b 307 -171 258 -228 307 -208 b 214 -117 307 -137 269 -117 b 254 -171 239 -117 254 -135 b 164 -228 254 -211 231 -226 z m 189 -117 l 199 -117 l 199 -49 l 189 -49 z m 221 694 b 407 538 307 694 407 611 l 407 694 z m 313 -10 b 464 46 363 -3 431 22 l 386 200 b 313 -10 422 128 372 8 z "},"ṱ":{"ha":471,"x_min":0,"x_max":0,"o":"m 0 694 l 81 694 l 81 276 b 279 -10 82 149 128 -4 l 288 -10 b 268 -8 281 -10 275 -10 b 192 222 206 -1 192 47 l 192 875 b 0 694 186 771 146 700 z m 40 -239 l 122 -254 l 225 -89 z m 221 694 b 407 538 307 694 407 611 l 407 694 z m 247 -89 l 350 -254 l 433 -239 z m 313 -10 b 464 46 363 -3 431 22 l 386 200 b 313 -10 422 128 372 8 z "},"ț":{"ha":471,"x_min":0,"x_max":0,"o":"m 0 694 l 81 694 l 81 276 b 279 -10 82 149 128 -4 l 288 -10 b 268 -8 281 -10 275 -10 b 192 222 206 -1 192 47 l 192 875 b 0 694 186 771 146 700 z m 176 -94 l 232 -279 l 240 -279 l 296 -94 z m 221 694 b 407 538 307 694 407 611 l 407 694 z m 313 -10 b 464 46 363 -3 431 22 l 386 200 b 313 -10 422 128 372 8 z "},"ẗ":{"ha":471,"x_min":0,"x_max":0,"o":"m 0 694 l 81 694 l 81 276 b 279 -10 82 149 128 -4 l 288 -10 b 268 -8 281 -10 275 -10 b 192 222 206 -1 192 47 l 192 869 b 193 883 193 874 193 879 b 140 935 193 914 172 935 b 89 883 110 935 89 914 b 140 831 89 851 110 831 b 192 868 167 831 186 844 b 0 694 185 768 143 700 z m 221 694 b 407 538 307 694 407 611 l 407 694 z m 279 883 b 331 831 279 851 300 831 b 383 883 363 831 383 851 b 331 935 383 914 363 935 b 279 883 300 935 279 914 z m 313 -10 b 464 46 363 -3 431 22 l 386 200 b 313 -10 422 128 372 8 z "},"ṭ":{"ha":471,"x_min":0,"x_max":0,"o":"m 0 694 l 81 694 l 81 276 b 279 -10 82 149 128 -4 l 288 -10 b 268 -8 281 -10 275 -10 b 192 222 206 -1 192 47 l 192 875 b 0 694 186 771 146 700 z m 185 -187 b 238 -239 185 -218 206 -239 b 289 -187 268 -239 289 -218 b 238 -135 289 -156 268 -135 b 185 -187 206 -135 185 -156 z m 221 694 b 407 538 307 694 407 611 l 407 694 z m 313 -10 b 464 46 363 -3 431 22 l 386 200 b 313 -10 422 128 372 8 z "},"ṯ":{"ha":471,"x_min":0,"x_max":0,"o":"m 0 694 l 81 694 l 81 276 b 279 -10 82 149 128 -4 l 288 -10 b 268 -8 281 -10 275 -10 b 192 222 206 -1 192 47 l 192 875 b 0 694 186 771 146 700 z m 40 -176 l 433 -176 l 433 -167 l 40 -167 z m 221 694 b 407 538 307 694 407 611 l 407 694 z m 313 -10 b 464 46 363 -3 431 22 l 386 200 b 313 -10 422 128 372 8 z "},"u":{"ha":686,"x_min":0,"x_max":0,"o":"m 424 35 b 307 -6 378 7 339 -6 b 192 236 229 -6 192 74 l 192 704 l 7 654 b 43 658 -6 651 32 658 b 81 608 65 658 81 649 l 81 256 b 276 -12 81 88 163 -12 b 424 35 322 -12 372 3 z m 407 654 b 443 658 394 651 432 658 b 481 608 465 658 481 649 l 481 -1 b 665 13 592 18 599 14 b 592 69 606 18 592 14 l 592 704 z "},"ú":{"ha":686,"x_min":0,"x_max":0,"o":"m 424 35 b 307 -6 378 7 339 -6 b 192 236 229 -6 192 74 l 192 704 l 7 654 b 43 658 -6 651 32 658 b 81 608 65 658 81 649 l 81 256 b 276 -12 81 88 163 -12 b 424 35 322 -12 372 3 z m 251 813 l 435 969 l 319 1000 z m 407 654 b 443 658 394 651 432 658 b 481 608 465 658 481 649 l 481 -1 b 665 13 592 18 599 14 b 592 69 606 18 592 14 l 592 704 z "},"ŭ":{"ha":686,"x_min":0,"x_max":0,"o":"m 424 35 b 307 -6 378 7 339 -6 b 192 236 229 -6 192 74 l 192 704 l 7 654 b 43 658 -6 651 32 658 b 81 608 65 658 81 649 l 81 256 b 276 -12 81 88 163 -12 b 424 35 322 -12 372 3 z m 192 1029 b 339 839 210 940 246 839 b 493 1022 432 839 463 933 b 343 907 464 960 417 907 b 192 1029 267 907 213 967 z m 407 654 b 443 658 394 651 432 658 b 481 608 465 658 481 649 l 481 -1 b 665 13 592 18 599 14 b 592 69 606 18 592 14 l 592 704 z "},"ǔ":{"ha":686,"x_min":0,"x_max":0,"o":"m 424 35 b 307 -6 378 7 339 -6 b 192 236 229 -6 192 74 l 192 704 l 7 654 b 43 658 -6 651 32 658 b 81 608 65 658 81 649 l 81 256 b 276 -12 81 88 163 -12 b 424 35 322 -12 372 3 z m 146 933 l 332 783 l 229 949 z m 354 783 l 539 933 l 457 949 z m 407 654 b 443 658 394 651 432 658 b 481 608 465 658 481 649 l 481 -1 b 665 13 592 18 599 14 b 592 69 606 18 592 14 l 592 704 z "},"û":{"ha":686,"x_min":0,"x_max":0,"o":"m 424 35 b 307 -6 378 7 339 -6 b 192 236 229 -6 192 74 l 192 704 l 7 654 b 43 658 -6 651 32 658 b 81 608 65 658 81 649 l 81 256 b 276 -12 81 88 163 -12 b 424 35 322 -12 372 3 z m 146 854 l 229 839 l 332 1004 z m 354 1004 l 457 839 l 539 854 z m 407 654 b 443 658 394 651 432 658 b 481 608 465 658 481 649 l 481 -1 b 665 13 592 18 599 14 b 592 69 606 18 592 14 l 592 704 z "},"ü":{"ha":686,"x_min":0,"x_max":0,"o":"m 424 35 b 307 -6 378 7 339 -6 b 192 236 229 -6 192 74 l 192 704 l 7 654 b 43 658 -6 651 32 658 b 81 608 65 658 81 649 l 81 256 b 276 -12 81 88 163 -12 b 424 35 322 -12 372 3 z m 196 883 b 247 831 196 851 217 831 b 300 883 279 831 300 851 b 247 935 300 914 279 935 b 196 883 217 935 196 914 z m 386 883 b 438 831 386 851 407 831 b 490 883 469 831 490 851 b 438 935 490 914 469 935 b 386 883 407 935 386 914 z m 407 654 b 443 658 394 651 432 658 b 481 608 465 658 481 649 l 481 -1 b 665 13 592 18 599 14 b 592 69 606 18 592 14 l 592 704 z "},"ǘ":{"ha":686,"x_min":0,"x_max":0,"o":"m 424 35 b 307 -6 378 7 339 -6 b 192 236 229 -6 192 74 l 192 704 l 7 654 b 43 658 -6 651 32 658 b 81 608 65 658 81 649 l 81 256 b 276 -12 81 88 163 -12 b 424 35 322 -12 372 3 z m 196 883 b 247 831 196 851 217 831 b 300 883 279 831 300 851 b 247 935 300 914 279 935 b 196 883 217 935 196 914 z m 251 1053 l 435 1210 l 319 1240 z m 386 883 b 438 831 386 851 407 831 b 490 883 469 831 490 851 b 438 935 490 914 469 935 b 386 883 407 935 386 914 z m 407 654 b 443 658 394 651 432 658 b 481 608 465 658 481 649 l 481 -1 b 665 13 592 18 599 14 b 592 69 606 18 592 14 l 592 704 z "},"ǚ":{"ha":686,"x_min":0,"x_max":0,"o":"m 424 35 b 307 -6 378 7 339 -6 b 192 236 229 -6 192 74 l 192 704 l 7 654 b 43 658 -6 651 32 658 b 81 608 65 658 81 649 l 81 256 b 276 -12 81 88 163 -12 b 424 35 322 -12 372 3 z m 146 1174 l 332 1024 l 229 1189 z m 196 883 b 247 831 196 851 217 831 b 300 883 279 831 300 851 b 247 935 300 914 279 935 b 196 883 217 935 196 914 z m 354 1024 l 539 1174 l 457 1189 z m 386 883 b 438 831 386 851 407 831 b 490 883 469 831 490 851 b 438 935 490 914 469 935 b 386 883 407 935 386 914 z m 407 654 b 443 658 394 651 432 658 b 481 608 465 658 481 649 l 481 -1 b 665 13 592 18 599 14 b 592 69 606 18 592 14 l 592 704 z "},"ǜ":{"ha":686,"x_min":0,"x_max":0,"o":"m 424 35 b 307 -6 378 7 339 -6 b 192 236 229 -6 192 74 l 192 704 l 7 654 b 43 658 -6 651 32 658 b 81 608 65 658 81 649 l 81 256 b 276 -12 81 88 163 -12 b 424 35 322 -12 372 3 z m 196 883 b 247 831 196 851 217 831 b 300 883 279 831 300 851 b 247 935 300 914 279 935 b 196 883 217 935 196 914 z m 251 1210 l 435 1053 l 367 1240 z m 386 883 b 438 831 386 851 407 831 b 490 883 469 831 490 851 b 438 935 490 914 469 935 b 386 883 407 935 386 914 z m 407 654 b 443 658 394 651 432 658 b 481 608 465 658 481 649 l 481 -1 b 665 13 592 18 599 14 b 592 69 606 18 592 14 l 592 704 z "},"ǖ":{"ha":686,"x_min":0,"x_max":0,"o":"m 424 35 b 307 -6 378 7 339 -6 b 192 236 229 -6 192 74 l 192 704 l 7 654 b 43 658 -6 651 32 658 b 81 608 65 658 81 649 l 81 256 b 276 -12 81 88 163 -12 b 424 35 322 -12 372 3 z m 146 1101 l 539 1101 l 539 1111 l 146 1111 z m 196 883 b 247 831 196 851 217 831 b 300 883 279 831 300 851 b 247 935 300 914 279 935 b 196 883 217 935 196 914 z m 386 883 b 438 831 386 851 407 831 b 490 883 469 831 490 851 b 438 935 490 914 469 935 b 386 883 407 935 386 914 z m 407 654 b 443 658 394 651 432 658 b 481 608 465 658 481 649 l 481 -1 b 665 13 592 18 599 14 b 592 69 606 18 592 14 l 592 704 z "},"ụ":{"ha":686,"x_min":0,"x_max":0,"o":"m 424 35 b 307 -6 378 7 339 -6 b 192 236 229 -6 192 74 l 192 704 l 7 654 b 43 658 -6 651 32 658 b 81 608 65 658 81 649 l 81 256 b 276 -12 81 88 163 -12 b 424 35 322 -12 372 3 z m 292 -187 b 344 -239 292 -218 313 -239 b 396 -187 375 -239 396 -218 b 344 -135 396 -156 375 -135 b 292 -187 313 -135 292 -156 z m 407 654 b 443 658 394 651 432 658 b 481 608 465 658 481 649 l 481 -1 b 665 13 592 18 599 14 b 592 69 606 18 592 14 l 592 704 z "},"ù":{"ha":686,"x_min":0,"x_max":0,"o":"m 424 35 b 307 -6 378 7 339 -6 b 192 236 229 -6 192 74 l 192 704 l 7 654 b 43 658 -6 651 32 658 b 81 608 65 658 81 649 l 81 256 b 276 -12 81 88 163 -12 b 424 35 322 -12 372 3 z m 251 969 l 435 813 l 367 1000 z m 407 654 b 443 658 394 651 432 658 b 481 608 465 658 481 649 l 481 -1 b 665 13 592 18 599 14 b 592 69 606 18 592 14 l 592 704 z "},"ủ":{"ha":686,"x_min":0,"x_max":0,"o":"m 424 35 b 307 -6 378 7 339 -6 b 192 236 229 -6 192 74 l 192 704 l 7 654 b 43 658 -6 651 32 658 b 81 608 65 658 81 649 l 81 256 b 276 -12 81 88 163 -12 b 424 35 322 -12 372 3 z m 275 804 b 410 929 351 842 407 876 b 357 985 410 963 392 985 b 306 933 326 985 306 964 b 329 888 306 913 314 896 b 275 804 351 874 315 825 z m 407 654 b 443 658 394 651 432 658 b 481 608 465 658 481 649 l 481 -1 b 665 13 592 18 599 14 b 592 69 606 18 592 14 l 592 704 z "},"ư":{"ha":686,"x_min":0,"x_max":0,"o":"m 424 35 b 307 -6 378 7 339 -6 b 192 236 229 -6 192 74 l 192 704 l 7 654 b 43 658 -6 651 32 658 b 81 608 65 658 81 649 l 81 256 b 276 -12 81 88 163 -12 b 424 35 322 -12 372 3 z m 407 654 b 443 658 394 651 432 658 b 481 608 465 658 481 649 l 481 -1 b 665 13 592 18 599 14 b 592 69 606 18 592 14 l 592 704 z m 592 704 b 774 1013 756 775 819 874 l 682 988 b 592 704 718 854 704 779 z "},"ứ":{"ha":686,"x_min":0,"x_max":0,"o":"m 424 35 b 307 -6 378 7 339 -6 b 192 236 229 -6 192 74 l 192 704 l 7 654 b 43 658 -6 651 32 658 b 81 608 65 658 81 649 l 81 256 b 276 -12 81 88 163 -12 b 424 35 322 -12 372 3 z m 251 813 l 435 969 l 319 1000 z m 407 654 b 443 658 394 651 432 658 b 481 608 465 658 481 649 l 481 -1 b 665 13 592 18 599 14 b 592 69 606 18 592 14 l 592 704 z m 592 704 b 774 1013 756 775 819 874 l 682 988 b 592 704 718 854 704 779 z "},"ự":{"ha":686,"x_min":0,"x_max":0,"o":"m 424 35 b 307 -6 378 7 339 -6 b 192 236 229 -6 192 74 l 192 704 l 7 654 b 43 658 -6 651 32 658 b 81 608 65 658 81 649 l 81 256 b 276 -12 81 88 163 -12 b 424 35 322 -12 372 3 z m 292 -187 b 344 -239 292 -218 313 -239 b 396 -187 375 -239 396 -218 b 344 -135 396 -156 375 -135 b 292 -187 313 -135 292 -156 z m 407 654 b 443 658 394 651 432 658 b 481 608 465 658 481 649 l 481 -1 b 665 13 592 18 599 14 b 592 69 606 18 592 14 l 592 704 z m 592 704 b 774 1013 756 775 819 874 l 682 988 b 592 704 718 854 704 779 z "},"ừ":{"ha":686,"x_min":0,"x_max":0,"o":"m 424 35 b 307 -6 378 7 339 -6 b 192 236 229 -6 192 74 l 192 704 l 7 654 b 43 658 -6 651 32 658 b 81 608 65 658 81 649 l 81 256 b 276 -12 81 88 163 -12 b 424 35 322 -12 372 3 z m 251 969 l 435 813 l 367 1000 z m 407 654 b 443 658 394 651 432 658 b 481 608 465 658 481 649 l 481 -1 b 665 13 592 18 599 14 b 592 69 606 18 592 14 l 592 704 z m 592 704 b 774 1013 756 775 819 874 l 682 988 b 592 704 718 854 704 779 z "},"ử":{"ha":686,"x_min":0,"x_max":0,"o":"m 424 35 b 307 -6 378 7 339 -6 b 192 236 229 -6 192 74 l 192 704 l 7 654 b 43 658 -6 651 32 658 b 81 608 65 658 81 649 l 81 256 b 276 -12 81 88 163 -12 b 424 35 322 -12 372 3 z m 275 804 b 410 929 351 842 407 876 b 357 985 410 963 392 985 b 306 933 326 985 306 964 b 329 888 306 913 314 896 b 275 804 351 874 315 825 z m 407 654 b 443 658 394 651 432 658 b 481 608 465 658 481 649 l 481 -1 b 665 13 592 18 599 14 b 592 69 606 18 592 14 l 592 704 z m 592 704 b 774 1013 756 775 819 874 l 682 988 b 592 704 718 854 704 779 z "},"ữ":{"ha":686,"x_min":0,"x_max":0,"o":"m 424 35 b 307 -6 378 7 339 -6 b 192 236 229 -6 192 74 l 192 704 l 7 654 b 43 658 -6 651 32 658 b 81 608 65 658 81 649 l 81 256 b 276 -12 81 88 163 -12 b 424 35 322 -12 372 3 z m 193 781 b 279 861 199 847 213 861 l 374 861 b 492 975 433 861 492 869 b 357 915 492 900 400 915 l 300 915 b 193 781 231 915 193 869 z m 407 654 b 443 658 394 651 432 658 b 481 608 465 658 481 649 l 481 -1 b 665 13 592 18 599 14 b 592 69 606 18 592 14 l 592 704 z m 592 704 b 774 1013 756 775 819 874 l 682 988 b 592 704 718 854 704 779 z "},"ű":{"ha":686,"x_min":0,"x_max":0,"o":"m 424 35 b 307 -6 378 7 339 -6 b 192 236 229 -6 192 74 l 192 704 l 7 654 b 43 658 -6 651 32 658 b 81 608 65 658 81 649 l 81 256 b 276 -12 81 88 163 -12 b 424 35 322 -12 372 3 z m 118 813 l 301 969 l 186 1000 z m 385 813 l 568 969 l 453 1000 z m 407 654 b 443 658 394 651 432 658 b 481 608 465 658 481 649 l 481 -1 b 665 13 592 18 599 14 b 592 69 606 18 592 14 l 592 704 z "},"ū":{"ha":686,"x_min":0,"x_max":0,"o":"m 424 35 b 307 -6 378 7 339 -6 b 192 236 229 -6 192 74 l 192 704 l 7 654 b 43 658 -6 651 32 658 b 81 608 65 658 81 649 l 81 256 b 276 -12 81 88 163 -12 b 424 35 322 -12 372 3 z m 146 861 l 539 861 l 539 871 l 146 871 z m 407 654 b 443 658 394 651 432 658 b 481 608 465 658 481 649 l 481 -1 b 665 13 592 18 599 14 b 592 69 606 18 592 14 l 592 704 z "},"ų":{"ha":686,"x_min":0,"x_max":0,"o":"m 424 35 b 307 -6 378 7 339 -6 b 192 236 229 -6 192 74 l 192 704 l 7 654 b 43 658 -6 651 32 658 b 81 608 65 658 81 649 l 81 256 b 276 -12 81 88 163 -12 b 424 35 322 -12 372 3 z m 407 654 b 443 658 394 651 432 658 b 481 608 465 658 481 649 l 481 -1 b 519 6 494 1 507 3 b 475 -62 492 -7 475 -29 b 618 -164 475 -121 524 -164 b 528 -61 551 -162 528 -124 b 551 10 528 -22 536 1 b 665 13 600 17 617 14 b 592 69 606 18 592 14 l 592 704 z "},"ʊ":{"ha":778,"x_min":0,"x_max":0,"o":"m 615 108 b 403 -3 574 29 486 -3 b 199 236 268 -3 199 81 l 199 917 b 272 972 199 963 232 971 l 14 972 b 88 917 54 971 88 963 l 88 256 b 385 -12 88 93 203 -12 b 615 108 494 -12 578 26 z m 542 972 b 651 597 624 972 649 885 b 764 972 663 885 692 972 z "},"ů":{"ha":686,"x_min":0,"x_max":0,"o":"m 424 35 b 307 -6 378 7 339 -6 b 192 236 229 -6 192 74 l 192 704 l 7 654 b 43 658 -6 651 32 658 b 81 608 65 658 81 649 l 81 256 b 276 -12 81 88 163 -12 b 424 35 322 -12 372 3 z m 224 929 b 343 810 224 857 271 810 b 461 929 414 810 461 857 b 343 1047 461 1000 414 1047 b 224 929 271 1047 224 1000 z m 243 929 b 343 1028 243 989 282 1028 b 442 929 403 1028 442 989 b 343 829 442 868 403 829 b 243 929 282 829 243 868 z m 407 654 b 443 658 394 651 432 658 b 481 608 465 658 481 649 l 481 -1 b 665 13 592 18 599 14 b 592 69 606 18 592 14 l 592 704 z "},"ũ":{"ha":686,"x_min":0,"x_max":0,"o":"m 424 35 b 307 -6 378 7 339 -6 b 192 236 229 -6 192 74 l 192 704 l 7 654 b 43 658 -6 651 32 658 b 81 608 65 658 81 649 l 81 256 b 276 -12 81 88 163 -12 b 424 35 322 -12 372 3 z m 193 781 b 279 861 199 847 213 861 l 374 861 b 492 975 433 861 492 869 b 357 915 492 900 400 915 l 300 915 b 193 781 231 915 193 869 z m 407 654 b 443 658 394 651 432 658 b 481 608 465 658 481 649 l 481 -1 b 665 13 592 18 599 14 b 592 69 606 18 592 14 l 592 704 z "},"v":{"ha":690,"x_min":0,"x_max":0,"o":"m 75 639 l 303 -12 l 363 135 l 186 639 b 258 694 171 682 214 693 l 0 694 b 75 639 44 693 61 678 z m 451 694 b 472 379 540 694 529 535 b 690 694 553 590 613 694 z "},"ʌ":{"ha":690,"x_min":0,"x_max":0,"o":"m 615 56 l 388 707 l 328 560 l 504 56 b 432 0 519 13 476 1 l 690 0 b 615 56 646 1 629 17 z m 0 0 l 239 0 b 218 315 150 0 161 160 b 0 0 138 104 78 0 z "},"w":{"ha":1024,"x_min":0,"x_max":0,"o":"m 78 639 l 317 -12 l 376 135 l 189 639 b 261 694 174 682 217 693 l 0 694 b 78 639 44 693 64 678 z m 333 694 b 408 639 378 693 394 678 l 636 -12 l 696 135 l 519 639 b 592 694 504 682 547 693 z m 785 694 b 806 379 874 694 863 535 b 1024 694 886 590 946 694 z "}}}
